<?xml version="1.0" standalone="no"?>
<!DOCTYPE svg PUBLIC "-//W3C//DTD SVG 1.1//EN" "http://www.w3.org/Graphics/SVG/1.1/DTD/svg11.dtd" >
<svg>
<metadata>
Created by FontForge 20090914 at Tue Aug  3 07:08:47 2021
 By www-data
Copyright 2019 The Merriweather Project Authors (https://github.com/SorkinType/Merriweather-Sans)
</metadata>
<defs>
<font id="MerriweatherSans-Regular" horiz-adv-x="0" >
  <font-face 
    font-family="Merriweather Sans"
    font-weight="400"
    font-stretch="normal"
    units-per-em="2000"
    panose-1="0 0 0 0 0 0 0 0 0 0"
    ascent="1600"
    descent="-400"
    x-height="1114"
    cap-height="1486"
    bbox="-574 -567 2971.04 2472"
    underline-thickness="110"
    underline-position="-189"
    unicode-range="U+000D-U+FB02"
  />
<missing-glyph horiz-adv-x="1830" 
d="M223 0v1382h1384v-1382h-1384zM573 214l340 360l352 -360l120 120l-354 358l354 350l-126 122l-342 -358l-350 360l-120 -124l350 -354l-348 -334z" />
    <glyph glyph-name="fi" unicode="fi" horiz-adv-x="1390" 
d="M240 0v943h-165v129l165 42v98c0 82.667 12.333 151.667 37 207s57.167 99.333 97.5 132s84.333 56 132 70s94.167 21 139.5 21c32.667 0 63 -2.5 91 -7.5s47.333 -9.16699 58 -12.5v-178c-19.333 6 -41 10.667 -65 14s-57.333 5 -100 5
c-46 0 -83.833 -17.5 -113.5 -52.5s-44.5 -87.833 -44.5 -158.5v-138h271v-171h-271v-943h-232zM980 0v1112h230v-1112h-230zM1082 1309c-38.667 0 -72.498 12.333 -101.498 37s-43.5 58.334 -43.5 101.001c0 29.333 8.16699 55.833 24.5 79.5s37.166 42.667 62.499 57
s51.666 21.5 78.999 21.5c47.333 0 83 -13.333 107 -40s36 -59.334 36 -98.001c0 -46 -16.5 -83.833 -49.5 -113.5s-71.167 -44.5 -114.5 -44.5z" />
    <glyph glyph-name="fl" unicode="fl" horiz-adv-x="1392" 
d="M240 0v943h-165v129l165 42v98c0 82.667 12.333 151.667 37 207s57.167 99.333 97.5 132s84.333 56 132 70s94.167 21 139.5 21c32.667 0 63 -2.5 91 -7.5s47.333 -9.16699 58 -12.5v-178c-19.333 6 -41 10.667 -65 14s-57.333 5 -100 5
c-46 0 -83.833 -17.5 -113.5 -52.5s-44.5 -87.833 -44.5 -158.5v-138h271v-171h-271v-943h-232zM980 0v1626h232v-1626h-232z" />
    <glyph glyph-name="f_f" unicode="ff" horiz-adv-x="1600" 
d="M240 0v943h-165v129l165 42v98c0 82.667 12.333 151.667 37 207s57.167 99.333 97.5 132s84.333 56 132 70s94.167 21 139.5 21c32.667 0 63 -2.5 91 -7.5s47.333 -9.16699 58 -12.5v-178c-19.333 6 -41 10.667 -65 14s-57.333 5 -100 5
c-46 0 -83.833 -17.5 -113.5 -52.5s-44.5 -87.833 -44.5 -158.5v-138h271v-171h-271v-943h-232zM1040 0v943h-165v129l165 42v98c0 82.667 12.333 151.667 37 207s57.167 99.333 97.5 132s84.333 56 132 70s94.167 21 139.5 21c32.667 0 63 -2.5 91 -7.5
s47.333 -9.16699 58 -12.5v-178c-19.333 6 -41 10.667 -65 14s-57.333 5 -100 5c-46 0 -83.833 -17.5 -113.5 -52.5s-44.5 -87.833 -44.5 -158.5v-138h271v-171h-271v-943h-232z" />
    <glyph glyph-name="f_f_i" unicode="ffi" horiz-adv-x="2190" 
d="M240 0v943h-165v129l165 42v98c0 82.667 12.333 151.667 37 207s57.167 99.333 97.5 132s84.333 56 132 70s94.167 21 139.5 21c32.667 0 63 -2.5 91 -7.5s47.333 -9.16699 58 -12.5v-178c-19.333 6 -41 10.667 -65 14s-57.333 5 -100 5
c-46 0 -83.833 -17.5 -113.5 -52.5s-44.5 -87.833 -44.5 -158.5v-138h271v-171h-271v-943h-232zM1040 0v943h-165v129l165 42v98c0 82.667 12.333 151.667 37 207s57.167 99.333 97.5 132s84.333 56 132 70s94.167 21 139.5 21c32.667 0 63 -2.5 91 -7.5
s47.333 -9.16699 58 -12.5v-178c-19.333 6 -41 10.667 -65 14s-57.333 5 -100 5c-46 0 -83.833 -17.5 -113.5 -52.5s-44.5 -87.833 -44.5 -158.5v-138h271v-171h-271v-943h-232zM1780 0v1112h230v-1112h-230zM1882 1309c-38.667 0 -72.498 12.333 -101.498 37
s-43.5 58.334 -43.5 101.001c0 29.333 8.16699 55.833 24.5 79.5s37.166 42.667 62.499 57s51.666 21.5 78.999 21.5c47.333 0 83 -13.333 107 -40s36 -59.334 36 -98.001c0 -46 -16.5 -83.833 -49.5 -113.5s-71.167 -44.5 -114.5 -44.5z" />
    <glyph glyph-name="f_f_l" unicode="ffl" horiz-adv-x="2192" 
d="M240 0v943h-165v129l165 42v98c0 82.667 12.333 151.667 37 207s57.167 99.333 97.5 132s84.333 56 132 70s94.167 21 139.5 21c32.667 0 63 -2.5 91 -7.5s47.333 -9.16699 58 -12.5v-178c-19.333 6 -41 10.667 -65 14s-57.333 5 -100 5
c-46 0 -83.833 -17.5 -113.5 -52.5s-44.5 -87.833 -44.5 -158.5v-138h271v-171h-271v-943h-232zM1040 0v943h-165v129l165 42v98c0 82.667 12.333 151.667 37 207s57.167 99.333 97.5 132s84.333 56 132 70s94.167 21 139.5 21c32.667 0 63 -2.5 91 -7.5
s47.333 -9.16699 58 -12.5v-178c-19.333 6 -41 10.667 -65 14s-57.333 5 -100 5c-46 0 -83.833 -17.5 -113.5 -52.5s-44.5 -87.833 -44.5 -158.5v-138h271v-171h-271v-943h-232zM1780 0v1626h232v-1626h-232z" />
    <glyph glyph-name=".notdef" horiz-adv-x="1830" 
d="M223 0v1382h1384v-1382h-1384zM573 214l340 360l352 -360l120 120l-354 358l354 350l-126 122l-342 -358l-350 360l-120 -124l350 -354l-348 -334z" />
    <glyph glyph-name="uni0000" 
 />
    <glyph glyph-name="uni0000" 
 />
    <glyph glyph-name="CR" unicode="&#xd;" 
 />
    <glyph glyph-name="space" unicode=" " horiz-adv-x="360" 
 />
    <glyph glyph-name="exclam" unicode="!" horiz-adv-x="595" 
d="M204 503l-31 1235h259l-26 -1235h-202zM289 -22c-40.667 0 -75.333 14.832 -104 44.499s-43.667 66.5 -45 110.5c-0.666992 32.667 6.66602 62.334 21.999 89.001s35.833 48 61.5 64s52.5 24 80.5 24c48.667 0 85.667 -15.333 111 -46s38.333 -66.667 39 -108
c0.666992 -33.333 -6.66602 -63.5 -21.999 -90.5s-35.5 -48.333 -60.5 -64s-52.5 -23.5 -82.5 -23.5z" />
    <glyph glyph-name="quotedbl" unicode="&#x22;" horiz-adv-x="1247" 
d="M284 924l-35 722h249l-32 -722h-182zM783 924l-35 722h249l-32 -722h-182z" />
    <glyph glyph-name="numbersign" unicode="#" horiz-adv-x="1478" 
d="M324 0l122 1340h198l-126 -1340h-194zM818 0l120 1340h198l-126 -1340h-192zM1318 856h-1124v156h1124v-156zM1274 342h-1114v162h1114v-162z" />
    <glyph glyph-name="dollar" unicode="$" horiz-adv-x="1346" 
d="M615 1463l3 257h163l-3 -257h-163zM573 -230l3 252h164l-3 -252h-164zM651 -16c-64.667 0 -125.836 4.83398 -183.503 14.501s-107.167 21.167 -148.5 34.5s-71 25.666 -89 36.999l49 191c25.333 -14.667 57 -29 95 -43s79.667 -25.5 125 -34.5s91.333 -13.5 138 -13.5
c91.333 0 161 15.333 209 46s72 80.667 72 150c0 46.667 -12 85.834 -36 117.501s-59.833 61.5 -107.5 89.5s-107.167 59 -178.5 93c-60.667 30 -119.5 66 -176.5 108s-103.833 91.333 -140.5 148s-55 121.667 -55 195c0 72 14.167 132.5 42.5 181.5s66.5 88.5 114.5 118.5
s101.5 51.667 160.5 65s119.5 20 181.5 20c90.667 0 165.667 -8.83301 225 -26.5s102 -35.167 128 -52.5l-46 -185c-34 21.333 -73.833 40.5 -119.5 57.5s-108.167 25.5 -187.5 25.5c-48.667 0 -93.667 -6.33301 -135 -19s-74.666 -32 -99.999 -58s-38 -59.333 -38 -100
c0 -46 9.5 -84.5 28.5 -115.5s49.833 -60 92.5 -87s98.667 -58.5 168 -94.5c50 -26 99.333 -53.5 148 -82.5s92.834 -61.167 132.501 -96.5s71.334 -75.833 95.001 -121.5s35.5 -97.834 35.5 -156.501c0 -90.667 -21.167 -166.167 -63.5 -226.5s-101 -105.333 -176 -135
s-161.5 -44.5 -259.5 -44.5z" />
    <glyph glyph-name="percent" unicode="%" horiz-adv-x="1955" 
d="M430 643c-74.667 -0.666992 -138.168 17.501 -190.501 54.501s-92.166 86.5 -119.499 148.5s-41 129.667 -41 203c0 88.667 18 163.667 54 225s83 108.166 141 140.499s120 49.166 186 50.499c82 2 149 -15.167 201 -51.5s90.167 -85.666 114.5 -147.999
s36.5 -131.833 36.5 -208.5c0 -88.667 -18 -163.5 -54 -224.5s-83 -107.5 -141 -139.5s-120.333 -48.667 -187 -50zM564.999 0.000976562l624 1494h195l-624 -1494h-195zM443.999 794.001c54.667 0 96.501 22.832 125.501 68.499s43.5 107.834 43.5 186.501
c0 80 -14.333 144.167 -43 192.5s-69.334 72.5 -122.001 72.5c-54.667 0 -96.667 -23 -126 -69s-44 -108.667 -44 -188c0 -75.333 14.5 -138 43.5 -188s69.833 -75 122.5 -75zM1495 43c-75.333 -1.33301 -139.168 16.501 -191.501 53.501s-92.166 86.667 -119.499 149
s-41 130.166 -41 203.499c0 88 18 162.667 54 224s83 108.333 141 141s120.333 49.667 187 51c82 2 148.833 -15.333 200.5 -52s89.667 -86.167 114 -148.5s36.5 -131.5 36.5 -207.5c0 -88.667 -17.833 -163.5 -53.5 -224.5s-82.5 -107.5 -140.5 -139.5
s-120.333 -48.667 -187 -50zM1509 194.001c54.667 0 96.334 22.832 125.001 68.499s43 107.834 43 186.501c0 80 -14.167 144.167 -42.5 192.5s-68.833 72.5 -121.5 72.5c-54.667 0 -96.834 -22.833 -126.501 -68.5s-44.5 -108.167 -44.5 -187.5c0 -76 14.667 -139 44 -189
s70.333 -75 123 -75z" />
    <glyph glyph-name="ampersand" unicode="&#x26;" horiz-adv-x="1498" 
d="M943 207c8.66699 5.33301 15.998 10.6689 21.998 16.002s11.167 10.5 15.5 15.5s8.16602 9.16699 11.499 12.5c29.333 18 54.5 39.5 75.5 64.5s37.333 54.333 49 88s17.5 72.5 17.5 116.5c0 45.333 -4.16699 86 -12.5 122s-14.5 60.333 -18.5 73h200l15.5 -75.5
c7 -33.667 10.5 -73.834 10.5 -120.501c0 -89.333 -17.167 -165.666 -51.5 -228.999s-82.5 -114.666 -144.5 -153.999c-4 -3.33301 -8.16699 -7.83301 -12.5 -13.5l-13 -16.5c-4.33301 -5.33301 -9.16602 -9.33301 -14.499 -12c-42 -28 -96.5 -53.333 -163.5 -76
s-133.167 -34 -198.5 -34c-120 0 -224.833 15 -314.5 45s-159.167 74.833 -208.5 134.5s-74 133.5 -74 221.5c0 68 16.667 128 50 180s77.5 97 132.5 135s115.5 70 181.5 96c3.33301 1.33301 9.16602 3.33301 17.499 6l26 8c9 2.66699 15.167 4.66699 18.5 6
c62 21.333 115.833 46.833 161.5 76.5s80.834 66.667 105.501 111s37 98.833 37 163.5c0 26 -6.5 53 -19.5 81s-33 51.833 -60 71.5s-61.167 29.5 -102.5 29.5c-52 0 -97.167 -14.833 -135.5 -44.5s-57.5 -77.167 -57.5 -142.5c0 -38.667 3.83301 -71.834 11.5 -99.501
s19.334 -54 35.001 -79s35.334 -53.5 59.001 -85.5l84.5 -120l32 -40l73.5 -100.5l104 -135.5l110.5 -136.5c36 -43 67 -77.5 93 -103.5c37.333 -34.667 71.666 -61.667 102.999 -81s63.333 -33.5 96 -42.5s69.667 -15.5 111 -19.5v-119
c-13.333 -4 -29.833 -7.66699 -49.5 -11s-42.5 -5 -68.5 -5c-71.333 0 -131.833 12.5 -181.5 37.5s-103.167 61.833 -160.5 110.5c-30.667 31.333 -65.667 70.5 -105 117.5l-120 148.5l-115 150l-92 124l-27 36l-92.5 127.5c-32.333 45 -59.5 94 -81.5 147
s-33 110.833 -33 173.5c0 110 37 196.5 111 259.5s173.333 94.5 298 94.5c78 0 144.833 -16 200.5 -48s98.334 -73.833 128.001 -125.5s44.5 -107.167 44.5 -166.5c0 -64 -8.5 -120.5 -25.5 -169.5s-41.333 -92 -73 -129s-70.167 -70 -115.5 -99s-96.333 -55.833 -153 -80.5
c-6 -2.66699 -15.667 -6 -29 -10l-39.5 -12c-13 -4 -22.833 -7.33301 -29.5 -10c-47.333 -20 -89.333 -43.333 -126 -70s-65.167 -56.334 -85.5 -89.001s-30.5 -68.667 -30.5 -108c0 -41.333 11.5 -80.333 34.5 -117s61 -66.334 114 -89.001s124.167 -34 213.5 -34
c50 0 92.167 5.5 126.5 16.5s68.833 23.5 103.5 37.5z" />
    <glyph glyph-name="quotesingle" unicode="'" horiz-adv-x="748" 
d="M284 924l-35 722h249l-32 -722h-182z" />
    <glyph glyph-name="parenleft" unicode="(" horiz-adv-x="792" 
d="M559 -327c-16.667 10.667 -42.333 32.167 -77 64.5s-72.667 76 -114 131s-80.833 122.167 -118.5 201.5s-68.834 171.833 -93.501 277.5s-37 224.834 -37 357.501c0 113.333 12 218.5 36 315.5s54.5 184.667 91.5 263s76 146.5 117 204.5s79.167 104.5 114.5 139.5
s62.333 57.833 81 68.5l154 -79c-18 -14 -46.667 -43.333 -86 -88s-80.5 -104.834 -123.5 -180.501s-80.333 -167.167 -112 -274.5s-49.167 -231 -52.5 -371c-2.66699 -115.333 5.33301 -220 24 -314s43.334 -177.333 74.001 -250s63.667 -135.167 99 -187.5
s68.833 -95 100.5 -128s57.167 -56.833 76.5 -71.5z" />
    <glyph glyph-name="parenright" unicode=")" horiz-adv-x="792" 
d="M233 1721c16.667 -10.667 42.333 -32.167 77 -64.5s72.667 -76 114 -131s80.833 -122.167 118.5 -201.5s68.834 -171.833 93.501 -277.5s37 -224.834 37 -357.501c0 -113.333 -12 -218.5 -36 -315.5s-54.5 -184.667 -91.5 -263s-76 -146.5 -117 -204.5
s-79.167 -104.5 -114.5 -139.5s-62.333 -57.833 -81 -68.5l-154 79c18 14 46.667 43.333 86 88s80.5 104.834 123.5 180.501s80.333 167.167 112 274.5s49.167 231 52.5 371c2.66699 115.333 -5.33301 220 -24 314s-43.334 177.333 -74.001 250s-63.667 135.167 -99 187.5
s-68.833 95 -100.5 128s-57.167 56.833 -76.5 71.5z" />
    <glyph glyph-name="asterisk" unicode="*" horiz-adv-x="1204" 
d="M511 624l11.9971 261.999l36 168l-126 -121l-215 -145l-98 167l230 124l163 50c-2 1.33301 -10.833 4.33301 -26.5 9l-54 15.5l-55 15.5c-16.333 4.66699 -26.166 7.33398 -29.499 8.00098l-232 118l95 169l218 -145l128 -113c0 2 -2 10.833 -6 26.5l-13.5 54l-13.5 55
c-4 16.333 -6.33301 26.166 -7 29.499l-19 264h194l-13 -260l-35 -167c1.33301 1.33301 8 7.66602 20 18.999l40.5 39l41 39c12.333 11.333 19.5 18 21.5 20l220 145l95 -165l-230 -120l-163 -54l163 -48l236 -114l-100 -173l-214 143l-130 113
c0.666992 -2 2.83398 -11 6.50098 -27l13 -54.5c5 -20.333 9.33301 -38.666 13 -54.999s5.83398 -26.166 6.50098 -29.499l23 -262h-195z" />
    <glyph glyph-name="plus" unicode="+" horiz-adv-x="1362" 
d="M587 274v226l8 171l-162 -8h-212v184h212l162 -9l-8 171v220h186v-220l-8 -171l140 9h236v-184h-236l-140 8l8 -171v-226h-186z" />
    <glyph glyph-name="comma" unicode="," horiz-adv-x="604" 
d="M152 -398v23.998c34.667 18.667 64 51.334 88 98.001s36 97.334 36 152.001c0 28 -5.83301 57 -17.5 87s-26.5 55.667 -44.5 77s-37 33 -57 35v65l150 129c44.667 -16.667 80.5 -42.834 107.5 -78.501s46.667 -74.667 59 -117s18.5 -82.5 18.5 -120.5
c0 -71.333 -12 -137.333 -36 -198s-55.833 -112.167 -95.5 -154.5s-83.167 -72.166 -130.5 -89.499z" />
    <glyph glyph-name="hyphen" unicode="-" horiz-adv-x="1190" 
d="M180 560v186h830v-186h-830z" />
    <glyph glyph-name="period" unicode="." horiz-adv-x="595" 
d="M290 -22c-40 0 -74.6699 14.832 -104.003 44.499s-44.666 66.5 -45.999 110.5c-0.666992 32.667 6.83301 62.334 22.5 89.001s36.167 48 61.5 64s52 24 80 24c48.667 0 85.667 -15.333 111 -46s38.333 -66.667 39 -108c1.33301 -33.333 -5.66699 -63.5 -21 -90.5
s-35.666 -48.333 -60.999 -64s-52.666 -23.5 -81.999 -23.5z" />
    <glyph glyph-name="slash" unicode="/" horiz-adv-x="902" 
d="M72 -354l556 1916h202l-556 -1916h-202z" />
    <glyph glyph-name="zero" unicode="0" horiz-adv-x="1364" 
d="M675 -16c-98 0 -181.5 21.333 -250.5 64s-124.833 100.5 -167.5 173.5s-73.5 156.333 -92.5 250s-27.833 191.5 -26.5 293.5c2 151.333 27.667 282.5 77 393.5s115.833 196.833 199.5 257.5s178.5 91 284.5 91c100 0 183.833 -19.667 251.5 -59
s121.834 -93.5 162.501 -162.5s69.667 -148.667 87 -239s25.666 -186.833 24.999 -289.5c-1.33301 -153.333 -25 -288 -71 -404s-110 -206.5 -192 -271.5s-177.667 -97.5 -287 -97.5zM682 194c100 -2 175.003 43.6641 225.003 136.997s75 231.333 75 414
c0 106.667 -10.333 201.334 -31 284.001s-52.834 147.834 -96.501 195.501s-99.834 71.5 -168.501 71.5c-98.667 0 -173.834 -45.333 -225.501 -136s-77.5 -219.667 -77.5 -387c0 -103.333 10.667 -198.666 32 -285.999s54 -157.5 98 -210.5s100.333 -80.5 169 -82.5z" />
    <glyph glyph-name="one" unicode="1" horiz-adv-x="894" 
d="M356 0l-0.000976562 1228l-110.5 -28c-35.667 -8.66699 -72.167 -16.667 -109.5 -24l-26 138c32 9.33301 66.833 22 104.5 38s74.667 33.333 111 52s68.833 37.167 97.5 55.5s50.334 33.833 65.001 46.5l106 -18v-1488h-238z" />
    <glyph glyph-name="two" unicode="2" horiz-adv-x="1235" 
d="M160 0l-35.0049 118.002c62 41.333 125.333 89 190 143s126.334 112 185.001 174s111.334 126.5 158.001 193.5s83.5 134.5 110.5 202.5s40.5 134.667 40.5 200c0 89.333 -22.167 157.666 -66.5 204.999s-106.166 71 -185.499 71c-68 0 -131.167 -13.833 -189.5 -41.5
s-105.166 -60.167 -140.499 -97.5l-97 139c26 27.333 60.833 55.833 104.5 85.5s95.834 54.667 156.501 75s128.667 30.5 204 30.5c106 0 192.833 -20.333 260.5 -61s117.5 -95.334 149.5 -164.001s48 -145.334 48 -230.001c0 -100 -24.167 -201.333 -72.5 -304
s-115 -201.167 -200 -295.5s-183.167 -180.166 -294.5 -257.499l624 9v-195h-950z" />
    <glyph glyph-name="three" unicode="3" horiz-adv-x="1124" 
d="M145 4l-1.99219 157.001c27.333 -4.66699 55.166 -8.66699 83.499 -12s55.166 -5 80.499 -5c94 0 176.833 11.833 248.5 35.5s127.5 56.667 167.5 99s60 90.833 60 145.5c0 55.333 -11.167 103.833 -33.5 145.5s-58.166 73.167 -107.499 94.5s-114 29.333 -194 24
l-97 -24l-45 156c34 6.66699 67 15 99 25s62 21 90 33c67.333 28 120.166 63.833 158.499 107.5s57.833 91.834 58.5 144.501c1.33301 69.333 -19.834 118.666 -63.501 147.999s-97.5 44 -161.5 44c-70.667 0 -130.5 -11 -179.5 -33s-90.833 -45.333 -125.5 -70l-85 134
c24.667 20.667 58.167 42.667 100.5 66s90.5 43.333 144.5 60s109.667 25 167 25c81.333 0 154.666 -13.167 219.999 -39.5s117.166 -65 155.499 -116s57.5 -113.833 57.5 -188.5c0 -63.333 -15.333 -120.833 -46 -172.5s-71.334 -96 -122.001 -133
s-105.667 -65.5 -165 -85.5v29c90 1.33301 165.667 -15.334 227 -50.001s107.666 -79.5 138.999 -134.5s47 -113.5 47 -175.5c0 -80 -26.833 -154.833 -80.5 -224.5s-130 -126 -229 -169s-217.167 -64.5 -354.5 -64.5c-38.667 0 -75.834 2.5 -111.501 7.5
s-69.5 10.5 -101.5 16.5z" />
    <glyph glyph-name="four" unicode="4" horiz-adv-x="1350" 
d="M164 292l-56 107l78 163.5l71.5 159l67.5 156l66 155l67.5 155.5l71 158.5l76.5 163.5h75l152 -89l-71 -139.5l-63 -133.5l-59 -131l-59.5 -130.5l-63.5 -133.5l-71 -140l-84 -144h900v-177h-1098zM806 0v483l22 480h208v-963h-230z" />
    <glyph glyph-name="five" unicode="5" horiz-adv-x="1192" 
d="M302 -22c-16 0 -36.001 0.833008 -60.001 2.5s-44.667 4.83398 -62 9.50098v156c10 0 20.667 -0.333008 32 -1s22 -1 32 -1c110 0 208 16.167 294 48.5s153.5 76 202.5 131s73.5 116.5 73.5 184.5c0 93.333 -24.5 160.333 -73.5 201s-128.5 61 -238.5 61
c-38.667 0 -80.667 -4.5 -126 -13.5s-92.666 -21.167 -141.999 -36.5l-48 30l56 736h766l-22 -198h-568l-38 -376c42 9.33301 82 16.666 120 21.999s74 8 108 8c144 0 253.333 -36.5 328 -109.5s112 -176.5 112 -310.5c0 -65.333 -16.167 -130.166 -48.5 -194.499
s-80.166 -122.833 -143.499 -175.5s-141.333 -94.834 -234 -126.501s-199.334 -47.5 -320.001 -47.5z" />
    <glyph glyph-name="six" unicode="6" horiz-adv-x="1347" 
d="M150 560c0 107.333 16.332 207.829 48.999 301.496s76.834 179.334 132.501 257.001s118.834 145.834 189.501 204.501s144.5 106.667 221.5 144s152.167 63 225.5 77l61 -146c-92 -24.667 -176 -62.5 -252 -113.5s-141.667 -110.667 -197 -179
s-98.5 -141.166 -129.5 -218.499s-47.5 -154.666 -49.5 -231.999c-2.66699 -90 3.83301 -173.833 19.5 -251.5s44.834 -140.167 87.501 -187.5s103 -71 181 -71c60.667 0 111 16 151 48s69.833 73.833 89.5 125.5s29.5 106.834 29.5 165.501
c0 79.333 -10.167 141.333 -30.5 186s-46.833 76 -79.5 94s-67.334 27 -104.001 27c-38.667 0 -72.667 -5 -102 -15s-51.333 -19.667 -66 -29l-59 137c12 12 31 24.5 57 37.5s57.5 24.167 94.5 33.5s78.5 14 124.5 14c85.333 0 157.666 -20 216.999 -60
s104.5 -93.167 135.5 -159.5s46.5 -138.833 46.5 -217.5c0 -70.667 -10.833 -138.834 -32.5 -204.501s-54.5 -124.334 -98.5 -176.001s-99.333 -92.5 -166 -122.5s-145 -45 -235 -45c-106.667 0 -198.167 26.333 -274.5 79s-134.833 122.834 -175.5 210.501
s-61 183.167 -61 286.5z" />
    <glyph glyph-name="seven" unicode="7" horiz-adv-x="1220" 
d="M337 0l99.5 216.5l94.5 217.5l90 218l86 217l83 214.5l80 210.5l-731 2l1 191h935l51 -68l-526 -1419h-263z" />
    <glyph glyph-name="eight" unicode="8" horiz-adv-x="1288" 
d="M654 -16c-64.667 0 -127.831 7.00391 -189.498 21.0039s-117.334 36 -167.001 66s-89 69.5 -118 118.5s-43.5 108.5 -43.5 178.5c0 48 11.667 97.5 35 148.5s61 99.833 113 146.5s120.667 87.667 206 123l126 -96c-50 -17.333 -94.5 -41.166 -133.5 -71.499
s-69.833 -65.5 -92.5 -105.5s-34 -83 -34 -129c0 -50 10.833 -92.833 32.5 -128.5s55 -63.167 100 -82.5s102.167 -29 171.5 -29c44 0 86 8 126 24s72.667 39.667 98 71s38 70.333 38 117s-13.167 87.167 -39.5 121.5s-61.166 65.5 -104.499 93.5s-91 55 -143 81
s-104 53.5 -156 82.5s-99.667 62.167 -143 99.5s-78.166 81 -104.499 131s-39.5 109 -39.5 177c0 79.333 20.667 146.166 62 200.499s96.833 95.5 166.5 123.5s147.5 42 233.5 42c87.333 0 163.833 -14.333 229.5 -43s116.834 -68.667 153.501 -120s55 -111 55 -179
c0 -49.333 -10.833 -100.833 -32.5 -154.5s-55.834 -103.834 -102.501 -150.501s-107 -84.334 -181 -113.001l-118 98c76 24 131.5 64 166.5 120s53.5 114 55.5 174c3.33301 62 -16 112.167 -58 150.5s-100.667 57.5 -176 57.5c-66.667 0 -123.334 -17 -170.001 -51
s-70 -81 -70 -141c0 -48 13.333 -90.833 40 -128.5s62.167 -72 106.5 -103s92.833 -60.833 145.5 -89.5l158.5 -87.5c53 -29.667 101.667 -61.834 146 -96.501s80.166 -73.834 107.499 -117.501s41.333 -93.5 42 -149.5c0.666992 -90.667 -21.833 -165.5 -67.5 -224.5
s-106.334 -103 -182.001 -132s-158.5 -43.5 -248.5 -43.5z" />
    <glyph glyph-name="nine" unicode="9" horiz-adv-x="1371" 
d="M165 970c0 105.333 20.666 198.335 61.999 279.002s101.666 143.834 180.999 189.501s175.333 68.5 288 68.5c110.667 0 203.334 -26.333 278.001 -79s131 -122.834 169 -210.501s57 -183.5 57 -287.5c0 -113.333 -17 -219.666 -51 -318.999
s-79.833 -190.333 -137.5 -273s-123 -155.334 -196 -218.001s-148.667 -114 -227 -154s-154.833 -67.333 -229.5 -82l-73 140c100 25.333 190.667 67.5 272 126.5s151.166 127.5 209.499 205.5s103.5 158.667 135.5 242s49 162 51 236
c2.66699 96.667 -4.66602 183.167 -21.999 259.5s-47.333 136.833 -90 181.5s-102 67 -178 67c-54 0 -101 -14.333 -141 -43s-71 -65.834 -93 -111.501s-33 -93.834 -33 -144.501c0 -118 22 -206.5 66 -265.5s99.333 -88.5 166 -88.5c46 0 80.333 4.16699 103 12.5
s43.334 16.833 62.001 25.5l51 -131c-16 -18 -46.833 -36.667 -92.5 -56s-106.834 -29 -183.501 -29c-86 0 -159.167 21.667 -219.5 65s-106.166 99.833 -137.499 169.5s-47 144.5 -47 224.5z" />
    <glyph glyph-name="colon" unicode=":" horiz-adv-x="595" 
d="M290 -22c-40 0 -74.6699 14.832 -104.003 44.499s-44.666 66.5 -45.999 110.5c-0.666992 32.667 6.83301 62.334 22.5 89.001s36.167 48 61.5 64s52 24 80 24c48.667 0 85.667 -15.333 111 -46s38.333 -66.667 39 -108c1.33301 -33.333 -5.66699 -63.5 -21 -90.5
s-35.666 -48.333 -60.999 -64s-52.666 -23.5 -81.999 -23.5zM289.997 749.999c-40 0 -74.6699 14.832 -104.003 44.499s-44.666 66.5 -45.999 110.5c-0.666992 32.667 6.83301 62.334 22.5 89.001s36.167 48 61.5 64s52 24 80 24c48.667 0 85.667 -15.333 111 -46
s38.333 -66.667 39 -108c1.33301 -33.333 -5.66699 -63.5 -21 -90.5s-35.666 -48.333 -60.999 -64s-52.666 -23.5 -81.999 -23.5z" />
    <glyph glyph-name="semicolon" unicode=";" horiz-adv-x="595" 
d="M147 -398v23.998c34.667 18.667 64 51.334 88 98.001s36 97.334 36 152.001c0 28 -5.83301 57 -17.5 87s-26.5 55.667 -44.5 77s-37 33 -57 35v65l150 129c44.667 -16.667 80.5 -42.834 107.5 -78.501s46.667 -74.667 59 -117s18.5 -82.5 18.5 -120.5
c0 -71.333 -12 -137.333 -36 -198s-55.833 -112.167 -95.5 -154.5s-83.167 -72.166 -130.5 -89.499zM290 749.998c-40 0 -74.6699 14.832 -104.003 44.499s-44.666 66.5 -45.999 110.5c-0.666992 32.667 6.83301 62.334 22.5 89.001s36.167 48 61.5 64s52 24 80 24
c48.667 0 85.667 -15.333 111 -46s38.333 -66.667 39 -108c1.33301 -33.333 -5.66699 -63.5 -21 -90.5s-35.666 -48.333 -60.999 -64s-52.666 -23.5 -81.999 -23.5z" />
    <glyph glyph-name="less" unicode="&#x3c;" horiz-adv-x="1338" 
d="M169 680v150l941 442v-212l-716 -317v24l716 -308v-217z" />
    <glyph glyph-name="equal" unicode="=" horiz-adv-x="1370" 
d="M238 922v172h894v-172h-894zM238 418v171h894v-171h-894z" />
    <glyph glyph-name="greater" unicode="&#x3e;" horiz-adv-x="1337" 
d="M1167 680v150l-941 442v-212l716 -317v24l-716 -308v-217z" />
    <glyph glyph-name="question" unicode="?" horiz-adv-x="1040" 
d="M351 484c-21.333 27.333 -40.501 64.3281 -57.501 110.995s-26.5 99.334 -28.5 158.001c-1.33301 45.333 10.834 85.333 36.501 120s58.334 66.334 98.001 95.001l120.5 83.5c40.667 27 75.834 55.333 105.501 85s47.167 63.5 52.5 101.5
c26.667 117.333 5 207.833 -65 271.5s-174.667 95.5 -314 95.5c-50 0 -89.333 -2.33301 -118 -7s-49.334 -8.66699 -62.001 -12v168c8.66699 6 23.834 12.333 45.501 19s47.834 12.334 78.501 17.001s63 7 97 7c116 0 213.333 -15.333 292 -46s140.5 -72.167 185.5 -124.5
s74.833 -111.166 89.5 -176.499s16 -132.333 4 -201c-6.66699 -50 -21.334 -93.667 -44.001 -131s-49.667 -69.833 -81 -97.5s-63.833 -53 -97.5 -76l-95.5 -67c-30 -21.667 -54.833 -44.667 -74.5 -69s-30.834 -52.166 -33.501 -83.499
c-4.66699 -43.333 -2.33398 -82.333 6.99902 -117l34 -124h-175zM464.999 -22.0049c-36.667 0 -69.499 14.332 -98.499 42.999s-44.167 64.667 -45.5 108c-0.666992 30 6.66602 57.667 21.999 83s35.333 45.833 60 61.5s50.667 23.5 78 23.5
c46.667 0 82.5 -14.667 107.5 -44s37.833 -63.666 38.5 -102.999c1.33301 -32 -5.66699 -61 -21 -87s-35.5 -46.667 -60.5 -62s-51.833 -23 -80.5 -23z" />
    <glyph glyph-name="at" unicode="@" horiz-adv-x="2088" 
d="M984 -464c-117.333 0 -227.165 17.8301 -329.498 53.4971s-192 89.834 -269 162.501s-137.167 164.167 -180.5 274.5s-65 240.166 -65 389.499c0 164.667 26 313.834 78 447.501s124.5 248.5 217.5 344.5s201.5 169.667 325.5 221s257.667 77 401 77
c146.667 0 276 -26.833 388 -80.5s199.667 -132.5 263 -236.5s95 -231 95 -381c0 -129.333 -15.833 -244.333 -47.5 -345s-74.334 -185.667 -128.001 -255s-113.834 -122 -180.501 -158s-134.667 -54 -204 -54c-50 0 -87.167 15.667 -111.5 47s-38.5 76.333 -42.5 135
c-2.66699 31.333 -1.5 73.5 3.5 126.5s20.5 124.833 46.5 215.5h13.5h23h13.5c-20.667 -60.667 -46 -121.834 -76 -183.501s-64.333 -118.167 -103 -169.5s-81.334 -92.666 -128.001 -123.999s-97 -47 -151 -47c-44 0 -87.833 15.5 -131.5 46.5s-79.5 78.167 -107.5 141.5
s-41 144 -39 242c1.33301 67.333 13.166 136.833 35.499 208.5s55.666 138.167 99.999 199.5s100.833 111 169.5 149s150.334 57 245.001 57c42 0 83.5 -4 124.5 -12s75.5 -22 103.5 -42l170 32l-30 -126l-34.5 -154.5c-11.667 -54.333 -22.667 -108.5 -33 -162.5
s-19.166 -104.333 -26.499 -151c-12.667 -88 -18.167 -154.333 -16.5 -199s13.834 -67 36.501 -67c36 0 73.167 15.667 111.5 47s73.833 74.833 106.5 130.5s59.167 121 79.5 196s30.5 155.833 30.5 242.5c0 118 -15.667 215 -47 291s-74.666 135.333 -129.999 178
s-119.333 72.5 -192 89.5s-150.334 25.5 -233.001 25.5c-110 0 -213.833 -22 -311.5 -66s-183.834 -106.833 -258.501 -188.5s-133.334 -179.167 -176.001 -292.5s-64 -239 -64 -377c0 -138.667 19 -256 57 -352s89.5 -173.167 154.5 -231.5s138.5 -100.666 220.5 -126.999
s166.667 -39.5 254 -39.5c68 0 128.333 4.83301 181 14.5s97.834 21.334 135.501 35.001s68.167 26.5 91.5 38.5l38 -132c-42.667 -26.667 -106.167 -50.667 -190.5 -72s-176.166 -32 -275.499 -32zM884.001 175.997c27.333 0 56.667 14.832 88 44.499s62.5 68.667 93.5 117
s60 101 87 158s49.833 113.833 68.5 170.5s31 107.334 37 152.001c-16 25.333 -40.833 43 -74.5 53s-65.5 15 -95.5 15c-52.667 0 -99.5 -12.5 -140.5 -37.5s-75.667 -58.333 -104 -100s-50.333 -87.5 -66 -137.5s-24.167 -99.667 -25.5 -149
c-2.66699 -84.667 6.5 -153.5 27.5 -206.5s55.833 -79.5 104.5 -79.5z" />
    <glyph glyph-name="A" unicode="A" horiz-adv-x="1376" 
d="M262 0h-248l564 1502h229l556 -1502h-255l-371 1117l-42 143l-44 -143zM294 365l40 173h682l42 -173h-764z" />
    <glyph glyph-name="B" unicode="B" horiz-adv-x="1322" 
d="M189 0l0.000976562 1488l110 -2c32.667 0 66 1.16699 100 3.5s70.667 4.66602 110 6.99902s83.333 3.5 132 3.5c114 0 207.667 -14.667 281 -44s127.666 -70.5 162.999 -123.5s53 -115.167 53 -186.5c0 -46.667 -7.83301 -94 -23.5 -142s-40.167 -90.167 -73.5 -126.5
s-76.333 -61.5 -129 -75.5c60.667 -3.33301 115.167 -21.833 163.5 -55.5s86.833 -76.667 115.5 -129s43 -109.166 43 -170.499c0 -90 -18 -169.667 -54 -239s-97.667 -123.666 -185 -162.999s-208.333 -59 -363 -59c-58 0 -118 1.83301 -180 5.5l-147 8.5h-116z
M421.001 850.999c18 -2.66699 37.999 -4.5 59.999 -5.5s44.667 -1.33301 68 -1l67.5 1c21.667 0.333008 41.5 0.5 59.5 0.5c68 0 124.167 22 168.5 66s66.5 111.333 66.5 202c0 75.333 -26.667 131 -80 167s-129.666 54 -228.999 54c-12 0 -30.833 -0.5 -56.5 -1.5
s-50.5 -2.5 -74.5 -4.5s-40.667 -4.66699 -50 -8v-470zM421 176.999c11.333 -6.66699 30.999 -11.667 58.999 -15s58.167 -5.5 90.5 -6.5s60.166 -1.5 83.499 -1.5c107.333 0 191.333 19.667 252 59s91 109.333 91 210c0 90 -27.167 155.5 -81.5 196.5
s-138.833 61.5 -253.5 61.5c-18.667 0 -39.167 0.166992 -61.5 0.5s-44.666 0.333008 -66.999 0s-43.166 -0.833008 -62.499 -1.5s-36 -2 -50 -4v-499z" />
    <glyph glyph-name="C" unicode="C" horiz-adv-x="1280" 
d="M93 737c0 123.333 18.5 232.335 55.5 327.002s87.833 174.667 152.5 240s138.834 114.666 222.501 147.999s171.834 50 264.501 50c74.667 0 137.5 -3.83301 188.5 -11.5s92.833 -15.834 125.5 -24.501s59 -15.334 79 -20.001l-34 -209c-10.667 6.66699 -29 16 -55 28
s-62.333 23.167 -109 33.5s-106.667 15.5 -180 15.5c-96 0 -179.667 -22.833 -251 -68.5s-126.5 -110.667 -165.5 -195s-58.5 -184.166 -58.5 -299.499c0 -113.333 19.167 -213.833 57.5 -301.5s93.5 -156.5 165.5 -206.5s157.667 -75 257 -75
c49.333 0 98.5 4.66699 147.5 14s92.667 21 131 35s66.166 28.333 83.499 43v-198c-28.667 -11.333 -60.334 -23 -95.001 -35s-74.5 -22.167 -119.5 -30.5s-98.167 -12.5 -159.5 -12.5c-142 0 -265.667 31.5 -371 94.5s-187 151 -245 264s-87 244.5 -87 394.5z" />
    <glyph glyph-name="D" unicode="D" horiz-adv-x="1440" 
d="M176 0l0.000976562 1486h39.5h38.5h38c31.333 0 66 1.33301 104 4s78.167 5.33398 120.5 8.00098s85.5 4 129.5 4c241.333 0 420 -62.833 536 -188.5s174 -301.5 174 -527.5c0 -169.333 -29.833 -314.333 -89.5 -435s-144.5 -212.667 -254.5 -276
s-240 -93.666 -390 -90.999c-52.667 1.33301 -111.334 4.33301 -176.001 9s-122.667 7 -174 7h-32h-32h-32zM412.001 177.998c32 -6.66699 70.502 -11.501 115.502 -14.501s87.833 -4.16699 128.5 -3.5c88.667 1.33301 167.167 22.333 235.5 63
s121.833 104.334 160.5 191.001s58 199.334 58 338.001c0 143.333 -19 257.166 -57 341.499s-94.833 144.833 -170.5 181.5s-169.834 55 -282.501 55c-38.667 0 -74.334 -1.33301 -107.001 -4s-59.667 -6 -81 -10v-1138z" />
    <glyph glyph-name="E" unicode="E" horiz-adv-x="1182" 
d="M176 0v1486h864v-180h-628v-452h466v-178h-466v-492h698v-184h-934z" />
    <glyph glyph-name="F" unicode="F" horiz-adv-x="1056" 
d="M176 0v1486h862v-180h-626v-470h468v-180h-468v-656h-236z" />
    <glyph glyph-name="G" unicode="G" horiz-adv-x="1410" 
d="M96 736c0 128.667 17.9971 240.831 53.9971 336.498s85.833 175.334 149.5 239.001s137.834 111.334 222.501 143.001s175.667 47.5 273 47.5c74.667 0 134.5 -3.16699 179.5 -9.5s85 -14 120 -23s74.167 -17.5 117.5 -25.5l-10 -209
c-47.333 24 -101.5 43.833 -162.5 59.5s-146.167 23.5 -255.5 23.5c-86.667 0 -163.5 -22 -230.5 -66s-119.5 -107.333 -157.5 -190s-57 -182.667 -57 -300c0 -112 16 -213.333 48 -304s80.833 -162.5 146.5 -215.5s149.167 -79.5 250.5 -79.5
c54 0 108.167 4.33301 162.5 13s95.5 22 123.5 40v394l59 -41l-321 14v171h488v-663c-22 -1.33301 -46.667 -7.5 -74 -18.5s-60 -23.333 -98 -37s-84.167 -25.667 -138.5 -36s-119.5 -15.5 -195.5 -15.5c-147.333 0 -272.666 32.5 -375.999 97.5
s-182.166 154.167 -236.499 267.5s-81.5 242.333 -81.5 387z" />
    <glyph glyph-name="H" unicode="H" horiz-adv-x="1500" 
d="M176 0v1486h236v-646h678v646h234v-1486h-234v660h-678v-660h-236z" />
    <glyph glyph-name="I" unicode="I" horiz-adv-x="640" 
d="M201 0v1486h236v-1486h-236z" />
    <glyph glyph-name="J" unicode="J" horiz-adv-x="711" 
d="M33 -324l-69 122.999c51.333 19.333 103.666 50.666 156.999 93.999s90.333 103.333 111 180c15.333 58.667 24.5 134.334 27.5 227.001s4.5 190.667 4.5 294v892h236v-888c0 -96.667 0.333008 -188.5 1 -275.5s-5.66602 -166.167 -18.999 -237.5
c-12 -64.667 -34.167 -121.334 -66.5 -170.001s-70.333 -89.667 -114 -123s-89 -59.666 -136 -78.999s-91.167 -31.666 -132.5 -36.999z" />
    <glyph glyph-name="K" unicode="K" horiz-adv-x="1338" 
d="M176 0v1486h232v-734l580 734h270l-602 -738l-30 -32l-270 -308l52 194v-602h-232zM950 110c-26.667 49.333 -57.5 101.833 -92.5 157.5l-108.5 168l-107.5 162c-34.333 51.667 -64.166 98.5 -89.499 140.5l80 54l84 94c12.667 -22.667 33.667 -56.5 63 -101.5l102 -155
l120 -181.5l118 -182.5c37.333 -59 69 -111.5 95 -157.5l21.5 -36l21 -36l21.5 -36h-268c-8.66699 13.333 -16.334 27.5 -23.001 42.5s-19 37.5 -37 67.5z" />
    <glyph glyph-name="L" unicode="L" horiz-adv-x="1050" 
d="M176 0v1486h234v-1300h584v-186h-818z" />
    <glyph glyph-name="M" unicode="M" horiz-adv-x="1872" 
d="M119 0l153 1486h330l262 -836l77 -318l69 318l249 836h316l178 -1486h-234l-88 901l-28 410l-102 -410l-293 -915h-141l-308 915l-108 410l-29 -410l-78 -901h-225z" />
    <glyph glyph-name="N" unicode="N" horiz-adv-x="1508" 
d="M176 0v1486h214l622 -962l198 -370h-70l-26 416v916h218v-1486h-224l-598 926l-230 418h86l24 -450v-894h-214z" />
    <glyph glyph-name="O" unicode="O" horiz-adv-x="1528" 
d="M758 -16c-138 -2.66699 -257.333 28.832 -358 94.499s-177.667 157 -231 274s-78.333 250.833 -75 401.5c3.33301 166 36.166 304.333 98.499 415s145.333 193.667 249 249s219.167 83.333 346.5 84c132 0.666992 247 -30.166 345 -92.499s173.5 -150.5 226.5 -264.5
s77.833 -247.667 74.5 -401c-3.33301 -166 -34.666 -304.833 -93.999 -416.5s-139.333 -196.167 -240 -253.5s-214.667 -87.333 -342 -90zM764 163.999c132 0 237 49.834 315 149.501s117 246.5 117 440.5c0 102.667 -15.5 197.167 -46.5 283.5
s-77.333 155.666 -139 207.999s-138.5 78.5 -230.5 78.5c-80.667 0 -155 -20.667 -223 -62s-122.5 -105 -163.5 -191s-61.5 -196.333 -61.5 -331c0 -102 16.167 -196.833 48.5 -284.5s80.5 -158.167 144.5 -211.5s143.667 -80 239 -80z" />
    <glyph glyph-name="P" unicode="P" horiz-adv-x="1244" 
d="M176 0v1486h102c61.333 0 122 2.66699 182 8s123.333 8 190 8c108 0 201 -16.833 279 -50.5s138 -86.334 180 -158.001s63 -164.834 63 -279.501c0 -162 -48.833 -288.167 -146.5 -378.5s-239.5 -135.5 -425.5 -135.5c-46.667 0 -85.167 0.333008 -115.5 1
s-54.5 1 -72.5 1v-502h-236zM412 682.002c30 -4 59.832 -6.66602 89.499 -7.99902s57.834 -2 84.501 -2c62 0 120 8.83301 174 26.5s97.5 51 130.5 100s49.5 120.833 49.5 215.5c0 114 -30.5 196.833 -91.5 248.5s-149.167 75.5 -264.5 71.5
c-28.667 -0.666992 -58 -2.33398 -88 -5.00098s-58 -7 -84 -13v-634z" />
    <glyph glyph-name="Q" unicode="Q" horiz-adv-x="1537" 
d="M1197 -293c-77.333 0 -142.668 8.83301 -196.001 26.5s-102.166 49.667 -146.499 96s-92.166 112.5 -143.499 198.5l106 38h103c23.333 -42.667 46.666 -76.5 69.999 -101.5s51.5 -42.833 84.5 -53.5s75.833 -16 128.5 -16c25.333 0 49.833 1.33301 73.5 4
s46.834 8 69.501 16v-167c-14.667 -10 -33.334 -19.333 -56.001 -28s-53.667 -13 -93 -13zM757.998 -16c-138 -2.66699 -257.333 28.832 -358 94.499s-177.667 157 -231 274s-78.333 250.833 -75 401.5c3.33301 166 36.166 304.333 98.499 415s145.333 193.667 249 249
s219.167 83.333 346.5 84c132 0.666992 247 -30.166 345 -92.499s173.5 -150.5 226.5 -264.5s77.833 -247.667 74.5 -401c-3.33301 -166 -34.666 -304.833 -93.999 -416.5s-139.333 -196.167 -240 -253.5s-214.667 -87.333 -342 -90zM763.998 163.999
c132 0 237 49.834 315 149.501s117 246.5 117 440.5c0 102.667 -15.5 197.167 -46.5 283.5s-77.333 155.666 -139 207.999s-138.5 78.5 -230.5 78.5c-80.667 0 -155 -20.667 -223 -62s-122.5 -105 -163.5 -191s-61.5 -196.333 -61.5 -331
c0 -102 16.167 -196.833 48.5 -284.5s80.5 -158.167 144.5 -211.5s143.667 -80 239 -80z" />
    <glyph glyph-name="R" unicode="R" horiz-adv-x="1334" 
d="M412 0l-235.999 0.000976562v1486h35h34h35c47.333 0 103.333 2.66699 168 8s136 8 214 8c74.667 0 143 -7.83301 205 -23.5s115.833 -40.334 161.5 -74.001s81 -77.334 106 -131.001s37.5 -118.834 37.5 -195.501c0 -89.333 -15 -164.666 -45 -225.999
s-72.833 -109.666 -128.5 -144.999s-121.834 -59 -198.501 -71c-27.333 -4 -55.5 -7.16699 -84.5 -9.5s-66.833 -4 -113.5 -5s-110 -1.5 -190 -1.5v-620zM412.001 788.001c14 -2 35.501 -3.5 64.501 -4.5s58.5 -1.5 88.5 -1.5h71c96 0 170 23.5 222 70.5
s78 118.833 78 215.5c0 57.333 -9.66699 105.5 -29 144.5s-51.5 68.333 -96.5 88s-105.833 29.5 -182.5 29.5c-38.667 0 -76.834 -1.5 -114.501 -4.5s-71.5 -7.5 -101.5 -13.5v-524zM1012 0.000976562c-8.66699 13.333 -15.998 27.001 -21.998 41.001s-16.667 37 -32 69
c-20.667 44.667 -41 95.167 -61 151.5s-41.833 111.166 -65.5 164.499s-50.834 98.5 -81.501 135.5s-66.667 58.5 -108 64.5l90 70l140 -12c39.333 -16.667 74.5 -46.667 105.5 -90s59.667 -93.5 86 -150.5s51.666 -114.833 75.999 -173.5s49.833 -112 76.5 -160l30 -55.5
l30 -54.5h-264z" />
    <glyph glyph-name="S" unicode="S" horiz-adv-x="1130" 
d="M551 -16c-64.667 0 -125.836 4.83398 -183.503 14.501s-107.167 21.167 -148.5 34.5s-71 25.666 -89 36.999l49 191c25.333 -14.667 57 -29 95 -43s79.667 -25.5 125 -34.5s91.333 -13.5 138 -13.5c91.333 0 161 15.333 209 46s72 80.667 72 150
c0 46.667 -12 85.834 -36 117.501s-59.833 61.5 -107.5 89.5s-107.167 59 -178.5 93c-60.667 30 -119.5 66 -176.5 108s-103.833 91.333 -140.5 148s-55 121.667 -55 195c0 72 14.167 132.5 42.5 181.5s66.5 88.5 114.5 118.5s101.5 51.667 160.5 65s119.5 20 181.5 20
c90.667 0 165.667 -8.83301 225 -26.5s102 -35.167 128 -52.5l-46 -185c-34 21.333 -73.833 40.5 -119.5 57.5s-108.167 25.5 -187.5 25.5c-48.667 0 -93.667 -6.33301 -135 -19s-74.666 -32 -99.999 -58s-38 -59.333 -38 -100c0 -46 9.5 -84.5 28.5 -115.5
s49.833 -60 92.5 -87s98.667 -58.5 168 -94.5c50 -26 99.333 -53.5 148 -82.5s92.834 -61.167 132.501 -96.5s71.334 -75.833 95.001 -121.5s35.5 -97.834 35.5 -156.501c0 -90.667 -21.167 -166.167 -63.5 -226.5s-101 -105.333 -176 -135s-161.5 -44.5 -259.5 -44.5z" />
    <glyph glyph-name="T" unicode="T" horiz-adv-x="1263" 
d="M514 0v1306h-458v180h1151v-180h-457v-1306h-236z" />
    <glyph glyph-name="U" unicode="U" horiz-adv-x="1439" 
d="M727 -16c-138 0 -249.169 25.334 -333.502 76.001s-145.333 123.667 -183 219s-56.5 209.666 -56.5 342.999l1 864h234l-2 -819c0 -132.667 13.5 -235 40.5 -307s66.333 -122 118 -150s114.5 -42 188.5 -42c66.667 0 123.834 14.167 171.501 42.5
s84.334 78.5 110.001 150.5s38.5 174 38.5 306v819h232v-868c0 -204 -46 -360.667 -138 -470s-232.333 -164 -421 -164z" />
    <glyph glyph-name="V" unicode="V" horiz-adv-x="1329" 
d="M573 -11l-556 1497h249l338 -967l68 -239l71 239l323 967h246l-543 -1497h-196z" />
    <glyph glyph-name="W" unicode="W" horiz-adv-x="1883" 
d="M425 -16l-406 1502h239l227 -948l67 -383h-35l69 383l268 948h179l274 -948l86 -383h-39l63 382l211 949h236l-384 -1502h-233l-269 948l-73 407l72 -2l-71 -405l-273 -948h-208z" />
    <glyph glyph-name="X" unicode="X" horiz-adv-x="1295" 
d="M40 0l487 802l13 -90l-496 774l262 2l240 -394l136 -229h-49l134 229l228 392h249l-477 -776l-27 92l514 -802h-265l-257 434l-129 212l64 2l-125 -214l-252 -434h-250z" />
    <glyph glyph-name="Y" unicode="Y" horiz-adv-x="1230" 
d="M499 0v632l35 -129l-524 983h251l320 -632l62 -152h-36l52 152l315 632h247l-519 -983l35 126v-629h-238z" />
    <glyph glyph-name="Z" unicode="Z" horiz-adv-x="1228" 
d="M104 0l-44 82l744 1150l56 70h-718v184h984l46 -78l-728 -1140l-72 -86h744v-182h-1012z" />
    <glyph glyph-name="bracketleft" unicode="[" horiz-adv-x="802" 
d="M180 58l0.00195312 1394c0 64 5.16699 113.667 15.5 149s28.833 60 55.5 74s65 21 115 21c63.333 0 115.833 -2.5 157.5 -7.5l138.5 -16.5v-124h-262v-1592l262 -2v-118c-50.667 -6 -96.834 -11.167 -138.501 -15.5s-94.167 -6.5 -157.5 -6.5
c-50.667 0 -89.334 7 -116.001 21s-45 38.667 -55 74s-15 85 -15 149z" />
    <glyph glyph-name="backslash" unicode="\" horiz-adv-x="902" 
d="M798 -354l-556 1916h-202l556 -1916h202z" />
    <glyph glyph-name="bracketright" unicode="]" horiz-adv-x="802" 
d="M622 58l-0.00195312 1394c0 64 -5.16699 113.667 -15.5 149s-28.833 60 -55.5 74s-65 21 -115 21c-63.333 0 -115.833 -2.5 -157.5 -7.5l-138.5 -16.5v-124h262v-1592l-262 -2v-118c50.667 -6 96.834 -11.167 138.501 -15.5s94.167 -6.5 157.5 -6.5
c50.667 0 89.334 7 116.001 21s45 38.667 55 74s15 85 15 149z" />
    <glyph glyph-name="asciicircum" unicode="^" horiz-adv-x="1333" 
d="M186 498l404 998h152l406 -998h-236l-252 696h14l-250 -696h-238z" />
    <glyph glyph-name="underscore" unicode="_" horiz-adv-x="1654" 
d="M-39 -405v139h1732v-139h-1732z" />
    <glyph glyph-name="grave" unicode="`" horiz-adv-x="594" 
d="M543 1353l-114 -96c-20 9.33301 -47.667 27.5 -83 54.5s-72.666 58.333 -111.999 94s-75.833 71.667 -109.5 108s-58.834 67.833 -75.501 94.5l164 138c30 -40.667 63.667 -83.667 101 -129l115 -135.5z" />
    <glyph glyph-name="a" unicode="a" horiz-adv-x="1118" 
d="M436 -16c-66.667 0 -125.834 13.1709 -177.501 39.5039s-92.334 63.666 -122.001 111.999s-44.5 105.5 -44.5 171.5c0 71.333 19.167 131.833 57.5 181.5s89.833 88.5 154.5 116.5c42.667 17.333 89 31.166 139 41.499s100 17.666 150 21.999s96.333 6.5 139 6.5l48 -61
l-48 -81c-26 0 -57.167 -1.83301 -93.5 -5.5s-72.166 -9.33398 -107.499 -17.001s-65.333 -17.5 -90 -29.5c-34 -15.333 -62.333 -35 -85 -59s-34 -57.333 -34 -100c0 -56 15.5 -98.333 46.5 -127s77.167 -43 138.5 -43c31.333 0 63 4.66699 95 14s59.833 20 83.5 32
s39.167 22.333 46.5 31l46 -49l-33 -86c-29.333 -26.667 -71.666 -51.667 -126.999 -75s-116 -35 -182 -35zM963 0.00390625l-218 -0.00390625v166h-13v614c0 65.333 -17.167 108.5 -51.5 129.5s-83.166 31.5 -146.499 31.5c-42 0 -85.333 -4.16699 -130 -12.5
s-85.667 -18.666 -123 -30.999s-66 -24.833 -86 -37.5l-54 166c15.333 9.33301 44.833 22.333 88.5 39s94.667 31.834 153 45.501s116.166 20.5 173.499 20.5c83.333 0 155.5 -9.66699 216.5 -29s108 -55.166 141 -107.499s49.5 -128.166 49.5 -227.499v-767z" />
    <glyph glyph-name="b" unicode="b" horiz-adv-x="1233" 
d="M171 1622h230v-454l-8 -196l8 -6v-802l-230 -102v1560zM575 -18c-40.667 0 -82.502 2.83203 -125.502 8.49902s-83.833 12.834 -122.5 21.501s-71.834 17.5 -99.501 26.5s-46.5 16.833 -56.5 23.5l230 126c18 -12.667 43.5 -22.5 76.5 -29.5s73.5 -10.5 121.5 -10.5
c57.333 0 108.833 16.167 154.5 48.5s82 79.833 109 142.5s41.167 139.667 42.5 231c1.33301 132 -21.667 228.333 -69 289s-113.666 91 -198.999 91c-52 0 -98.333 -9.83301 -139 -29.5s-73 -38.5 -97 -56.5l-36 114c15.333 16 36.333 35.833 63 59.5s62 44.667 106 63
s99.667 27.5 167 27.5c78.667 0 151.334 -19.167 218.001 -57.5s120.334 -96.666 161.001 -174.999s61 -177.5 61 -297.5c0 -120.667 -23.5 -227.334 -70.5 -320.001s-113 -165.167 -198 -217.5s-184.167 -78.5 -297.5 -78.5z" />
    <glyph glyph-name="c" unicode="c" horiz-adv-x="976" 
d="M80 544c0 110 19.9971 208.999 59.9971 296.999s100 157.833 180 209.5s180 77.5 300 77.5c70 0 129.333 -6.33301 178 -19s82 -25 100 -37l-36 -182c-28 19.333 -61.667 33.833 -101 43.5s-87 14.5 -143 14.5c-50 0 -98.333 -12.167 -145 -36.5
s-85.667 -63.166 -117 -116.499s-48.666 -123.666 -51.999 -210.999c-2.66699 -92 9.5 -169.5 36.5 -232.5s64.333 -110.667 112 -143s100.834 -48.5 159.501 -48.5c55.333 0 106.5 7 153.5 21s82.5 28.333 106.5 43l44 -134c-34 -32 -82 -57.667 -144 -77
s-128 -29 -198 -29c-106 0 -195.667 24.667 -269 74s-129.166 116.166 -167.499 200.499s-57.5 179.5 -57.5 285.5z" />
    <glyph glyph-name="d" unicode="d" horiz-adv-x="1224" 
d="M844 0v148l-12 6v788l8 6l-8 220v458h230v-1626h-218zM533 -16c-78 0 -150.502 19.3291 -217.502 57.9961s-121 97.334 -162 176.001s-61.5 178.334 -61.5 299.001s23.333 226.834 70 318.501s111.834 163.334 195.501 215.001s181.834 77.5 294.501 77.5
c68.667 0 126.334 -8.16699 173.001 -24.5s76.334 -30.166 89.001 -41.499l-82 -147c-20 17.333 -46.5 29.333 -79.5 36s-72.167 10 -117.5 10c-56.667 0 -107.834 -15.667 -153.501 -47s-82.167 -78 -109.5 -140s-41.333 -138.667 -42 -230
c-2 -130.667 20.667 -226.334 68 -287.001s113.666 -91 198.999 -91c52 0 98.5 9.66699 139.5 29s72.833 38 95.5 56l38 -114c-16 -16.667 -37.333 -37 -64 -61s-62 -45.333 -106 -64s-99.667 -28 -167 -28z" />
    <glyph glyph-name="e" unicode="e" horiz-adv-x="1116" 
d="M598 -16c-160 0 -283.332 50.666 -369.999 151.999s-130 242 -130 422c0 108 19.167 204.667 57.5 290s95 153 170 203s167.167 75.667 276.5 77c56 1.33301 108.667 -6.66699 158 -24s93 -43.5 131 -78.5s68.167 -79.167 90.5 -132.5s34.5 -115.666 36.5 -186.999
c0 -42 -0.333008 -79.5 -1 -112.5s-3.66699 -62.167 -9 -87.5h-776l20 146h550c3.33301 53.333 0.166016 103.833 -9.50098 151.5s-30.334 86.334 -62.001 116.001s-78.5 44.5 -140.5 44.5c-52 0 -98.667 -14.5 -140 -43.5s-73.333 -77.833 -96 -146.5
s-32 -162.667 -28 -282c4 -84 21 -150.333 51 -199s69.333 -83.334 118 -104.001s103 -31 163 -31c25.333 0 56.333 2.83301 93 8.5s72.167 13 106.5 22s60.5 18.833 78.5 29.5l44 -132c-24.667 -20 -58.167 -37.667 -100.5 -53s-88.166 -27.333 -137.499 -36
s-97.333 -13 -144 -13z" />
    <glyph glyph-name="f" unicode="f" horiz-adv-x="800" 
d="M240 0v943h-165v129l165 42v98c0 82.667 12.333 151.667 37 207s57.167 99.333 97.5 132s84.333 56 132 70s94.167 21 139.5 21c32.667 0 63 -2.5 91 -7.5s47.333 -9.16699 58 -12.5v-178c-19.333 6 -41 10.667 -65 14s-57.333 5 -100 5
c-46 0 -83.833 -17.5 -113.5 -52.5s-44.5 -87.833 -44.5 -158.5v-138h271v-171h-271v-943h-232z" />
    <glyph glyph-name="g" unicode="g" horiz-adv-x="1203" 
d="M570 -504c-146.667 0 -262.667 27.0029 -348 81.0029s-128 136.333 -128 247c0 41.333 10 78.166 30 110.499s44.667 59.5 74 81.5s58 38.667 86 50l148 -22c-14 -12.667 -29.667 -26 -47 -40s-32.5 -32.5 -45.5 -55.5s-19.5 -53.833 -19.5 -92.5
c0 -44 8.66699 -81.5 26 -112.5s44.833 -54.667 82.5 -71s87.5 -24.5 149.5 -24.5c57.333 0 110.333 6.16699 159 18.5s87.667 31 117 56s44 56.167 44 93.5c0 39.333 -7.16699 72.666 -21.5 99.999s-41 48.166 -80 62.499s-95.833 21.5 -170.5 21.5h-110
c-38 -0 -71.667 0.833008 -101 2.5s-55.666 5.5 -78.999 11.5c-8 2 -15.667 5.5 -23 10.5s-15 8.83301 -23 11.5c-50 19.333 -83.5 46 -100.5 80s-25.5 68 -25.5 102c0 26 6.83301 52.5 20.5 79.5s33 53 58 78s54.167 47.167 87.5 66.5l143 -36
c-24 -9.33301 -45.833 -25.5 -65.5 -48.5s-29.5 -47.5 -29.5 -73.5c0 -40.667 9.83301 -68.167 29.5 -82.5s52.5 -21.5 98.5 -21.5h200c86 0 156 -9 210 -27s95.667 -42.167 125 -72.5s49.5 -64 60.5 -101s16.5 -74.833 16.5 -113.5c0 -58 -14.333 -109.833 -43 -155.5
s-68.334 -84.5 -119.001 -116.5s-109 -56.333 -175 -73s-136.333 -25 -211 -25zM563 380.003c-83.333 0 -158.332 15.5 -224.999 46.5s-119.334 74 -158.001 129s-58 118.5 -58 190.5c0 86.667 19.333 158 58 214s91.667 97.667 159 125s143.333 41.666 228 42.999
c82.667 2 158.334 -10 227.001 -36s123.5 -66.5 164.5 -121.5s61.5 -125.833 61.5 -212.5c0 -81.333 -19.667 -150.166 -59 -206.499s-93.333 -99 -162 -128s-147.334 -43.5 -236.001 -43.5zM569.001 530.003c68.667 0 123.331 15.502 163.998 46.502s61 89.167 61 174.5
c0 73.333 -17.667 129.166 -53 167.499s-89 57.5 -161 57.5c-41.333 0 -79.666 -6 -114.999 -18s-63.666 -34 -84.999 -66s-32 -77.667 -32 -137c0 -60.667 17.5 -113.334 52.5 -158.001s91.167 -67 168.5 -67zM896.998 940.005l-63.001 93
c14.667 18.667 43.834 38 87.501 58s91.5 30 143.5 30h112v-181h-280z" />
    <glyph glyph-name="h" unicode="h" horiz-adv-x="1268" 
d="M171 0l-0.00292969 1626h230v-458l-12 -201l-11 26c26.667 21.333 60.667 42.333 102 63s86 37.834 134 51.501s95.667 21.167 143 22.5c121.333 3.33301 209.5 -30 264.5 -100s82.5 -186.333 82.5 -349v-681h-230v683c0 91.333 -14.167 157.333 -42.5 198
s-83.166 59 -164.499 55c-35.333 -0.666992 -77.666 -9 -126.999 -25s-95.666 -40.333 -138.999 -73v-838h-230z" />
    <glyph glyph-name="i" unicode="i" horiz-adv-x="590" 
d="M180 0v1112h230v-1112h-230zM282 1309c-38.667 0 -72.498 12.333 -101.498 37s-43.5 58.334 -43.5 101.001c0 29.333 8.16699 55.833 24.5 79.5s37.166 42.667 62.499 57s51.666 21.5 78.999 21.5c47.333 0 83 -13.333 107 -40s36 -59.334 36 -98.001
c0 -46 -16.5 -83.833 -49.5 -113.5s-71.167 -44.5 -114.5 -44.5z" />
    <glyph glyph-name="j" unicode="j" horiz-adv-x="572" 
d="M-82 -480l-0.000976562 165.002c10.667 -4.66699 28.334 -9.16699 53.001 -13.5s45.334 -6.5 62.001 -6.5c58.667 0 98.667 24.5 120 73.5s32 123.5 32 223.5v1150h231v-1068c0 -130 -13.833 -234.5 -41.5 -313.5s-68 -136.5 -121 -172.5s-117.5 -54 -193.5 -54
c-10 0 -25.333 0.666992 -46 2s-40.334 3.16602 -59.001 5.49902s-31 5.16602 -37 8.49902zM291.999 1309c-38.667 0 -72.498 12.333 -101.498 37s-43.5 58.334 -43.5 101.001c0 29.333 8.16699 55.833 24.5 79.5s37.166 42.667 62.499 57s51.666 21.5 78.999 21.5
c47.333 0 83 -13.333 107 -40s36 -59.334 36 -98.001c0 -46 -16.5 -83.833 -49.5 -113.5s-71.167 -44.5 -114.5 -44.5z" />
    <glyph glyph-name="k" unicode="k" horiz-adv-x="1155" 
d="M1099 1114l-728 -760l20 54l4 -192v-216h-224v662v960h224v-848l-8 -244l-54 38l496 546h270zM511 548l156 150l480 -698h-262z" />
    <glyph glyph-name="l" unicode="l" horiz-adv-x="592" 
d="M180 0v1626h232v-1626h-232z" />
    <glyph glyph-name="m" unicode="m" horiz-adv-x="1938" 
d="M172 0v1112h207l1 -118c27.333 18.667 61.5 38.334 102.5 59.001s85.5 38.334 133.5 53.001s96 22.667 144 24c80 2.66699 144.333 -9.66602 193 -36.999s84.167 -73 106.5 -137s33.5 -150.333 33.5 -259v-697h-230v683c0 60.667 -5.16699 110.167 -15.5 148.5
s-29.5 66.166 -57.5 83.499s-69.333 24.666 -124 21.999c-34.667 -0.666992 -76.5 -9.16699 -125.5 -25.5s-95.167 -40.833 -138.5 -73.5v-838h-230zM1081 836.999l-49 146.003c26 22 60.5 44 103.5 66s90.333 40.833 142 56.5s103.834 23.834 156.501 24.501
c79.333 1.33301 144 -11.334 194 -38.001s86.833 -71.834 110.5 -135.501s35.5 -149.834 35.5 -258.501v-698h-231v683c0 60.667 -4.83301 110.167 -14.5 148.5s-28.334 66.166 -56.001 83.499s-69.167 24.666 -124.5 21.999c-38.667 -0.666992 -82.667 -10.167 -132 -28.5
s-94.333 -42.166 -135 -71.499z" />
    <glyph glyph-name="n" unicode="n" horiz-adv-x="1262" 
d="M172 0v1112h207l1 -118c27.333 18.667 61.833 38.334 103.5 59.001s86.667 38.334 135 53.001s96.5 22.667 144.5 24c119.333 3.33301 205 -27.5 257 -92.5s78 -179.167 78 -342.5v-695h-232v683c0 93.333 -12.5 160.333 -37.5 201s-79.167 58.667 -162.5 54
c-23.333 -0.666992 -50.166 -4.83398 -80.499 -12.501s-61.333 -18.667 -93 -33s-61.834 -32.5 -90.501 -54.5v-838h-230z" />
    <glyph glyph-name="o" unicode="o" horiz-adv-x="1198" 
d="M589 -16c-90.667 0 -167.667 16 -231 48s-114.666 75.667 -153.999 131s-67.833 118.833 -85.5 190.5s-26.167 147.167 -25.5 226.5c2 119.333 25.667 219.666 71 300.999s106.666 142.833 183.999 184.5s164.333 62.5 261 62.5c121.333 0 218.5 -27.5 291.5 -82.5
s125.667 -127.667 158 -218s47.833 -188.166 46.5 -293.499c-2 -119.333 -25.5 -219.833 -70.5 -301.5s-106 -143.5 -183 -185.5s-164.5 -63 -262.5 -63zM595 147c91.333 -1.33301 160.169 33.166 206.502 103.499s69.5 167.833 69.5 292.5
c0 77.333 -9.33301 147.5 -28 210.5s-47.834 113.5 -87.501 151.5s-90.5 57.333 -152.5 58c-90.667 2 -159 -30.667 -205 -98s-69 -163.333 -69 -288c0 -77.333 9.33301 -148.333 28 -213s47.667 -116.667 87 -156s89.666 -59.666 150.999 -60.999z" />
    <glyph glyph-name="p" unicode="p" horiz-adv-x="1224" 
d="M162 -494v1608h210v-136l20 -24v-862l-2 -46l2 -182v-358h-230zM573 -16c-68.667 0 -125.996 8.66895 -171.996 26.002s-75.667 31.333 -89 42l80 148c21.333 -18 48.166 -30.833 80.499 -38.5s71.166 -11.5 116.499 -11.5c57.333 0 109 16.167 155 48.5
s82.5 79.666 109.5 141.999s41.167 138.5 42.5 228.5c1.33301 133.333 -21.834 230.166 -69.501 290.499s-114.167 90.5 -199.5 90.5c-52 0 -98.167 -9.83301 -138.5 -29.5s-72.5 -38.834 -96.5 -57.501l-36 114c15.333 16 36.333 36 63 60s62 45.167 106 63.5
s99.333 27.5 166 27.5c78.667 0 151.5 -19.167 218.5 -57.5s120.833 -96.666 161.5 -174.999s61 -177.5 61 -297.5c0 -120.667 -23.167 -227.167 -69.5 -319.5s-111.333 -164.5 -195 -216.5s-181.834 -78 -294.501 -78z" />
    <glyph glyph-name="q" unicode="q" horiz-adv-x="1224" 
d="M834 -136l4 242l-4 90v758l22 24l6 98l202 38v-1608h-230v358zM533 -16c-78 0 -150.502 19.3291 -217.502 57.9961s-121 97.334 -162 176.001s-61.5 178.334 -61.5 299.001s23.333 226.834 70 318.501s111.834 163.334 195.501 215.001s181.834 77.5 294.501 77.5
c68.667 0 130 -8.16699 184 -24.5s87 -30.166 99 -41.499l-101 -147c-20.667 17.333 -47.667 29.333 -81 36s-72.666 10 -117.999 10c-56.667 0 -107.834 -15.667 -153.501 -47s-82.167 -78 -109.5 -140s-41.333 -138.667 -42 -230c-2 -130.667 20.667 -226.334 68 -287.001
s113.666 -91 198.999 -91c52 0 98.833 9.66699 140.5 29s73.834 38 96.501 56l36 -114c-15.333 -16.667 -36.5 -37 -63.5 -61s-62.5 -45.333 -106.5 -64s-99.667 -28 -167 -28z" />
    <glyph glyph-name="r" unicode="r" horiz-adv-x="806" 
d="M370 818l-14 152.001c10 20.667 31 43.5 63 68.5s69.833 46.5 113.5 64.5s88.167 27 133.5 27c25.333 0 47.166 -1 65.499 -3s31.833 -5.66699 40.5 -11v-216c-10 5.33301 -25.167 11 -45.5 17s-53.166 9 -98.499 9c-41.333 0 -78.5 -5.83301 -111.5 -17.5
s-61.833 -25.834 -86.5 -42.501s-44.667 -32.667 -60 -48zM152 0.000976562v1112h196l16 -142l18 -84v-886h-230z" />
    <glyph glyph-name="s" unicode="s" horiz-adv-x="960" 
d="M104 66l32.002 169.997c10 -7.33301 30.833 -17.166 62.5 -29.499s69.667 -23.666 114 -33.999s90.166 -15.833 137.499 -16.5c64 -0.666992 112.667 10.333 146 33s50 54.334 50 95.001c0 28.667 -10 53.667 -30 75s-47.5 41.166 -82.5 59.499s-74.833 37.5 -119.5 57.5
c-60 27.333 -113 57 -159 89s-81.833 69.667 -107.5 113s-38.167 95.333 -37.5 156c1.33301 66 20.5 120.833 57.5 164.5s86.167 76.167 147.5 97.5s129.666 32 204.999 32c70 0 131.333 -7.16699 184 -21.5s87.334 -26.5 104.001 -36.5l-34 -174
c-12 10 -30.5 19.833 -55.5 29.5s-53.833 17.5 -86.5 23.5s-66 9 -100 9c-68 0 -119.333 -9.83301 -154 -29.5s-52.667 -47.167 -54 -82.5c-0.666992 -48.667 16.166 -85 50.499 -109s75.5 -47.667 123.5 -71c68.667 -33.333 130.667 -66.166 186 -98.499
s99.166 -69.333 131.499 -111s48.5 -93.167 48.5 -154.5c0 -104 -35.667 -183 -107 -237s-169 -81 -293 -81c-51.333 0 -101.166 4 -149.499 12s-91 18.333 -128 31s-64.5 25.667 -82.5 39z" />
    <glyph glyph-name="t" unicode="t" horiz-adv-x="846" 
d="M482 -16c-52.667 0 -99 8.33105 -139 24.998s-71.167 46.167 -93.5 88.5s-33.5 102.5 -33.5 180.5v666h-144v124c49.333 14 87 25.833 113 35.5s45 30.5 57 62.5c5.33301 14.667 11.333 32.167 18 52.5l22 68l26 81.5h138v-254h312v-170h-312v-544
c0 -72 3.16699 -124.5 9.5 -157.5s18.333 -54 36 -63s43.834 -13.5 78.501 -13.5c18.667 0 40.167 2.16699 64.5 6.5s47.666 9.83301 69.999 16.5s39.5 13.667 51.5 21l38 -132c-20 -15.333 -46.833 -30.166 -80.5 -44.499s-70.667 -26.166 -111 -35.499
s-80.5 -14 -120.5 -14z" />
    <glyph glyph-name="u" unicode="u" horiz-adv-x="1216" 
d="M484 -16c-72.667 0 -131.334 11.332 -176.001 33.999s-78.667 55.167 -102 97.5s-39.166 92.833 -47.499 151.5s-12.5 123.667 -12.5 195v652h230v-650c0 -88 6.83301 -152.667 20.5 -194s35 -68 64 -80s66.833 -18 113.5 -18c27.333 0 56.5 4.16699 87.5 12.5
s60.167 18.333 87.5 30s49 22.834 65 33.501v866h230v-1130h-106c-30.667 0 -55 4.5 -73 13.5s-27 31.833 -27 68.5v78l4 -44c-30 -20 -65.167 -38.833 -105.5 -56.5s-82.5 -32 -126.5 -43s-86 -16.5 -126 -16.5z" />
    <glyph glyph-name="v" unicode="v" horiz-adv-x="1100" 
d="M456 -16l-438 1130h249l211 -619l112 -374h-60l103 374l204 619h245l-427 -1130h-199z" />
    <glyph glyph-name="w" unicode="w" horiz-adv-x="1616" 
d="M360 -16l-340 1130h231l173 -645l81 -360h-62l76 358l181 647h226l181 -645l77 -356h-58l79 349l166 652h225l-341 -1130h-211l-196 704l-61 300h48l-65 -300l-192 -704h-218z" />
    <glyph glyph-name="x" unicode="x" horiz-adv-x="1088" 
d="M22 0l416 596l2 -66l-420 584h262l234 -356l68 -114h-76l58 116l234 354h260l-422 -582v74l430 -606h-266l-236 360l-82 132h86l-66 -134l-218 -358h-264z" />
    <glyph glyph-name="y" unicode="y" horiz-adv-x="1102" 
d="M138 -480l-0.00195312 188c11.333 -4 27.833 -7.33301 49.5 -10s37.834 -4 48.501 -4c28 0 61.333 7.83301 100 23.5s75.834 47.334 111.501 95.001s63.167 119.5 82.5 215.5l14 -28h-96l-398 1114h248l232 -722l94 -312h-60l82 312l198 722h248l-370 -1148
c-44 -134 -96.333 -236.5 -157 -307.5s-127 -116.5 -199 -136.5c-14 -4.66699 -32.333 -8.83398 -55 -12.501s-41.667 -5.5 -57 -5.5c-10 0 -23.333 0.833008 -40 2.5s-32.5 3.66699 -47.5 6s-24.5 4.83301 -28.5 7.5z" />
    <glyph glyph-name="z" unicode="z" horiz-adv-x="1026" 
d="M102 0l-42 80l530 780l58 82h-528v172h804l34 -94l-526 -772l-58 -82h564v-166h-836z" />
    <glyph glyph-name="braceleft" unicode="{" horiz-adv-x="962" 
d="M328 58v495.998c0 19.333 -13.833 38.5 -41.5 57.5s-60.834 35.333 -99.501 49s-74.334 22.167 -107.001 25.5v146c32.667 3.33301 68.334 11 107.001 23s71.834 26.833 99.501 44.5s41.5 36.5 41.5 56.5v496c0 96 14 162 42 198s79.333 54 154 54
c54 0 103.333 -2.66699 148 -8l130 -16v-128h-260v-596c0 -18.667 -3.66699 -35.667 -11 -51s-17.666 -29.666 -30.999 -42.999c-16 -16 -36.333 -30.667 -61 -44s-51.167 -25.833 -79.5 -37.5l-83.5 -34.5v24c27.333 -10 55.166 -21.333 83.499 -34s55 -26.667 80 -42
s45.833 -32 62.5 -50c12 -12.667 21.667 -26.167 29 -40.5s11 -30.166 11 -47.499v-600h260v-116c-42 -10.667 -85.333 -19 -130 -25s-94 -9 -148 -9c-74.667 0 -126 18 -154 54s-42 102 -42 198z" />
    <glyph glyph-name="bar" unicode="|" horiz-adv-x="836" 
d="M314 -184v1922h207v-1922h-207z" />
    <glyph glyph-name="braceright" unicode="}" horiz-adv-x="962" 
d="M634 58v495.998c0 19.333 13.833 38.5 41.5 57.5s60.834 35.333 99.501 49s74.334 22.167 107.001 25.5v146c-32.667 3.33301 -68.334 11 -107.001 23s-71.834 26.833 -99.501 44.5s-41.5 36.5 -41.5 56.5v496c0 96 -14 162 -42 198s-79.333 54 -154 54
c-54 0 -103.333 -2.66699 -148 -8l-130 -16v-128h260v-596c0 -18.667 3.66699 -35.667 11 -51s17.666 -29.666 30.999 -42.999c16 -16 36.333 -30.667 61 -44s51.167 -25.833 79.5 -37.5l83.5 -34.5v24c-27.333 -10 -55.166 -21.333 -83.499 -34s-55 -26.667 -80 -42
s-45.833 -32 -62.5 -50c-12 -12.667 -21.667 -26.167 -29 -40.5s-11 -30.166 -11 -47.499v-600h-260v-116c42 -10.667 85.333 -19 130 -25s94 -9 148 -9c74.667 0 126 18 154 54s42 102 42 198z" />
    <glyph glyph-name="asciitilde" unicode="~" horiz-adv-x="1406" 
d="M325 660l-116 91.999c10.667 27.333 30.167 57.333 58.5 90s64.166 60.834 107.499 84.501s91.666 35.5 144.999 35.5c48 0 88.167 -8.16699 120.5 -24.5s61.333 -35.166 87 -56.499s51.5 -40.166 77.5 -56.499s56 -24.5 90 -24.5c46 0 84.667 10.667 116 32
s58.666 46.666 81.999 75.999l102 -103c-12 -32.667 -32 -64.334 -60 -95.001s-63.167 -55.667 -105.5 -75s-91.166 -29 -146.499 -29c-48 0 -87.667 8.16699 -119 24.5s-59.166 35.333 -83.499 57s-49.333 40.667 -75 57s-56.167 24.5 -91.5 24.5
c-46 0 -83.167 -10.833 -111.5 -32.5s-54.166 -47.167 -77.499 -76.5z" />
    <glyph glyph-name="uni00A0" unicode="&#xa0;" horiz-adv-x="360" 
 />
    <glyph glyph-name="exclamdown" unicode="&#xa1;" horiz-adv-x="595" 
d="M389 809l31 -1235h-259l26 1235h202zM304 1334c40.667 0 75.333 -14.832 104 -44.499s43.667 -66.5 45 -110.5c0.666992 -32.667 -6.66602 -62.334 -21.999 -89.001s-35.833 -48 -61.5 -64s-52.5 -24 -80.5 -24c-48.667 0 -85.667 15.333 -111 46s-38.333 66.667 -39 108
c-0.666992 33.333 6.66602 63.5 21.999 90.5s35.5 48.333 60.5 64s52.5 23.5 82.5 23.5z" />
    <glyph glyph-name="cent" unicode="&#xa2;" horiz-adv-x="1156" 
d="M596 1042l8 302h150l-6 -302h-152zM564 -210l6 300h150l-6 -300h-150zM136 544c0 110 19.9971 208.999 59.9971 296.999s100 157.833 180 209.5s180 77.5 300 77.5c70 0 129.333 -6.33301 178 -19s82 -25 100 -37l-36 -182c-28 19.333 -61.667 33.833 -101 43.5
s-87 14.5 -143 14.5c-50 0 -98.333 -12.167 -145 -36.5s-85.667 -63.166 -117 -116.499s-48.666 -123.666 -51.999 -210.999c-2.66699 -92 9.5 -169.5 36.5 -232.5s64.333 -110.667 112 -143s100.834 -48.5 159.501 -48.5c55.333 0 106.5 7 153.5 21s82.5 28.333 106.5 43
l44 -134c-34 -32 -82 -57.667 -144 -77s-128 -29 -198 -29c-106 0 -195.667 24.667 -269 74s-129.166 116.166 -167.499 200.499s-57.5 179.5 -57.5 285.5z" />
    <glyph glyph-name="sterling" unicode="&#xa3;" horiz-adv-x="1504" 
d="M137 84c0 31.333 9.66699 59.667 29 85s48 46 86 62s85 25.333 141 28c8.66699 17.333 15 37.833 19 61.5s6.66699 48.5 8 74.5s2 50.667 2 74v547c0 97.333 18.333 182.333 55 255s90 129.334 160 170.001s155 61 255 61c81.333 0 148.5 -9.66699 201.5 -29
s94.833 -41.666 125.5 -66.999l-106 -168c-26 22.667 -57.167 43 -93.5 61s-83.166 27 -140.499 27c-36 0 -71.333 -8 -106 -24s-63.334 -48.5 -86.001 -97.5s-33.667 -122.833 -33 -221.5l2 -308c0.666992 -122.667 -4 -221 -14 -295s-32.667 -129.333 -68 -166
c40 -6.66699 75.167 -15.667 105.5 -27s63.5 -21.333 99.5 -30s81.667 -13 137 -13c92 0 154.667 18.333 188 55s50 79.667 50 129c0 36.667 -8 68.667 -24 96s-31.667 44 -47 50l161 83c16 -8.66699 33.833 -23.834 53.5 -45.501s36.667 -49.167 51 -82.5
s21.5 -71.333 21.5 -114c0 -112 -36 -195.833 -108 -251.5s-177.667 -83.5 -317 -83.5c-68.667 0 -128.834 5.83301 -180.501 17.5s-97 25.167 -136 40.5s-73.333 28.333 -103 39s-56.5 15 -80.5 13c-20 -22.667 -48 -43.834 -84 -63.501s-73.667 -29.5 -113 -29.5
c-15.333 0 -31.666 3.5 -48.999 10.5s-32 17 -44 30s-18 28.5 -18 46.5zM247 731.001v153h744v-153h-744z" />
    <glyph glyph-name="currency" unicode="&#xa4;" horiz-adv-x="1495" 
d="M746 322c-79.333 0 -151.833 19.333 -217.5 58s-118 90.667 -157 156s-58.5 138 -58.5 218c0 81.333 19.5 154.666 58.5 219.999s91.333 117.333 157 156s138.167 58 217.5 58c80 0 152.667 -19.333 218 -58s117.5 -90.667 156.5 -156s58.5 -138.666 58.5 -219.999
c0 -80 -19.5 -152.667 -58.5 -218s-91.167 -117.333 -156.5 -156s-138 -58 -218 -58zM748 491c46 0 88 12 126 36s68.167 56 90.5 96s33.5 83.667 33.5 131c0 48.667 -11.167 93 -33.5 133s-52.5 72 -90.5 96s-80 36 -126 36c-46.667 0 -89.167 -12 -127.5 -36
s-68.833 -56 -91.5 -96s-34 -84.333 -34 -133c0 -47.333 11.333 -91 34 -131s53.167 -72 91.5 -96s80.833 -36 127.5 -36zM415 983l-221 222l126 129l221 -225zM1079 981l-126 129l226 226l126 -128zM321 174l-127 127l221 223l128 -127zM1174 178l-221 222l126 128
l221 -223z" />
    <glyph glyph-name="yen" unicode="&#xa5;" horiz-adv-x="1504" 
d="M641 0v805l53 -173l-535 854h247l286 -494l91 -186h-16.5h-17h-17.5l84 191l296 489h243l-536 -839l49 158v-805h-227zM270 651v148h947v-148h-947zM270 282v148h947v-148h-947z" />
    <glyph glyph-name="brokenbar" unicode="&#xa6;" horiz-adv-x="836" 
d="M314 -182v804h207v-804h-207zM314 930v808h207v-808h-207z" />
    <glyph glyph-name="section" unicode="&#xa7;" horiz-adv-x="1334" 
d="M225 1299c0 64.667 13.9961 118.673 41.9961 162.006s64.833 77.666 110.5 102.999s95 43.333 148 54s104.5 16 154.5 16c92 0 167.667 -7.66699 227 -23s103 -31.666 131 -48.999l-40 -172c-22.667 15.333 -59.5 31.5 -110.5 48.5s-120.167 25.5 -207.5 25.5
c-42 -0.666992 -81.5 -5.83398 -118.5 -15.501s-66.833 -25 -89.5 -46s-34 -49.167 -34 -84.5c0 -38 12.5 -71.333 37.5 -100s58 -54.834 99 -78.501s86.167 -47 135.5 -70s98.5 -47.333 147.5 -73s94 -54.834 135 -87.501s74 -70.667 99 -114s37.5 -94.333 37.5 -153
c0 -72 -18.667 -138.5 -56 -199.5s-84.666 -113.167 -141.999 -156.5l-102 58c12.667 17.333 26.334 41.166 41.001 71.499s27.167 62.5 37.5 96.5s15.5 64.667 15.5 92c0 46 -12.667 85.667 -38 119s-58.666 62.666 -99.999 87.999s-86.833 49.166 -136.5 71.499l-149 70
c-49.667 24.333 -95.167 52 -136.5 83s-74.666 67.833 -99.999 110.5s-38 93.667 -38 153zM1113 148.006c0 -64 -14.665 -117.505 -43.998 -160.505s-67.833 -77.333 -115.5 -103s-99.667 -44.167 -156 -55.5s-111.166 -17 -164.499 -17
c-90.667 0 -173.167 9.83301 -247.5 29.5s-126.5 39.834 -156.5 60.501l40 172c26.667 -18.667 72 -38.834 136 -60.501s140 -32.167 228 -31.5c47.333 0 91.333 4.83301 132 14.5s73.5 25.5 98.5 47.5s37.5 51.333 37.5 88c0 40 -16.667 74 -50 102s-76.333 53.333 -129 76
l-167.5 70c-59 24 -114.833 52 -167.5 84s-95.667 71 -129 117s-50 102.333 -50 169c0 69.333 18.667 133.833 56 193.5s83.333 109.834 138 150.501l109 -58c-12.667 -17.333 -26.5 -40.5 -41.5 -69.5s-27.667 -59.5 -38 -91.5s-15.5 -61.667 -15.5 -89
c0 -44 12.667 -81.167 38 -111.5s58.666 -56.666 99.999 -78.999s86.833 -43.166 136.5 -62.499s99.167 -39.666 148.5 -60.999s94.666 -46.166 135.999 -74.499s74.666 -62.5 99.999 -102.5s38 -89 38 -147z" />
    <glyph glyph-name="dieresis" unicode="&#xa8;" horiz-adv-x="862" 
d="M194 1323c-37.333 0 -68.999 11.999 -94.999 35.999s-39 56.333 -39 97c0 42 16.333 77.833 49 107.5s68.667 44.5 108 44.5c45.333 0 78.666 -13.167 99.999 -39.5s32 -58.166 32 -95.499c0 -44 -15.5 -80 -46.5 -108s-67.167 -42 -108.5 -42zM646.001 1323
c-37.333 0 -69 11.999 -95 35.999s-39 56.333 -39 97c0 42 16.167 77.833 48.5 107.5s68.5 44.5 108.5 44.5c46 0 79.5 -13.167 100.5 -39.5s31.5 -58.166 31.5 -95.499c0 -44 -15.5 -80 -46.5 -108s-67.167 -42 -108.5 -42z" />
    <glyph glyph-name="copyright" unicode="&#xa9;" horiz-adv-x="2074" 
d="M187 940c0 119.333 21.667 230.666 65 333.999s103.833 194.166 181.5 272.499s168 139.5 271 183.5s213.833 66 332.5 66s229.334 -22 332.001 -66s192.834 -105.167 270.501 -183.5s138.334 -169.166 182.001 -272.499s65.5 -214.666 65.5 -333.999
c0 -118.667 -21.833 -230 -65.5 -334s-104.334 -195.5 -182.001 -274.5s-167.834 -140.667 -270.501 -185s-213.334 -66.5 -332.001 -66.5s-229.5 22.167 -332.5 66.5s-193.333 106 -271 185s-138.167 170.5 -181.5 274.5s-65 215.333 -65 334zM325 940
c0 -100.667 17.667 -195.334 53 -284.001s85 -166.834 149 -234.501s139.333 -120.5 226 -158.5s181.334 -57 284.001 -57c102 0 196.167 19 282.5 57s161.5 90.833 225.5 158.5s113.667 145.834 149 234.501s53 183.334 53 284.001c0 101.333 -17.667 196.166 -53 284.499
s-85 166.333 -149 234s-139.167 120.5 -225.5 158.5s-180.5 57 -282.5 57c-102.667 0 -197.334 -19 -284.001 -57s-162 -90.833 -226 -158.5s-113.667 -145.667 -149 -234s-53 -183.166 -53 -284.499zM603 933c0 92 18.5029 174.335 55.5029 247.002
s91.5 130.167 163.5 172.5s160.333 63.5 265 63.5c61.333 0 111.666 -6.5 150.999 -19.5s67.666 -24.167 84.999 -33.5l-34 -167c-26 16.667 -57 30.667 -93 42s-77.667 17 -125 17c-86.667 0 -153.5 -28.833 -200.5 -86.5s-70.5 -129.834 -70.5 -216.501
c0 -106.667 24.833 -187.334 74.5 -242.001s113.167 -82 190.5 -82c51.333 0 97.666 6.66699 138.999 20s74.333 26.333 99 39l44 -126c-31.333 -26.667 -75 -49 -131 -67s-116.667 -27 -182 -27c-89.333 0 -166.333 21.833 -231 65.5s-114.167 101 -148.5 172
s-51.5 147.167 -51.5 228.5z" />
    <glyph glyph-name="ordfeminine" unicode="&#xaa;" horiz-adv-x="1016" 
d="M417 660c-87.333 0 -158.169 21.502 -212.502 64.502s-81.5 103.5 -81.5 181.5c0 66.667 16.333 119.667 49 159s75 69 127 89c38.667 14.667 79 26 121 34s83.667 13.667 125 17s80 5 116 5l42 -60l-42 -64c-46 0 -91.333 -1.33301 -136 -4s-84.667 -12.667 -120 -30
c-28.667 -14.667 -49.667 -31.834 -63 -51.501s-20 -46.5 -20 -80.5c0 -37.333 13.5 -65 40.5 -83s59.833 -27 98.5 -27c46.667 0 89.167 7.83301 127.5 23.5s62.5 28.167 72.5 37.5l42 -58l-32 -60c-21.333 -22.667 -54.666 -43.834 -99.999 -63.501
s-96.666 -29.5 -153.999 -29.5zM865.997 669.002l-80.001 -0.00195312c-36.667 0 -65 2.33301 -85 7s-30 26.334 -30 65.001v62h-10v464c0 63.333 -15.5 102.5 -46.5 117.5s-77.167 22.5 -138.5 22.5c-29.333 0 -62.666 -4.33301 -99.999 -13s-72 -19 -104 -31
s-55 -23 -69 -33l-56 124c12 11.333 38 25.833 78 43.5s86.5 33.334 139.5 47.001s104.5 20.5 154.5 20.5c107.333 0 192 -21 254 -63s93 -118.333 93 -229v-135v-469z" />
    <glyph glyph-name="guillemotleft" unicode="&#xab;" horiz-adv-x="1901" 
d="M238 501v191l610 418l58 -167l-500 -385v84l500 -381l-58 -164zM961 501v191l630 418l58 -167l-520 -385v84l520 -381l-58 -164z" />
    <glyph glyph-name="logicalnot" unicode="&#xac;" horiz-adv-x="1438" 
d="M235 663v169h968v-516h-204v347h-764z" />
    <glyph glyph-name="uni00AD" unicode="&#xad;" horiz-adv-x="1190" 
d="M180 560v186h830v-186h-830z" />
    <glyph glyph-name="registered" unicode="&#xae;" horiz-adv-x="2074" 
d="M186 940c0 119.333 21.833 230.666 65.5 333.999s104.167 194.166 181.5 272.499s167.666 139.5 270.999 183.5s214.333 66 333 66s229.5 -22 332.5 -66s193.333 -105.167 271 -183.5s138.334 -169.166 182.001 -272.499s65.5 -214.666 65.5 -333.999
c0 -118.667 -21.833 -230 -65.5 -334s-104.334 -195.5 -182.001 -274.5s-168 -140.667 -271 -185s-213.833 -66.5 -332.5 -66.5s-229.667 22.167 -333 66.5s-193.666 106 -270.999 185s-137.833 170.5 -181.5 274.5s-65.5 215.333 -65.5 334zM324 940
c0 -100.667 17.833 -195.334 53.5 -284.001s85.667 -166.834 150 -234.501s139.833 -120.5 226.5 -158.5s181 -57 283 -57s196.167 19 282.5 57s161.5 90.833 225.5 158.5s113.833 145.834 149.5 234.501s53.5 183.334 53.5 284.001
c0 101.333 -17.833 196.166 -53.5 284.499s-85.5 166.333 -149.5 234s-139.167 120.5 -225.5 158.5s-180.5 57 -282.5 57s-196.333 -19 -283 -57s-162.167 -90.833 -226.5 -158.5s-114.333 -145.667 -150 -234s-53.5 -183.166 -53.5 -284.499zM715 468l-0.00292969 939.999
h39h39c24 0 49.333 0.5 76 1.5s54.834 2 84.501 3s60.5 1.5 92.5 1.5c121.333 0 209.833 -26.167 265.5 -78.5s83.5 -115.5 83.5 -189.5c0 -70.667 -13.833 -132.167 -41.5 -184.5s-76.167 -89.166 -145.5 -110.499c24 -16.667 44.833 -38.334 62.5 -65.001
s33.834 -55 48.501 -85s29.667 -59 45 -87c10 -18.667 21.5 -37.5 34.5 -56.5l59.5 -89.5h-207c-14.667 19.333 -27.5 39.166 -38.5 59.499s-22.167 42.833 -33.5 67.5l-42.5 93c-15 32.667 -32.5 61.834 -52.5 87.501s-45 42.834 -75 51.501
c-7.33301 -0.666992 -17.166 -1.16699 -29.499 -1.5s-25.833 -0.5 -40.5 -0.5h-44v-357h-180zM894.997 958.999c9.33301 -1.33301 21.667 -2.33203 37 -2.99902s31 -1 47 -1h40c63.333 0 110.833 12.667 142.5 38s47.5 68.666 47.5 129.999c0 49.333 -14 88.5 -42 117.5
s-84 42.5 -168 40.5c-20.667 -0.666992 -38.667 -1.5 -54 -2.5s-32 -4.16699 -50 -9.5v-310z" />
    <glyph glyph-name="macron" unicode="&#xaf;" horiz-adv-x="641" 
d="M49 1391v166h543v-166h-543z" />
    <glyph glyph-name="degree" unicode="&#xb0;" horiz-adv-x="898" 
d="M114 1248c0 64.667 14.833 122.166 44.5 172.499s70 90 121 119s107.833 43.5 170.5 43.5c62 0 118.333 -14.667 169 -44s91 -69.166 121 -119.499s45 -107.5 45 -171.5c0 -64.667 -15 -122.167 -45 -172.5s-70.167 -90 -120.5 -119s-106.833 -43.5 -169.5 -43.5
c-62 0 -118.333 14.667 -169 44s-91.167 69.333 -121.5 120s-45.5 107.667 -45.5 171zM278 1248c0 -52 16.667 -95 50 -129s74 -51 122 -51c47.333 0 87.5 17 120.5 51s49.5 77 49.5 129s-16.5 95 -49.5 129s-73.167 51 -120.5 51c-48 0 -88.667 -17 -122 -51
s-50 -77 -50 -129z" />
    <glyph glyph-name="plusminus" unicode="&#xb1;" horiz-adv-x="1362" 
d="M243 0v168h875v-168h-875zM587 274v226l8 171l-162 -8h-212v184h212l162 -9l-8 171v220h186v-220l-8 -171l140 9h236v-184h-236l-140 8l8 -171v-226h-186z" />
    <glyph glyph-name="uni00B2" unicode="&#xb2;" horiz-adv-x="987" 
d="M109 800l-29.002 86.001c44.667 22.667 92.334 52 143.001 88s100.5 76.5 149.5 121.5s93.5 93 133.5 144s72 103.5 96 157.5s36 107.333 36 160c0 57.333 -17.5 101.333 -52.5 132s-87.167 46 -156.5 46c-53.333 0 -105.5 -10.333 -156.5 -31
s-90.167 -43.667 -117.5 -69l-67 117c23.333 24 54.333 47.167 93 69.5s82.834 40.666 132.501 54.999s103.167 21.5 160.5 21.5c92 0 165.5 -15.833 220.5 -47.5s94.667 -73 119 -124s36.5 -105.833 36.5 -164.5c0 -78 -20 -151.667 -60 -221s-95 -135.333 -165 -198
s-150.333 -123.667 -241 -183l503 13v-173h-778z" />
    <glyph glyph-name="uni00B3" unicode="&#xb3;" horiz-adv-x="866" 
d="M102 818l-2.00195 132.001c25.333 -4.66699 53.333 -8.5 84 -11.5s56.667 -4.5 78 -4.5c70 0 129.667 7.16699 179 21.5s86.833 35.666 112.5 63.999s38.5 63.166 38.5 104.499c0 30.667 -7.83301 59.5 -23.5 86.5s-41 48.333 -76 64s-81.833 21.167 -140.5 16.5
l-101 -25l-30 128c35.333 7.33301 67 15.5 95 24.5s53.333 18.167 76 27.5c48.667 20.667 85.834 45.167 111.501 73.5s39.167 59.833 40.5 94.5c1.33301 42 -14.667 73.833 -48 95.5s-76.666 32.5 -129.999 32.5c-58.667 0 -107.834 -9 -147.501 -27
s-71.5 -35.333 -95.5 -52l-64 128c16 15.333 41.5 31.5 76.5 48.5s75.333 31.5 121 43.5s92.834 18 141.501 18c73.333 0 136.333 -10.333 189 -31s93 -50.167 121 -88.5s42 -84.166 42 -137.499c0 -71.333 -25 -131.5 -75 -180.5s-109.333 -85.167 -178 -108.5l-1 18
c70 1.33301 128 -10.5 174 -35.5s80.333 -57.167 103 -96.5s34 -80.666 34 -123.999c0 -64.667 -19.167 -121.834 -57.5 -171.501s-94 -88.667 -167 -117s-161.833 -42.5 -266.5 -42.5c-46.667 0 -89.5 4.16699 -128.5 12.5s-67.5 14.833 -85.5 19.5z" />
    <glyph glyph-name="acute" unicode="&#xb4;" horiz-adv-x="592" 
d="M165 1257l-116 95.9971l114 124l113.5 131.5c37 45 71.167 90.833 102.5 137.5l164 -138c-12 -22.667 -34.833 -52.167 -68.5 -88.5s-71 -73.166 -112 -110.499s-79.667 -70.166 -116 -98.499s-63.5 -46.166 -81.5 -53.499z" />
    <glyph glyph-name="uni00B5" unicode="&#xb5;" horiz-adv-x="1336" 
d="M201 -362l-0.00390625 1476h228v-709c0 -88.667 19.333 -150.5 58 -185.5s97.667 -52.5 177 -52.5c24.667 0 49.5 4.33301 74.5 13s48.833 19.334 71.5 32.001s42 25 58 37v865h230v-878c0 -30 3.33301 -49.833 10 -59.5s15.334 -14.5 26.001 -14.5
c6 0 15.667 1.83301 29 5.5s29 10.5 47 20.5l30 -104c-4.66699 -6.66699 -17 -18.167 -37 -34.5s-45.333 -31.666 -76 -45.999s-64.667 -21.5 -102 -21.5c-36.667 0 -66.667 10 -90 30s-34 55.333 -32 106c-15.333 -17.333 -34.166 -36.5 -56.499 -57.5
s-50.166 -39 -83.499 -54s-73.666 -22.5 -120.999 -22.5c-74.667 0 -136.167 11.667 -184.5 35s-87.5 66.333 -117.5 129l38 10l36 -520h-213z" />
    <glyph glyph-name="paragraph" unicode="&#xb6;" horiz-adv-x="1368" 
d="M562 0l0.000976562 758c-90.667 0 -167.334 15.833 -230.001 47.5s-110.334 81.334 -143.001 149.001s-49 155.5 -49 263.5c0 139.333 47.5 249.5 142.5 330.5s235.5 121.5 421.5 121.5c23.333 0 55.333 -0.833008 96 -2.5s84.5 -3.66699 131.5 -6
s92.333 -4.33301 136 -6s79.834 -2.83398 108.501 -3.50098v-1652h-192v1508h-230v-1508h-192z" />
    <glyph glyph-name="periodcentered" unicode="&#xb7;" horiz-adv-x="595" 
d="M290 554c-40 0 -74.6699 14.832 -104.003 44.499s-44.666 66.5 -45.999 110.5c-0.666992 32.667 6.83301 62.334 22.5 89.001s36.167 48 61.5 64s52 24 80 24c48.667 0 85.667 -15.333 111 -46s38.333 -66.667 39 -108c1.33301 -33.333 -5.66699 -63.5 -21 -90.5
s-35.666 -48.333 -60.999 -64s-52.666 -23.5 -81.999 -23.5z" />
    <glyph glyph-name="cedilla" unicode="&#xb8;" horiz-adv-x="480" 
d="M44 -426l14.999 142.001c8.66699 -4.66699 20.334 -7.83398 35.001 -9.50098s29.334 -2.5 44.001 -2.5c32 0 59.833 11.167 83.5 33.5s36.834 59.833 39.501 112.5c6 46 6.33301 82.833 1 110.5s-12.666 50.834 -21.999 69.501l90 4l43 -4
c15.333 -15.333 27.666 -36.166 36.999 -62.499s15.666 -55.833 18.999 -88.5s3.66602 -66.667 0.999023 -102c-6.66699 -82 -33.5 -141 -80.5 -177s-99.167 -54 -156.5 -54c-18 0 -37.167 1.16699 -57.5 3.5s-38.833 5.66602 -55.5 9.99902s-28.667 9.16602 -36 14.499z
" />
    <glyph glyph-name="uni00B9" unicode="&#xb9;" horiz-adv-x="726" 
d="M320 800l-0.00195312 841.999c-24 -11.333 -46.167 -20.166 -66.5 -26.499s-43.166 -11.166 -68.499 -14.499s-57.666 -6 -96.999 -8l-28 116c68 11.333 124.333 29.166 169 53.499s81.167 49.833 109.5 76.5l69.5 67l5 -1l113 -32v-1073h-206z" />
    <glyph glyph-name="ordmasculine" unicode="&#xba;" horiz-adv-x="1014" 
d="M103 1125c1.33301 80 14.8311 147.999 40.498 203.999s58.834 101.333 99.501 136s85.5 60 134.5 76s97.833 24 146.5 24c84.667 0 155.834 -19.333 213.501 -58s101.167 -92.5 130.5 -161.5s43.333 -149.167 42 -240.5c-1.33301 -106.667 -21.833 -192.667 -61.5 -258
s-90.334 -112.666 -152.001 -141.999s-126.167 -44 -193.5 -44c-128.667 0 -227.667 42.167 -297 126.5s-103.666 196.833 -102.999 337.5zM316.998 1125c0 -96 17.167 -172.332 51.5 -228.999s82.5 -84.667 144.5 -84c60.667 1.33301 106.667 24.166 138 68.499
s47 118.5 47 222.5c0 96.667 -15.667 173 -47 229s-77.333 83.333 -138 82c-56.667 -0.666992 -103.5 -23 -140.5 -67s-55.5 -118 -55.5 -222z" />
    <glyph glyph-name="guillemotright" unicode="&#xbb;" horiz-adv-x="1924" 
d="M1684 502l-612 -404l-58 162l504 382v-84l-504 384l58 168l612 -418v-190zM934 502l-626 -404l-58 162l516 382v-84l-516 384l58 168l626 -418v-190z" />
    <glyph glyph-name="onequarter" unicode="&#xbc;" horiz-adv-x="2108" 
d="M320 780l-0.00195312 841.999c-24 -11.333 -46.167 -20.166 -66.5 -26.499s-43.166 -11.166 -68.499 -14.499s-57.666 -6 -96.999 -8l-28 116c68 11.333 124.333 29.166 169 53.499s81.167 49.833 109.5 76.5l69.5 67l5 -1l113 -32v-1073h-206zM1360 1916h170l-978 -2018
h-170zM1175 244.999l-49 83l63.5 121l86.5 168l94.5 185.5l87.5 175.5l65 136h255l-145.5 -243.5l-120.5 -207.5l-107 -179l-58 -90h715v-149h-887zM1684 -0.000976562v428l21 290h174v-718h-195z" />
    <glyph glyph-name="onehalf" unicode="&#xbd;" horiz-adv-x="2237" 
d="M320 780l-0.00195312 841.999c-24 -11.333 -46.167 -20.166 -66.5 -26.499s-43.166 -11.166 -68.499 -14.499s-57.666 -6 -96.999 -8l-28 116c68 11.333 124.333 29.166 169 53.499s81.167 49.833 109.5 76.5l69.5 67l5 -1l113 -32v-1073h-206zM1360 1916h170l-978 -2018
h-170zM1359 -0.000976562l-29.002 86.001c44.667 22.667 92.334 52 143.001 88s100.5 76.5 149.5 121.5s93.5 93 133.5 144s72 103.5 96 157.5s36 107.333 36 160c0 57.333 -17.5 101.333 -52.5 132s-87.167 46 -156.5 46c-53.333 0 -105.5 -10.333 -156.5 -31
s-90.167 -43.667 -117.5 -69l-67 117c23.333 24 54.333 47.167 93 69.5s82.834 40.666 132.501 54.999s103.167 21.5 160.5 21.5c92 0 165.5 -15.833 220.5 -47.5s94.667 -73 119 -124s36.5 -105.833 36.5 -164.5c0 -78 -20 -151.667 -60 -221s-95 -135.333 -165 -198
s-150.333 -123.667 -241 -183l503 13v-173h-778z" />
    <glyph glyph-name="threequarters" unicode="&#xbe;" horiz-adv-x="2312" 
d="M102 798l-2.00195 132.001c25.333 -4.66699 53.333 -8.5 84 -11.5s56.667 -4.5 78 -4.5c70 0 129.667 7.16699 179 21.5s86.833 35.666 112.5 63.999s38.5 63.166 38.5 104.499c0 30.667 -7.83301 59.5 -23.5 86.5s-41 48.333 -76 64s-81.833 21.167 -140.5 16.5
l-101 -25l-30 128c35.333 7.33301 67 15.5 95 24.5s53.333 18.167 76 27.5c48.667 20.667 85.834 45.167 111.501 73.5s39.167 59.833 40.5 94.5c1.33301 42 -14.667 73.833 -48 95.5s-76.666 32.5 -129.999 32.5c-58.667 0 -107.834 -9 -147.501 -27
s-71.5 -35.333 -95.5 -52l-64 128c16 15.333 41.5 31.5 76.5 48.5s75.333 31.5 121 43.5s92.834 18 141.501 18c73.333 0 136.333 -10.333 189 -31s93 -50.167 121 -88.5s42 -84.166 42 -137.499c0 -71.333 -25 -131.5 -75 -180.5s-109.333 -85.167 -178 -108.5l-1 18
c70 1.33301 128 -10.5 174 -35.5s80.333 -57.167 103 -96.5s34 -80.666 34 -123.999c0 -64.667 -19.167 -121.834 -57.5 -171.501s-94 -88.667 -167 -117s-161.833 -42.5 -266.5 -42.5c-46.667 0 -89.5 4.16699 -128.5 12.5s-67.5 14.833 -85.5 19.5zM1564 1916h170
l-978 -2018h-170zM1379 245.001l-49 83l63.5 121l86.5 168l94.5 185.5l87.5 175.5l65 136h255l-145.5 -243.5l-120.5 -207.5l-107 -179l-58 -90h715v-149h-887zM1888 0.000976562v428l21 290h174v-718h-195z" />
    <glyph glyph-name="questiondown" unicode="&#xbf;" horiz-adv-x="1040" 
d="M671 1004c21.333 -26.667 40.499 -63.4971 57.499 -110.497s26.5 -99.833 28.5 -158.5c1.33301 -45.333 -10.834 -85.333 -36.501 -120s-58.334 -66.334 -98.001 -95.001l-120.5 -83.5c-40.667 -27 -75.834 -55.333 -105.501 -85s-47.167 -63.5 -52.5 -101.5
c-26.667 -117.333 -5 -207.833 65 -271.5s174.667 -95.5 314 -95.5c50 0 89.333 2.5 118 7.5s49.334 8.83301 62.001 11.5v-168c-8 -5.33301 -23 -11.5 -45 -18.5s-48.167 -12.833 -78.5 -17.5s-62.833 -7 -97.5 -7c-116 0 -213.333 15.333 -292 46
s-140.5 72.167 -185.5 124.5s-74.833 111.166 -89.5 176.499s-16 132.333 -4 201c6.66699 50.667 21.334 94.5 44.001 131.5s49.667 69.333 81 97s63.833 53 97.5 76l95.5 67c30 21.667 54.833 44.667 74.5 69s30.834 52.166 33.501 83.499
c4.66699 43.333 2.33398 82.333 -6.99902 117l-34 124h175zM556.999 1510c37.333 0 70.5 -14.333 99.5 -43s43.833 -64.667 44.5 -108c0.666992 -30 -6.66602 -57.833 -21.999 -83.5s-35.333 -46.167 -60 -61.5s-50.667 -23 -78 -23c-46.667 0 -82.334 14.667 -107.001 44
s-37.667 63.666 -39 102.999c-0.666992 32.667 6.5 61.834 21.5 87.501s35 46.167 60 61.5s51.833 23 80.5 23z" />
    <glyph glyph-name="Agrave" unicode="&#xc0;" horiz-adv-x="1376" 
d="M262 0h-248l564 1502h229l556 -1502h-255l-371 1117l-42 143l-44 -143zM294 365l40 173h682l42 -173h-764zM815 1715l-99 -96.002c-23.333 8.66699 -52.5 23.334 -87.5 44.001s-71.5 44.667 -109.5 72s-73.5 54.833 -106.5 82.5s-59.167 52.834 -78.5 75.501l156 130
c1.33301 -4 12.833 -16.833 34.5 -38.5l79.5 -76.5l94.5 -87l80.5 -73c22 -20 34 -31 36 -33z" />
    <glyph glyph-name="Aacute" unicode="&#xc1;" horiz-adv-x="1376" 
d="M262 0h-248l564 1502h229l556 -1502h-255l-371 1117l-42 143l-44 -143zM294 365l40 173h682l42 -173h-764zM627 1619l-99.9971 93c1.33301 1.33301 13.333 12.166 36 32.499l82 74.5l96.5 88.5l81.5 76.5c22 21.333 33.667 33.333 35 36l151 -130
c-22.667 -23.333 -49.834 -48.666 -81.501 -75.999s-65.334 -54 -101.001 -80s-70.834 -49.167 -105.501 -69.5s-66 -35.5 -94 -45.5z" />
    <glyph glyph-name="Acircumflex" unicode="&#xc2;" horiz-adv-x="1376" 
d="M262 0h-248l564 1502h229l556 -1502h-255l-371 1117l-42 143l-44 -143zM294 365l40 173h682l42 -173h-764zM469 1614l-138 61l256 296h198l258 -294l-144 -63l-214 197z" />
    <glyph glyph-name="Atilde" unicode="&#xc3;" horiz-adv-x="1376" 
d="M262 0h-248l564 1502h229l556 -1502h-255l-371 1117l-42 143l-44 -143zM294 365l40 173h682l42 -173h-764zM829 1616c-38.667 0 -70.667 6.83203 -96 20.499s-47.5 29.5 -66.5 47.5s-37.667 33.833 -56 47.5s-40.166 20.5 -65.499 20.5c-30.667 0 -55.5 -4 -74.5 -12
s-34.333 -18.833 -46 -32.5s-21.5 -28.834 -29.5 -45.501l-98 46c12 34.667 28.167 68.334 48.5 101.001s46.333 59.667 78 81s70.167 32 115.5 32c37.333 0 68.666 -6.66699 93.999 -20s47.666 -29 66.999 -47s38.833 -33.667 58.5 -47s41.834 -20 66.501 -20
c26 0 48.5 3.83301 67.5 11.5s34.833 18.334 47.5 32.001s23 29.167 31 46.5l102 -52c-8 -38 -23.667 -72.833 -47 -104.5s-52 -57.167 -86 -76.5s-71 -29 -111 -29z" />
    <glyph glyph-name="Adieresis" unicode="&#xc4;" horiz-adv-x="1376" 
d="M262 0h-248l564 1502h229l556 -1502h-255l-371 1117l-42 143l-44 -143zM294 365l40 173h682l42 -173h-764zM431 1618c-38 0 -70.667 12.168 -98 36.501s-41 57.166 -41 98.499c0 44.667 16.5 82 49.5 112s70.167 45 111.5 45c47.333 0 82.333 -13 105 -39
s34 -58.667 34 -98c0 -46 -16 -83.333 -48 -112s-69.667 -43 -113 -43zM920 1618c-38.667 0 -71.333 12.168 -98 36.501s-40 57.166 -40 98.499c0 44.667 16.5 82 49.5 112s69.5 45 109.5 45c47.333 0 82.666 -13 105.999 -39s35 -58.667 35 -98
c0 -46 -16.167 -83.333 -48.5 -112s-70.166 -43 -113.499 -43z" />
    <glyph glyph-name="Aring" unicode="&#xc5;" horiz-adv-x="1376" 
d="M262 0h-248l564 1502h229l556 -1502h-255l-371 1117l-42 143l-44 -143zM294 365l40 173h682l42 -173h-764zM683 1483c-96 0 -172.499 23.8311 -229.499 71.498s-85.167 113.5 -84.5 197.5c0.666992 62.667 16.667 112.834 48 150.501s71.166 64.834 119.499 81.501
s98.166 25 149.499 25c97.333 0 174.833 -22 232.5 -66s86.5 -108.667 86.5 -194c-0.666992 -62.667 -16 -113.5 -46 -152.5s-69.167 -67.667 -117.5 -86s-101.166 -27.5 -158.499 -27.5zM683.001 1610c49.333 0 89.5 10.166 120.5 30.499s46.5 56.5 46.5 108.5
c0 44.667 -16 78.167 -48 100.5s-71.667 33.5 -119 33.5c-38.667 1.33301 -74.5 -7 -107.5 -25s-49.5 -53.333 -49.5 -106c0 -42.667 14.167 -76.667 42.5 -102s66.5 -38.666 114.5 -39.999z" />
    <glyph glyph-name="AE" unicode="&#xc6;" horiz-adv-x="1830" 
d="M-78 0l715 1486l197 -108l-655 -1378h-257zM822 1486l79 -142h-234l-30 142h185zM230 375l42 171h680l34 -171h-756zM822 0v1486h863v-180h-629v-450h465v-180h-465v-492h700v-184h-934z" />
    <glyph glyph-name="Ccedilla" unicode="&#xc7;" horiz-adv-x="1280" 
d="M93 737c0 123.333 18.5 232.335 55.5 327.002s87.833 174.667 152.5 240s138.834 114.666 222.501 147.999s171.834 50 264.501 50c74.667 0 137.5 -3.83301 188.5 -11.5s92.833 -15.834 125.5 -24.501s59 -15.334 79 -20.001l-34 -209c-10.667 6.66699 -29 16 -55 28
s-62.333 23.167 -109 33.5s-106.667 15.5 -180 15.5c-96 0 -179.667 -22.833 -251 -68.5s-126.5 -110.667 -165.5 -195s-58.5 -184.166 -58.5 -299.499c0 -113.333 19.167 -213.833 57.5 -301.5s93.5 -156.5 165.5 -206.5s157.667 -75 257 -75
c49.333 0 98.5 4.66699 147.5 14s92.667 21 131 35s66.166 28.333 83.499 43v-198c-28.667 -11.333 -60.334 -23 -95.001 -35s-74.5 -22.167 -119.5 -30.5s-98.167 -12.5 -159.5 -12.5c-142 0 -265.667 31.5 -371 94.5s-187 151 -245 264s-87 244.5 -87 394.5zM483 -425.998
l13.998 142.002c9.33301 -4.66699 21.333 -7.83398 36 -9.50098s29.334 -2.5 44.001 -2.5c40 0 71.833 11.167 95.5 33.5s35.834 59.833 36.501 112.5c1.33301 43.333 -1 79.5 -7 108.5s-13.667 52.833 -23 71.5l90 4l44 -4c13.333 -15.333 24.166 -35.166 32.499 -59.499
s14.333 -52 18 -83s5.5 -64.167 5.5 -99.5c0 -56 -11.667 -101.833 -35 -137.5s-53.166 -62 -89.499 -79s-73.5 -25.5 -111.5 -25.5c-18.667 0 -38.167 1.16699 -58.5 3.5s-38.833 5.66602 -55.5 9.99902s-28.667 9.16602 -36 14.499z" />
    <glyph glyph-name="Egrave" unicode="&#xc8;" horiz-adv-x="1182" 
d="M176 0v1486h864v-180h-628v-452h466v-178h-466v-492h698v-184h-934zM758 1715l-99 -96.002c-23.333 8.66699 -52.5 23.334 -87.5 44.001s-71.5 44.667 -109.5 72s-73.5 54.833 -106.5 82.5s-59.167 52.834 -78.5 75.501l156 130c1.33301 -4 12.833 -16.833 34.5 -38.5
l79.5 -76.5l94.5 -87l80.5 -73c22 -20 34 -31 36 -33z" />
    <glyph glyph-name="Eacute" unicode="&#xc9;" horiz-adv-x="1182" 
d="M176 0v1486h864v-180h-628v-452h466v-178h-466v-492h698v-184h-934zM570 1619l-99.9971 93c1.33301 1.33301 13.333 12.166 36 32.499l82 74.5l96.5 88.5l81.5 76.5c22 21.333 33.667 33.333 35 36l151 -130c-22.667 -23.333 -49.834 -48.666 -81.501 -75.999
s-65.334 -54 -101.001 -80s-70.834 -49.167 -105.501 -69.5s-66 -35.5 -94 -45.5z" />
    <glyph glyph-name="Ecircumflex" unicode="&#xca;" horiz-adv-x="1182" 
d="M176 0v1486h864v-180h-628v-452h466v-178h-466v-492h698v-184h-934zM412 1614l-138 61l256 296h198l258 -294l-144 -63l-214 197z" />
    <glyph glyph-name="Edieresis" unicode="&#xcb;" horiz-adv-x="1182" 
d="M176 0v1486h864v-180h-628v-452h466v-178h-466v-492h698v-184h-934zM374 1618c-38 0 -70.667 12.168 -98 36.501s-41 57.166 -41 98.499c0 44.667 16.5 82 49.5 112s70.167 45 111.5 45c47.333 0 82.333 -13 105 -39s34 -58.667 34 -98c0 -46 -16 -83.333 -48 -112
s-69.667 -43 -113 -43zM863 1618c-38.667 0 -71.333 12.168 -98 36.501s-40 57.166 -40 98.499c0 44.667 16.5 82 49.5 112s69.5 45 109.5 45c47.333 0 82.666 -13 105.999 -39s35 -58.667 35 -98c0 -46 -16.167 -83.333 -48.5 -112s-70.166 -43 -113.499 -43z" />
    <glyph glyph-name="Igrave" unicode="&#xcc;" horiz-adv-x="640" 
d="M201 0v1486h236v-1486h-236zM449 1715l-99 -96.002c-23.333 8.66699 -52.5 23.334 -87.5 44.001s-71.5 44.667 -109.5 72s-73.5 54.833 -106.5 82.5s-59.167 52.834 -78.5 75.501l156 130c1.33301 -4 12.833 -16.833 34.5 -38.5l79.5 -76.5l94.5 -87l80.5 -73
c22 -20 34 -31 36 -33z" />
    <glyph glyph-name="Iacute" unicode="&#xcd;" horiz-adv-x="640" 
d="M201 0v1486h236v-1486h-236zM261 1619l-99.9971 93c1.33301 1.33301 13.333 12.166 36 32.499l82 74.5l96.5 88.5l81.5 76.5c22 21.333 33.667 33.333 35 36l151 -130c-22.667 -23.333 -49.834 -48.666 -81.501 -75.999s-65.334 -54 -101.001 -80
s-70.834 -49.167 -105.501 -69.5s-66 -35.5 -94 -45.5z" />
    <glyph glyph-name="Icircumflex" unicode="&#xce;" horiz-adv-x="640" 
d="M201 0v1486h236v-1486h-236zM103 1614l-138 61l256 296h198l258 -294l-144 -63l-214 197z" />
    <glyph glyph-name="Idieresis" unicode="&#xcf;" horiz-adv-x="640" 
d="M201 0v1486h236v-1486h-236zM65 1618c-38 0 -70.667 12.168 -98 36.501s-41 57.166 -41 98.499c0 44.667 16.5 82 49.5 112s70.167 45 111.5 45c47.333 0 82.333 -13 105 -39s34 -58.667 34 -98c0 -46 -16 -83.333 -48 -112s-69.667 -43 -113 -43zM554 1618
c-38.667 0 -71.333 12.168 -98 36.501s-40 57.166 -40 98.499c0 44.667 16.5 82 49.5 112s69.5 45 109.5 45c47.333 0 82.666 -13 105.999 -39s35 -58.667 35 -98c0 -46 -16.167 -83.333 -48.5 -112s-70.166 -43 -113.499 -43z" />
    <glyph glyph-name="Eth" unicode="&#xd0;" horiz-adv-x="1452" 
d="M65 699v154h733v-154h-733zM176 0l0.000976562 1486h39.5h38.5h38c31.333 0 66 1.33301 104 4s78.167 5.33398 120.5 8.00098s85.5 4 129.5 4c241.333 0 420 -62.833 536 -188.5s174 -301.5 174 -527.5c0 -169.333 -29.833 -314.333 -89.5 -435
s-144.5 -212.667 -254.5 -276s-240 -93.666 -390 -90.999c-52.667 1.33301 -111.334 4.33301 -176.001 9s-122.667 7 -174 7h-32h-32h-32zM412.001 177.998c32 -6.66699 70.502 -11.501 115.502 -14.501s87.833 -4.16699 128.5 -3.5c88.667 1.33301 167.167 22.333 235.5 63
s121.833 104.334 160.5 191.001s58 199.334 58 338.001c0 143.333 -19 257.166 -57 341.499s-94.833 144.833 -170.5 181.5s-169.834 55 -282.501 55c-38.667 0 -74.334 -1.33301 -107.001 -4s-59.667 -6 -81 -10v-1138z" />
    <glyph glyph-name="Ntilde" unicode="&#xd1;" horiz-adv-x="1508" 
d="M176 0v1486h214l622 -962l198 -370h-70l-26 416v916h218v-1486h-224l-598 926l-230 418h86l24 -450v-894h-214zM908 1616c-38.667 0 -70.667 6.83203 -96 20.499s-47.5 29.5 -66.5 47.5s-37.667 33.833 -56 47.5s-40.166 20.5 -65.499 20.5c-30.667 0 -55.5 -4 -74.5 -12
s-34.333 -18.833 -46 -32.5s-21.5 -28.834 -29.5 -45.501l-98 46c12 34.667 28.167 68.334 48.5 101.001s46.333 59.667 78 81s70.167 32 115.5 32c37.333 0 68.666 -6.66699 93.999 -20s47.666 -29 66.999 -47s38.833 -33.667 58.5 -47s41.834 -20 66.501 -20
c26 0 48.5 3.83301 67.5 11.5s34.833 18.334 47.5 32.001s23 29.167 31 46.5l102 -52c-8 -38 -23.667 -72.833 -47 -104.5s-52 -57.167 -86 -76.5s-71 -29 -111 -29z" />
    <glyph glyph-name="Ograve" unicode="&#xd2;" horiz-adv-x="1528" 
d="M758 -16c-138 -2.66699 -257.333 28.832 -358 94.499s-177.667 157 -231 274s-78.333 250.833 -75 401.5c3.33301 166 36.166 304.333 98.499 415s145.333 193.667 249 249s219.167 83.333 346.5 84c132 0.666992 247 -30.166 345 -92.499s173.5 -150.5 226.5 -264.5
s77.833 -247.667 74.5 -401c-3.33301 -166 -34.666 -304.833 -93.999 -416.5s-139.333 -196.167 -240 -253.5s-214.667 -87.333 -342 -90zM764 163.999c132 0 237 49.834 315 149.501s117 246.5 117 440.5c0 102.667 -15.5 197.167 -46.5 283.5
s-77.333 155.666 -139 207.999s-138.5 78.5 -230.5 78.5c-80.667 0 -155 -20.667 -223 -62s-122.5 -105 -163.5 -191s-61.5 -196.333 -61.5 -331c0 -102 16.167 -196.833 48.5 -284.5s80.5 -158.167 144.5 -211.5s143.667 -80 239 -80zM916 1715l-99 -96.002
c-23.333 8.66699 -52.5 23.334 -87.5 44.001s-71.5 44.667 -109.5 72s-73.5 54.833 -106.5 82.5s-59.167 52.834 -78.5 75.501l156 130c1.33301 -4 12.833 -16.833 34.5 -38.5l79.5 -76.5l94.5 -87l80.5 -73c22 -20 34 -31 36 -33z" />
    <glyph glyph-name="Oacute" unicode="&#xd3;" horiz-adv-x="1528" 
d="M758 -16c-138 -2.66699 -257.333 28.832 -358 94.499s-177.667 157 -231 274s-78.333 250.833 -75 401.5c3.33301 166 36.166 304.333 98.499 415s145.333 193.667 249 249s219.167 83.333 346.5 84c132 0.666992 247 -30.166 345 -92.499s173.5 -150.5 226.5 -264.5
s77.833 -247.667 74.5 -401c-3.33301 -166 -34.666 -304.833 -93.999 -416.5s-139.333 -196.167 -240 -253.5s-214.667 -87.333 -342 -90zM764 163.999c132 0 237 49.834 315 149.501s117 246.5 117 440.5c0 102.667 -15.5 197.167 -46.5 283.5
s-77.333 155.666 -139 207.999s-138.5 78.5 -230.5 78.5c-80.667 0 -155 -20.667 -223 -62s-122.5 -105 -163.5 -191s-61.5 -196.333 -61.5 -331c0 -102 16.167 -196.833 48.5 -284.5s80.5 -158.167 144.5 -211.5s143.667 -80 239 -80zM728 1619l-99.9971 93
c1.33301 1.33301 13.333 12.166 36 32.499l82 74.5l96.5 88.5l81.5 76.5c22 21.333 33.667 33.333 35 36l151 -130c-22.667 -23.333 -49.834 -48.666 -81.501 -75.999s-65.334 -54 -101.001 -80s-70.834 -49.167 -105.501 -69.5s-66 -35.5 -94 -45.5z" />
    <glyph glyph-name="Ocircumflex" unicode="&#xd4;" horiz-adv-x="1528" 
d="M758 -16c-138 -2.66699 -257.333 28.832 -358 94.499s-177.667 157 -231 274s-78.333 250.833 -75 401.5c3.33301 166 36.166 304.333 98.499 415s145.333 193.667 249 249s219.167 83.333 346.5 84c132 0.666992 247 -30.166 345 -92.499s173.5 -150.5 226.5 -264.5
s77.833 -247.667 74.5 -401c-3.33301 -166 -34.666 -304.833 -93.999 -416.5s-139.333 -196.167 -240 -253.5s-214.667 -87.333 -342 -90zM764 163.999c132 0 237 49.834 315 149.501s117 246.5 117 440.5c0 102.667 -15.5 197.167 -46.5 283.5
s-77.333 155.666 -139 207.999s-138.5 78.5 -230.5 78.5c-80.667 0 -155 -20.667 -223 -62s-122.5 -105 -163.5 -191s-61.5 -196.333 -61.5 -331c0 -102 16.167 -196.833 48.5 -284.5s80.5 -158.167 144.5 -211.5s143.667 -80 239 -80zM570 1614l-138 61l256 296h198
l258 -294l-144 -63l-214 197z" />
    <glyph glyph-name="Otilde" unicode="&#xd5;" horiz-adv-x="1528" 
d="M758 -16c-138 -2.66699 -257.333 28.832 -358 94.499s-177.667 157 -231 274s-78.333 250.833 -75 401.5c3.33301 166 36.166 304.333 98.499 415s145.333 193.667 249 249s219.167 83.333 346.5 84c132 0.666992 247 -30.166 345 -92.499s173.5 -150.5 226.5 -264.5
s77.833 -247.667 74.5 -401c-3.33301 -166 -34.666 -304.833 -93.999 -416.5s-139.333 -196.167 -240 -253.5s-214.667 -87.333 -342 -90zM764 163.999c132 0 237 49.834 315 149.501s117 246.5 117 440.5c0 102.667 -15.5 197.167 -46.5 283.5
s-77.333 155.666 -139 207.999s-138.5 78.5 -230.5 78.5c-80.667 0 -155 -20.667 -223 -62s-122.5 -105 -163.5 -191s-61.5 -196.333 -61.5 -331c0 -102 16.167 -196.833 48.5 -284.5s80.5 -158.167 144.5 -211.5s143.667 -80 239 -80zM930 1616
c-38.667 0 -70.667 6.83203 -96 20.499s-47.5 29.5 -66.5 47.5s-37.667 33.833 -56 47.5s-40.166 20.5 -65.499 20.5c-30.667 0 -55.5 -4 -74.5 -12s-34.333 -18.833 -46 -32.5s-21.5 -28.834 -29.5 -45.501l-98 46c12 34.667 28.167 68.334 48.5 101.001
s46.333 59.667 78 81s70.167 32 115.5 32c37.333 0 68.666 -6.66699 93.999 -20s47.666 -29 66.999 -47s38.833 -33.667 58.5 -47s41.834 -20 66.501 -20c26 0 48.5 3.83301 67.5 11.5s34.833 18.334 47.5 32.001s23 29.167 31 46.5l102 -52
c-8 -38 -23.667 -72.833 -47 -104.5s-52 -57.167 -86 -76.5s-71 -29 -111 -29z" />
    <glyph glyph-name="Odieresis" unicode="&#xd6;" horiz-adv-x="1528" 
d="M758 -16c-138 -2.66699 -257.333 28.832 -358 94.499s-177.667 157 -231 274s-78.333 250.833 -75 401.5c3.33301 166 36.166 304.333 98.499 415s145.333 193.667 249 249s219.167 83.333 346.5 84c132 0.666992 247 -30.166 345 -92.499s173.5 -150.5 226.5 -264.5
s77.833 -247.667 74.5 -401c-3.33301 -166 -34.666 -304.833 -93.999 -416.5s-139.333 -196.167 -240 -253.5s-214.667 -87.333 -342 -90zM764 163.999c132 0 237 49.834 315 149.501s117 246.5 117 440.5c0 102.667 -15.5 197.167 -46.5 283.5
s-77.333 155.666 -139 207.999s-138.5 78.5 -230.5 78.5c-80.667 0 -155 -20.667 -223 -62s-122.5 -105 -163.5 -191s-61.5 -196.333 -61.5 -331c0 -102 16.167 -196.833 48.5 -284.5s80.5 -158.167 144.5 -211.5s143.667 -80 239 -80zM532 1618
c-38 0 -70.667 12.168 -98 36.501s-41 57.166 -41 98.499c0 44.667 16.5 82 49.5 112s70.167 45 111.5 45c47.333 0 82.333 -13 105 -39s34 -58.667 34 -98c0 -46 -16 -83.333 -48 -112s-69.667 -43 -113 -43zM1021 1618c-38.667 0 -71.333 12.168 -98 36.501
s-40 57.166 -40 98.499c0 44.667 16.5 82 49.5 112s69.5 45 109.5 45c47.333 0 82.666 -13 105.999 -39s35 -58.667 35 -98c0 -46 -16.167 -83.333 -48.5 -112s-70.166 -43 -113.499 -43z" />
    <glyph glyph-name="multiply" unicode="&#xd7;" horiz-adv-x="1340" 
d="M217 423l333 333l-333 343l135 132l319 -350l319 350l135 -132l-333 -341l333 -335l-135 -132l-319 338l-319 -338z" />
    <glyph glyph-name="Oslash" unicode="&#xd8;" horiz-adv-x="1537" 
d="M359 -199l-117 35l938 1869l116 -35zM762 -16c-138 -2.66699 -257.333 28.832 -358 94.499s-177.667 157 -231 274s-78.333 250.5 -75 400.5c3.33301 166.667 36.166 305.334 98.499 416.001s145.333 193.667 249 249s219.167 83.333 346.5 84
c132.667 0.666992 248 -30.166 346 -92.499s173.5 -150.5 226.5 -264.5s77.833 -247.667 74.5 -401c-3.33301 -166.667 -34.666 -305.834 -93.999 -417.501s-139.333 -196 -240 -253s-215 -86.833 -343 -89.5zM768 162.999c131.333 0 236.336 50.001 315.003 150.001
s118 247 118 441c0 102.667 -15.5 197.167 -46.5 283.5s-77.333 155.666 -139 207.999s-138.834 78.5 -231.501 78.5c-80.667 0 -155 -20.667 -223 -62s-122.667 -105 -164 -191s-62 -196.333 -62 -331c0 -101.333 16.167 -196 48.5 -284s80.666 -158.833 144.999 -212.5
s144.166 -80.5 239.499 -80.5z" />
    <glyph glyph-name="Ugrave" unicode="&#xd9;" horiz-adv-x="1439" 
d="M727 -16c-138 0 -249.169 25.334 -333.502 76.001s-145.333 123.667 -183 219s-56.5 209.666 -56.5 342.999l1 864h234l-2 -819c0 -132.667 13.5 -235 40.5 -307s66.333 -122 118 -150s114.5 -42 188.5 -42c66.667 0 123.834 14.167 171.501 42.5
s84.334 78.5 110.001 150.5s38.5 174 38.5 306v819h232v-868c0 -204 -46 -360.667 -138 -470s-232.333 -164 -421 -164zM859.998 1715l-99 -96.002c-23.333 8.66699 -52.5 23.334 -87.5 44.001s-71.5 44.667 -109.5 72s-73.5 54.833 -106.5 82.5
s-59.167 52.834 -78.5 75.501l156 130c1.33301 -4 12.833 -16.833 34.5 -38.5l79.5 -76.5l94.5 -87l80.5 -73c22 -20 34 -31 36 -33z" />
    <glyph glyph-name="Uacute" unicode="&#xda;" horiz-adv-x="1439" 
d="M727 -16c-138 0 -249.169 25.334 -333.502 76.001s-145.333 123.667 -183 219s-56.5 209.666 -56.5 342.999l1 864h234l-2 -819c0 -132.667 13.5 -235 40.5 -307s66.333 -122 118 -150s114.5 -42 188.5 -42c66.667 0 123.834 14.167 171.501 42.5
s84.334 78.5 110.001 150.5s38.5 174 38.5 306v819h232v-868c0 -204 -46 -360.667 -138 -470s-232.333 -164 -421 -164zM671.998 1619l-99.9971 93c1.33301 1.33301 13.333 12.166 36 32.499l82 74.5l96.5 88.5l81.5 76.5c22 21.333 33.667 33.333 35 36l151 -130
c-22.667 -23.333 -49.834 -48.666 -81.501 -75.999s-65.334 -54 -101.001 -80s-70.834 -49.167 -105.501 -69.5s-66 -35.5 -94 -45.5z" />
    <glyph glyph-name="Ucircumflex" unicode="&#xdb;" horiz-adv-x="1439" 
d="M727 -16c-138 0 -249.169 25.334 -333.502 76.001s-145.333 123.667 -183 219s-56.5 209.666 -56.5 342.999l1 864h234l-2 -819c0 -132.667 13.5 -235 40.5 -307s66.333 -122 118 -150s114.5 -42 188.5 -42c66.667 0 123.834 14.167 171.501 42.5
s84.334 78.5 110.001 150.5s38.5 174 38.5 306v819h232v-868c0 -204 -46 -360.667 -138 -470s-232.333 -164 -421 -164zM513.998 1614l-138 61l256 296h198l258 -294l-144 -63l-214 197z" />
    <glyph glyph-name="Udieresis" unicode="&#xdc;" horiz-adv-x="1439" 
d="M727 -16c-138 0 -249.169 25.334 -333.502 76.001s-145.333 123.667 -183 219s-56.5 209.666 -56.5 342.999l1 864h234l-2 -819c0 -132.667 13.5 -235 40.5 -307s66.333 -122 118 -150s114.5 -42 188.5 -42c66.667 0 123.834 14.167 171.501 42.5
s84.334 78.5 110.001 150.5s38.5 174 38.5 306v819h232v-868c0 -204 -46 -360.667 -138 -470s-232.333 -164 -421 -164zM475.998 1618c-38 0 -70.667 12.168 -98 36.501s-41 57.166 -41 98.499c0 44.667 16.5 82 49.5 112s70.167 45 111.5 45c47.333 0 82.333 -13 105 -39
s34 -58.667 34 -98c0 -46 -16 -83.333 -48 -112s-69.667 -43 -113 -43zM964.998 1618c-38.667 0 -71.333 12.168 -98 36.501s-40 57.166 -40 98.499c0 44.667 16.5 82 49.5 112s69.5 45 109.5 45c47.333 0 82.666 -13 105.999 -39s35 -58.667 35 -98
c0 -46 -16.167 -83.333 -48.5 -112s-70.166 -43 -113.499 -43z" />
    <glyph glyph-name="Yacute" unicode="&#xdd;" horiz-adv-x="1230" 
d="M499 0v632l35 -129l-524 983h251l320 -632l62 -152h-36l52 152l315 632h247l-519 -983l35 126v-629h-238zM564 1619l-99.9971 93c1.33301 1.33301 13.333 12.166 36 32.499l82 74.5l96.5 88.5l81.5 76.5c22 21.333 33.667 33.333 35 36l151 -130
c-22.667 -23.333 -49.834 -48.666 -81.501 -75.999s-65.334 -54 -101.001 -80s-70.834 -49.167 -105.501 -69.5s-66 -35.5 -94 -45.5z" />
    <glyph glyph-name="Thorn" unicode="&#xde;" horiz-adv-x="1238" 
d="M592 274c-48 0 -87.835 1.33301 -119.502 4s-57.167 4 -76.5 4v176c32 -6 62.167 -9.5 90.5 -10.5s55.5 -1.5 81.5 -1.5c63.333 0 122.333 8 177 24s98.834 47.5 132.501 94.5s50.5 116.833 50.5 209.5c0 103.333 -30.167 178.5 -90.5 225.5s-151.5 68.5 -273.5 64.5
c-28 -0.666992 -56.667 -2.5 -86 -5.5s-56.666 -8.5 -81.999 -16.5l-68 176c44 1.33301 92.5 4.33301 145.5 9s108.5 7 166.5 7c167.333 0 295.833 -37.333 385.5 -112s134.5 -190 134.5 -346c0 -158.667 -48.333 -282 -145 -370s-237.667 -132 -423 -132zM175.998 0v1486
h236v-1486h-236z" />
    <glyph glyph-name="germandbls" unicode="&#xdf;" horiz-adv-x="1282" 
d="M186 0l-0.00292969 945.995c0 140 24.167 253.833 72.5 341.5s113.5 152 195.5 193s173.333 61.5 274 61.5c72 0 136.833 -10.667 194.5 -32s103.334 -52.5 137.001 -93.5s50.5 -91.167 50.5 -150.5c0 -43.333 -7.5 -81.166 -22.5 -113.499s-33.667 -61.166 -56 -86.499
s-44.666 -48.833 -66.999 -70.5s-41 -43.334 -56 -65.001s-22.5 -45.834 -22.5 -72.501c0 -38.667 11.833 -72.167 35.5 -100.5s53 -55.666 88 -81.999s70 -55.333 105 -87s64.333 -69.667 88 -114s35.5 -99.166 35.5 -164.499c0 -60.667 -11.167 -112 -33.5 -154
s-52.5 -75.5 -90.5 -100.5s-80.167 -43.167 -126.5 -54.5s-93.5 -17 -141.5 -17c-50.667 0 -96.5 3.33301 -137.5 10s-71.167 14 -90.5 22v178c17.333 -8.66699 44.833 -19.167 82.5 -31.5s84.834 -18.5 141.501 -18.5c25.333 0 50.5 4.33301 75.5 13s45.667 23.5 62 44.5
s24.5 49.833 24.5 86.5c-0.666992 42.667 -12 79.334 -34 110.001s-49.333 59.5 -82 86.5s-65.167 55.667 -97.5 86s-59.5 66 -81.5 107s-33 91.833 -33 152.5c0 45.333 10.167 84.333 30.5 117s43.833 62.834 70.5 90.501s50.167 57 70.5 88s30.5 67.833 30.5 110.5
c0 48 -16 84.333 -48 109s-78 37 -138 37c-54 0 -101.667 -13.667 -143 -41s-73.833 -74.166 -97.5 -140.499s-35.5 -157.833 -35.5 -274.5v-926h-230zM49.9971 943.995v136l166 40l32 -102l-54 -74h-144z" />
    <glyph glyph-name="agrave" unicode="&#xe0;" horiz-adv-x="1118" 
d="M436 -16c-66.667 0 -125.834 13.1709 -177.501 39.5039s-92.334 63.666 -122.001 111.999s-44.5 105.5 -44.5 171.5c0 71.333 19.167 131.833 57.5 181.5s89.833 88.5 154.5 116.5c42.667 17.333 89 31.166 139 41.499s100 17.666 150 21.999s96.333 6.5 139 6.5l48 -61
l-48 -81c-26 0 -57.167 -1.83301 -93.5 -5.5s-72.166 -9.33398 -107.499 -17.001s-65.333 -17.5 -90 -29.5c-34 -15.333 -62.333 -35 -85 -59s-34 -57.333 -34 -100c0 -56 15.5 -98.333 46.5 -127s77.167 -43 138.5 -43c31.333 0 63 4.66699 95 14s59.833 20 83.5 32
s39.167 22.333 46.5 31l46 -49l-33 -86c-29.333 -26.667 -71.666 -51.667 -126.999 -75s-116 -35 -182 -35zM963 0.00390625l-218 -0.00390625v166h-13v614c0 65.333 -17.167 108.5 -51.5 129.5s-83.166 31.5 -146.499 31.5c-42 0 -85.333 -4.16699 -130 -12.5
s-85.667 -18.666 -123 -30.999s-66 -24.833 -86 -37.5l-54 166c15.333 9.33301 44.833 22.333 88.5 39s94.667 31.834 153 45.501s116.166 20.5 173.499 20.5c83.333 0 155.5 -9.66699 216.5 -29s108 -55.166 141 -107.499s49.5 -128.166 49.5 -227.499v-767zM635 1346
l-94.999 -89.001c-20 9.33301 -47.667 27.5 -83 54.5s-72.666 58.333 -111.999 94s-75.833 71.667 -109.5 108s-58.834 67.833 -75.501 94.5l145 132c29.333 -41.333 62.666 -84.666 99.999 -129.999l115.5 -135.5z" />
    <glyph glyph-name="aacute" unicode="&#xe1;" horiz-adv-x="1118" 
d="M436 -16c-66.667 0 -125.834 13.1709 -177.501 39.5039s-92.334 63.666 -122.001 111.999s-44.5 105.5 -44.5 171.5c0 71.333 19.167 131.833 57.5 181.5s89.833 88.5 154.5 116.5c42.667 17.333 89 31.166 139 41.499s100 17.666 150 21.999s96.333 6.5 139 6.5l48 -61
l-48 -81c-26 0 -57.167 -1.83301 -93.5 -5.5s-72.166 -9.33398 -107.499 -17.001s-65.333 -17.5 -90 -29.5c-34 -15.333 -62.333 -35 -85 -59s-34 -57.333 -34 -100c0 -56 15.5 -98.333 46.5 -127s77.167 -43 138.5 -43c31.333 0 63 4.66699 95 14s59.833 20 83.5 32
s39.167 22.333 46.5 31l46 -49l-33 -86c-29.333 -26.667 -71.666 -51.667 -126.999 -75s-116 -35 -182 -35zM963 0.00390625l-218 -0.00390625v166h-13v614c0 65.333 -17.167 108.5 -51.5 129.5s-83.166 31.5 -146.499 31.5c-42 0 -85.333 -4.16699 -130 -12.5
s-85.667 -18.666 -123 -30.999s-66 -24.833 -86 -37.5l-54 166c15.333 9.33301 44.833 22.333 88.5 39s94.667 31.834 153 45.501s116.166 20.5 173.499 20.5c83.333 0 155.5 -9.66699 216.5 -29s108 -55.166 141 -107.499s49.5 -128.166 49.5 -227.499v-767zM487 1257
l-105 86.998l114.5 128.5l114.5 140.5c37.333 48 71.333 95.333 102 142l150 -124c-10 -18 -27 -41.333 -51 -70s-51.333 -59.167 -82 -91.5s-62 -63.666 -94 -93.999s-61.167 -56.166 -87.5 -77.499s-46.833 -35 -61.5 -41z" />
    <glyph glyph-name="acircumflex" unicode="&#xe2;" horiz-adv-x="1118" 
d="M436 -16c-66.667 0 -125.834 13.1709 -177.501 39.5039s-92.334 63.666 -122.001 111.999s-44.5 105.5 -44.5 171.5c0 71.333 19.167 131.833 57.5 181.5s89.833 88.5 154.5 116.5c42.667 17.333 89 31.166 139 41.499s100 17.666 150 21.999s96.333 6.5 139 6.5l48 -61
l-48 -81c-26 0 -57.167 -1.83301 -93.5 -5.5s-72.166 -9.33398 -107.499 -17.001s-65.333 -17.5 -90 -29.5c-34 -15.333 -62.333 -35 -85 -59s-34 -57.333 -34 -100c0 -56 15.5 -98.333 46.5 -127s77.167 -43 138.5 -43c31.333 0 63 4.66699 95 14s59.833 20 83.5 32
s39.167 22.333 46.5 31l46 -49l-33 -86c-29.333 -26.667 -71.666 -51.667 -126.999 -75s-116 -35 -182 -35zM963 0.00390625l-218 -0.00390625v166h-13v614c0 65.333 -17.167 108.5 -51.5 129.5s-83.166 31.5 -146.499 31.5c-42 0 -85.333 -4.16699 -130 -12.5
s-85.667 -18.666 -123 -30.999s-66 -24.833 -86 -37.5l-54 166c15.333 9.33301 44.833 22.333 88.5 39s94.667 31.834 153 45.501s116.166 20.5 173.499 20.5c83.333 0 155.5 -9.66699 216.5 -29s108 -55.166 141 -107.499s49.5 -128.166 49.5 -227.499v-767zM289 1241
l-110 60l280 342h181l271 -342l-120 -59l-246 215z" />
    <glyph glyph-name="atilde" unicode="&#xe3;" horiz-adv-x="1118" 
d="M436 -16c-66.667 0 -125.834 13.1709 -177.501 39.5039s-92.334 63.666 -122.001 111.999s-44.5 105.5 -44.5 171.5c0 71.333 19.167 131.833 57.5 181.5s89.833 88.5 154.5 116.5c42.667 17.333 89 31.166 139 41.499s100 17.666 150 21.999s96.333 6.5 139 6.5l48 -61
l-48 -81c-26 0 -57.167 -1.83301 -93.5 -5.5s-72.166 -9.33398 -107.499 -17.001s-65.333 -17.5 -90 -29.5c-34 -15.333 -62.333 -35 -85 -59s-34 -57.333 -34 -100c0 -56 15.5 -98.333 46.5 -127s77.167 -43 138.5 -43c31.333 0 63 4.66699 95 14s59.833 20 83.5 32
s39.167 22.333 46.5 31l46 -49l-33 -86c-29.333 -26.667 -71.666 -51.667 -126.999 -75s-116 -35 -182 -35zM963 0.00390625l-218 -0.00390625v166h-13v614c0 65.333 -17.167 108.5 -51.5 129.5s-83.166 31.5 -146.499 31.5c-42 0 -85.333 -4.16699 -130 -12.5
s-85.667 -18.666 -123 -30.999s-66 -24.833 -86 -37.5l-54 166c15.333 9.33301 44.833 22.333 88.5 39s94.667 31.834 153 45.501s116.166 20.5 173.499 20.5c83.333 0 155.5 -9.66699 216.5 -29s108 -55.166 141 -107.499s49.5 -128.166 49.5 -227.499v-767zM676 1291
c-36 0 -65.833 7 -89.5 21s-44.334 30.167 -62.001 48.5s-35.167 34.5 -52.5 48.5s-37 21 -59 21c-28 0 -50.667 -4 -68 -12s-31.333 -18.667 -42 -32s-20 -28.333 -28 -45l-90 46c12 34.667 27.5 68 46.5 100s43.333 58.5 73 79.5s66.5 31.5 110.5 31.5
c34.667 0 63.667 -6.83301 87 -20.5s43.833 -29.667 61.5 -48s35.167 -34.333 52.5 -48s37 -20.5 59 -20.5c24.667 0 45.667 3.83301 63 11.5s31.833 18.167 43.5 31.5s21.167 28.333 28.5 45l94 -52c-8 -38 -22.667 -72.5 -44 -103.5s-47.666 -55.833 -78.999 -74.5
s-66.333 -28 -105 -28z" />
    <glyph glyph-name="adieresis" unicode="&#xe4;" horiz-adv-x="1118" 
d="M436 -16c-66.667 0 -125.834 13.1709 -177.501 39.5039s-92.334 63.666 -122.001 111.999s-44.5 105.5 -44.5 171.5c0 71.333 19.167 131.833 57.5 181.5s89.833 88.5 154.5 116.5c42.667 17.333 89 31.166 139 41.499s100 17.666 150 21.999s96.333 6.5 139 6.5l48 -61
l-48 -81c-26 0 -57.167 -1.83301 -93.5 -5.5s-72.166 -9.33398 -107.499 -17.001s-65.333 -17.5 -90 -29.5c-34 -15.333 -62.333 -35 -85 -59s-34 -57.333 -34 -100c0 -56 15.5 -98.333 46.5 -127s77.167 -43 138.5 -43c31.333 0 63 4.66699 95 14s59.833 20 83.5 32
s39.167 22.333 46.5 31l46 -49l-33 -86c-29.333 -26.667 -71.666 -51.667 -126.999 -75s-116 -35 -182 -35zM963 0.00390625l-218 -0.00390625v166h-13v614c0 65.333 -17.167 108.5 -51.5 129.5s-83.166 31.5 -146.499 31.5c-42 0 -85.333 -4.16699 -130 -12.5
s-85.667 -18.666 -123 -30.999s-66 -24.833 -86 -37.5l-54 166c15.333 9.33301 44.833 22.333 88.5 39s94.667 31.834 153 45.501s116.166 20.5 173.499 20.5c83.333 0 155.5 -9.66699 216.5 -29s108 -55.166 141 -107.499s49.5 -128.166 49.5 -227.499v-767zM309 1302
c-37.333 0 -68.999 12 -94.999 36s-39 56.333 -39 97c0 42.667 16.5 78.667 49.5 108s68.833 44 107.5 44c45.333 0 78.666 -13 99.999 -39s32 -57.667 32 -95c0 -44.667 -15.5 -81 -46.5 -109s-67.167 -42 -108.5 -42zM761.001 1302c-36.667 0 -68.167 12 -94.5 36
s-39.5 56.333 -39.5 97c0 42.667 16.333 78.667 49 108s68.667 44 108 44c46 0 79.5 -13 100.5 -39s31.5 -57.667 31.5 -95c0 -44.667 -15.5 -81 -46.5 -109s-67.167 -42 -108.5 -42z" />
    <glyph glyph-name="aring" unicode="&#xe5;" horiz-adv-x="1118" 
d="M436 -16c-66.667 0 -125.834 13.1709 -177.501 39.5039s-92.334 63.666 -122.001 111.999s-44.5 105.5 -44.5 171.5c0 71.333 19.167 131.833 57.5 181.5s89.833 88.5 154.5 116.5c42.667 17.333 89 31.166 139 41.499s100 17.666 150 21.999s96.333 6.5 139 6.5l48 -61
l-48 -81c-26 0 -57.167 -1.83301 -93.5 -5.5s-72.166 -9.33398 -107.499 -17.001s-65.333 -17.5 -90 -29.5c-34 -15.333 -62.333 -35 -85 -59s-34 -57.333 -34 -100c0 -56 15.5 -98.333 46.5 -127s77.167 -43 138.5 -43c31.333 0 63 4.66699 95 14s59.833 20 83.5 32
s39.167 22.333 46.5 31l46 -49l-33 -86c-29.333 -26.667 -71.666 -51.667 -126.999 -75s-116 -35 -182 -35zM963 0.00390625l-218 -0.00390625v166h-13v614c0 65.333 -17.167 108.5 -51.5 129.5s-83.166 31.5 -146.499 31.5c-42 0 -85.333 -4.16699 -130 -12.5
s-85.667 -18.666 -123 -30.999s-66 -24.833 -86 -37.5l-54 166c15.333 9.33301 44.833 22.333 88.5 39s94.667 31.834 153 45.501s116.166 20.5 173.499 20.5c83.333 0 155.5 -9.66699 216.5 -29s108 -55.166 141 -107.499s49.5 -128.166 49.5 -227.499v-767zM541 1294
c-96 0 -172.499 24.999 -229.499 74.999s-85.167 117 -84.5 201c0.666992 62.667 16.667 113.167 48 151.5s71.166 66.333 119.499 84s98.166 26.5 149.499 26.5c96.667 0 174.334 -22.667 233.001 -68s87.334 -110.666 86.001 -195.999
c-0.666992 -62.667 -16 -114.167 -46 -154.5s-69.333 -70.333 -118 -90s-101.334 -29.5 -158.001 -29.5zM541.001 1422c48.667 -0.666992 88.334 10.167 119.001 32.5s46 59.833 46 112.5c0 45.333 -15.833 80 -47.5 104s-70.834 36 -117.501 36
c-26 0 -51 -4.16699 -75 -12.5s-43.667 -22.333 -59 -42s-23 -47.167 -23 -82.5c0 -43.333 14.167 -78.5 42.5 -105.5s66.5 -41.167 114.5 -42.5z" />
    <glyph glyph-name="ae" unicode="&#xe6;" horiz-adv-x="1750" 
d="M1236 -16c-160 0 -283.337 48.999 -370.004 146.999s-130 240.333 -130 427c0 108 19.167 204.667 57.5 290s95 153 170 203s167.167 75.667 276.5 77c56 1.33301 108.667 -6.5 158 -23.5s92.833 -43.167 130.5 -78.5s67.834 -79.666 90.501 -132.999s35 -116 37 -188
c0 -40.667 -0.5 -77.834 -1.5 -111.501s-4.5 -63.167 -10.5 -88.5h-772l18 147h550c3.33301 54 0 104.833 -10 152.5s-30.667 86.334 -62 116.001s-77.666 44.5 -138.999 44.5c-52 0 -98.667 -14.5 -140 -43.5s-73.166 -78 -95.499 -147s-31.833 -163.167 -28.5 -282.5
c4 -86 20.833 -153.167 50.5 -201.5s68.834 -82.333 117.501 -102s103 -29.5 163 -29.5c25.333 0 56.5 2.66699 93.5 8s73 12.5 108 21.5s61.833 19.167 80.5 30.5l42 -133c-24 -20 -57.167 -37.667 -99.5 -53s-88.5 -27.333 -138.5 -36s-98.667 -13 -146 -13z
M92.9961 301.999c0 72 20.165 133.334 60.498 184.001s91.833 90 154.5 118c63.333 26.667 132.5 45.167 207.5 55.5s147.833 15.5 218.5 15.5l47 -61l-44 -81c-53.333 0 -106.5 -4.33301 -159.5 -13s-97.5 -21.667 -133.5 -39c-34 -15.333 -62.167 -35 -84.5 -59
s-33.5 -58 -33.5 -102c0 -54.667 14.833 -96.334 44.5 -125.001s74.834 -43 135.501 -43c36 0 73.333 6 112 18s73.667 28.5 105 49.5s54.333 44.5 69 70.5l46 -38l31 -64c-54 -72.667 -117.667 -124.834 -191 -156.501s-151.666 -47.5 -234.999 -47.5
c-65.333 0 -124.5 12.5 -177.5 37.5s-95 61.333 -126 109s-46.5 104.834 -46.5 171.501zM203.994 873l-55.999 152.998c14.667 8 44.334 20.5 89.001 37.5s97.167 32.5 157.5 46.5s120.833 21 181.5 21c77.333 0 143.166 -9.66699 197.499 -29
s95.666 -55.166 123.999 -107.499s42.5 -128.166 42.5 -227.499v-187h-206v198c0 50.667 -7.66699 88.667 -23 114s-38.833 42.333 -70.5 51s-72.167 13 -121.5 13c-33.333 0 -71 -4.5 -113 -13.5s-81.5 -19.833 -118.5 -32.5s-64.833 -25 -83.5 -37z" />
    <glyph glyph-name="ccedilla" unicode="&#xe7;" horiz-adv-x="976" 
d="M80 544c0 110 19.9971 208.999 59.9971 296.999s100 157.833 180 209.5s180 77.5 300 77.5c70 0 129.333 -6.33301 178 -19s82 -25 100 -37l-36 -182c-28 19.333 -61.667 33.833 -101 43.5s-87 14.5 -143 14.5c-50 0 -98.333 -12.167 -145 -36.5
s-85.667 -63.166 -117 -116.499s-48.666 -123.666 -51.999 -210.999c-2.66699 -92 9.5 -169.5 36.5 -232.5s64.333 -110.667 112 -143s100.834 -48.5 159.501 -48.5c55.333 0 106.5 7 153.5 21s82.5 28.333 106.5 43l44 -134c-34 -32 -82 -57.667 -144 -77
s-128 -29 -198 -29c-106 0 -195.667 24.667 -269 74s-129.166 116.166 -167.499 200.499s-57.5 179.5 -57.5 285.5zM207.997 -426.001l13.998 142.002c9.33301 -4.66699 21.333 -7.83398 36 -9.50098s29.334 -2.5 44.001 -2.5c40 0 71.833 11.167 95.5 33.5
s35.834 59.833 36.501 112.5c1.33301 43.333 -1 79.5 -7 108.5s-13.667 52.833 -23 71.5l90 4l44 -4c13.333 -15.333 24.166 -35.166 32.499 -59.499s14.333 -52 18 -83s5.5 -64.167 5.5 -99.5c0 -56 -11.667 -101.833 -35 -137.5s-53.166 -62 -89.499 -79
s-73.5 -25.5 -111.5 -25.5c-18.667 0 -38.167 1.16699 -58.5 3.5s-38.833 5.66602 -55.5 9.99902s-28.667 9.16602 -36 14.499z" />
    <glyph glyph-name="egrave" unicode="&#xe8;" horiz-adv-x="1116" 
d="M598 -16c-160 0 -283.332 50.666 -369.999 151.999s-130 242 -130 422c0 108 19.167 204.667 57.5 290s95 153 170 203s167.167 75.667 276.5 77c56 1.33301 108.667 -6.66699 158 -24s93 -43.5 131 -78.5s68.167 -79.167 90.5 -132.5s34.5 -115.666 36.5 -186.999
c0 -42 -0.333008 -79.5 -1 -112.5s-3.66699 -62.167 -9 -87.5h-776l20 146h550c3.33301 53.333 0.166016 103.833 -9.50098 151.5s-30.334 86.334 -62.001 116.001s-78.5 44.5 -140.5 44.5c-52 0 -98.667 -14.5 -140 -43.5s-73.333 -77.833 -96 -146.5
s-32 -162.667 -28 -282c4 -84 21 -150.333 51 -199s69.333 -83.334 118 -104.001s103 -31 163 -31c25.333 0 56.333 2.83301 93 8.5s72.167 13 106.5 22s60.5 18.833 78.5 29.5l44 -132c-24.667 -20 -58.167 -37.667 -100.5 -53s-88.166 -27.333 -137.499 -36
s-97.333 -13 -144 -13zM684.001 1346l-94.999 -89.001c-20 9.33301 -47.667 27.5 -83 54.5s-72.666 58.333 -111.999 94s-75.833 71.667 -109.5 108s-58.834 67.833 -75.501 94.5l145 132c29.333 -41.333 62.666 -84.666 99.999 -129.999l115.5 -135.5z" />
    <glyph glyph-name="eacute" unicode="&#xe9;" horiz-adv-x="1116" 
d="M598 -16c-160 0 -283.332 50.666 -369.999 151.999s-130 242 -130 422c0 108 19.167 204.667 57.5 290s95 153 170 203s167.167 75.667 276.5 77c56 1.33301 108.667 -6.66699 158 -24s93 -43.5 131 -78.5s68.167 -79.167 90.5 -132.5s34.5 -115.666 36.5 -186.999
c0 -42 -0.333008 -79.5 -1 -112.5s-3.66699 -62.167 -9 -87.5h-776l20 146h550c3.33301 53.333 0.166016 103.833 -9.50098 151.5s-30.334 86.334 -62.001 116.001s-78.5 44.5 -140.5 44.5c-52 0 -98.667 -14.5 -140 -43.5s-73.333 -77.833 -96 -146.5
s-32 -162.667 -28 -282c4 -84 21 -150.333 51 -199s69.333 -83.334 118 -104.001s103 -31 163 -31c25.333 0 56.333 2.83301 93 8.5s72.167 13 106.5 22s60.5 18.833 78.5 29.5l44 -132c-24.667 -20 -58.167 -37.667 -100.5 -53s-88.166 -27.333 -137.499 -36
s-97.333 -13 -144 -13zM536.001 1257l-105 86.998l114.5 128.5l114.5 140.5c37.333 48 71.333 95.333 102 142l150 -124c-10 -18 -27 -41.333 -51 -70s-51.333 -59.167 -82 -91.5s-62 -63.666 -94 -93.999s-61.167 -56.166 -87.5 -77.499s-46.833 -35 -61.5 -41z" />
    <glyph glyph-name="ecircumflex" unicode="&#xea;" horiz-adv-x="1116" 
d="M598 -16c-160 0 -283.332 50.666 -369.999 151.999s-130 242 -130 422c0 108 19.167 204.667 57.5 290s95 153 170 203s167.167 75.667 276.5 77c56 1.33301 108.667 -6.66699 158 -24s93 -43.5 131 -78.5s68.167 -79.167 90.5 -132.5s34.5 -115.666 36.5 -186.999
c0 -42 -0.333008 -79.5 -1 -112.5s-3.66699 -62.167 -9 -87.5h-776l20 146h550c3.33301 53.333 0.166016 103.833 -9.50098 151.5s-30.334 86.334 -62.001 116.001s-78.5 44.5 -140.5 44.5c-52 0 -98.667 -14.5 -140 -43.5s-73.333 -77.833 -96 -146.5
s-32 -162.667 -28 -282c4 -84 21 -150.333 51 -199s69.333 -83.334 118 -104.001s103 -31 163 -31c25.333 0 56.333 2.83301 93 8.5s72.167 13 106.5 22s60.5 18.833 78.5 29.5l44 -132c-24.667 -20 -58.167 -37.667 -100.5 -53s-88.166 -27.333 -137.499 -36
s-97.333 -13 -144 -13zM338.001 1241l-110 60l280 342h181l271 -342l-120 -59l-246 215z" />
    <glyph glyph-name="edieresis" unicode="&#xeb;" horiz-adv-x="1116" 
d="M598 -16c-160 0 -283.332 50.666 -369.999 151.999s-130 242 -130 422c0 108 19.167 204.667 57.5 290s95 153 170 203s167.167 75.667 276.5 77c56 1.33301 108.667 -6.66699 158 -24s93 -43.5 131 -78.5s68.167 -79.167 90.5 -132.5s34.5 -115.666 36.5 -186.999
c0 -42 -0.333008 -79.5 -1 -112.5s-3.66699 -62.167 -9 -87.5h-776l20 146h550c3.33301 53.333 0.166016 103.833 -9.50098 151.5s-30.334 86.334 -62.001 116.001s-78.5 44.5 -140.5 44.5c-52 0 -98.667 -14.5 -140 -43.5s-73.333 -77.833 -96 -146.5
s-32 -162.667 -28 -282c4 -84 21 -150.333 51 -199s69.333 -83.334 118 -104.001s103 -31 163 -31c25.333 0 56.333 2.83301 93 8.5s72.167 13 106.5 22s60.5 18.833 78.5 29.5l44 -132c-24.667 -20 -58.167 -37.667 -100.5 -53s-88.166 -27.333 -137.499 -36
s-97.333 -13 -144 -13zM358.001 1302c-37.333 0 -68.999 12 -94.999 36s-39 56.333 -39 97c0 42.667 16.5 78.667 49.5 108s68.833 44 107.5 44c45.333 0 78.666 -13 99.999 -39s32 -57.667 32 -95c0 -44.667 -15.5 -81 -46.5 -109s-67.167 -42 -108.5 -42zM810.002 1302
c-36.667 0 -68.167 12 -94.5 36s-39.5 56.333 -39.5 97c0 42.667 16.333 78.667 49 108s68.667 44 108 44c46 0 79.5 -13 100.5 -39s31.5 -57.667 31.5 -95c0 -44.667 -15.5 -81 -46.5 -109s-67.167 -42 -108.5 -42z" />
    <glyph glyph-name="igrave" unicode="&#xec;" horiz-adv-x="590" 
d="M180 0v1112h230v-1112h-230zM384 1346l-94.999 -89.001c-20 9.33301 -47.667 27.5 -83 54.5s-72.666 58.333 -111.999 94s-75.833 71.667 -109.5 108s-58.834 67.833 -75.501 94.5l145 132c29.333 -41.333 62.666 -84.666 99.999 -129.999l115.5 -135.5z" />
    <glyph glyph-name="iacute" unicode="&#xed;" horiz-adv-x="590" 
d="M180 0v1112h230v-1112h-230zM236 1257l-105 86.998l114.5 128.5l114.5 140.5c37.333 48 71.333 95.333 102 142l150 -124c-10 -18 -27 -41.333 -51 -70s-51.333 -59.167 -82 -91.5s-62 -63.666 -94 -93.999s-61.167 -56.166 -87.5 -77.499s-46.833 -35 -61.5 -41z" />
    <glyph glyph-name="icircumflex" unicode="&#xee;" horiz-adv-x="590" 
d="M180 0v1112h230v-1112h-230zM38 1241l-110 60l280 342h181l271 -342l-120 -59l-246 215z" />
    <glyph glyph-name="idieresis" unicode="&#xef;" horiz-adv-x="590" 
d="M180 0v1112h230v-1112h-230zM58 1302c-37.333 0 -68.999 12 -94.999 36s-39 56.333 -39 97c0 42.667 16.5 78.667 49.5 108s68.833 44 107.5 44c45.333 0 78.666 -13 99.999 -39s32 -57.667 32 -95c0 -44.667 -15.5 -81 -46.5 -109s-67.167 -42 -108.5 -42zM510.001 1302
c-36.667 0 -68.167 12 -94.5 36s-39.5 56.333 -39.5 97c0 42.667 16.333 78.667 49 108s68.667 44 108 44c46 0 79.5 -13 100.5 -39s31.5 -57.667 31.5 -95c0 -44.667 -15.5 -81 -46.5 -109s-67.167 -42 -108.5 -42z" />
    <glyph glyph-name="eth" unicode="&#xf0;" horiz-adv-x="1180" 
d="M600 -26c-102.667 -1.33301 -192.17 21.1699 -268.503 67.5029s-135.333 112.166 -177 197.499s-62.5 185.666 -62.5 300.999c0 121.333 20.833 225.833 62.5 313.5s100.334 155 176.001 202s163.834 70.167 264.501 69.5c60.667 0 113 -12 157 -36s79.667 -55 107 -93
s46 -78.333 56 -121l-81 44c-14.667 106 -50.667 202.833 -108 290.5s-126 161.834 -206 222.501c-8 5.33301 -15.833 11.166 -23.5 17.499s-15.167 11.833 -22.5 16.5c-40 28.667 -81.667 54.667 -125 78s-87.666 42.666 -132.999 57.999l52 131
c63.333 -20 122.333 -43 177 -69s106.334 -55.333 155.001 -88l30.5 -20.5l28.5 -20.5c94.667 -68 175.167 -149.833 241.5 -245.5s117 -201.667 152 -318s52.5 -239.833 52.5 -370.5c0 -138.667 -21.333 -254.334 -64 -347.001s-101.834 -162.167 -177.501 -208.5
s-163.5 -70.166 -263.5 -71.499zM608.997 136.003c53.333 0 99.8359 16.501 139.503 49.501s70.5 80.167 92.5 141.5s33 134 33 218c0 32 0.166992 63.167 0.5 93.5s0.166016 60.833 -0.500977 91.5s-2.33398 62 -5.00098 94c-8.66699 29.333 -33.834 58.666 -75.501 87.999
s-103.5 44 -185.5 44c-95.333 0 -166.5 -38 -213.5 -114s-70.5 -174.667 -70.5 -296c0 -120.667 24 -219.167 72 -295.5s119 -114.5 213 -114.5zM415 1268l-119 90l165 184l26 30c12 10.667 27.5 27 46.5 49l57.5 68.5l49 60.5l20 25l120 -90l-20 -23.5l-49.5 -57.5
l-60.5 -67c-20.667 -22 -38 -39 -52 -51l-24 -34z" />
    <glyph glyph-name="ntilde" unicode="&#xf1;" horiz-adv-x="1262" 
d="M172 0v1112h207l1 -118c27.333 18.667 61.833 38.334 103.5 59.001s86.667 38.334 135 53.001s96.5 22.667 144.5 24c119.333 3.33301 205 -27.5 257 -92.5s78 -179.167 78 -342.5v-695h-232v683c0 93.333 -12.5 160.333 -37.5 201s-79.167 58.667 -162.5 54
c-23.333 -0.666992 -50.166 -4.83398 -80.499 -12.501s-61.333 -18.667 -93 -33s-61.834 -32.5 -90.501 -54.5v-838h-230zM772 1291c-36 0 -65.833 7 -89.5 21s-44.334 30.167 -62.001 48.5s-35.167 34.5 -52.5 48.5s-37 21 -59 21c-28 0 -50.667 -4 -68 -12
s-31.333 -18.667 -42 -32s-20 -28.333 -28 -45l-90 46c12 34.667 27.5 68 46.5 100s43.333 58.5 73 79.5s66.5 31.5 110.5 31.5c34.667 0 63.667 -6.83301 87 -20.5s43.833 -29.667 61.5 -48s35.167 -34.333 52.5 -48s37 -20.5 59 -20.5c24.667 0 45.667 3.83301 63 11.5
s31.833 18.167 43.5 31.5s21.167 28.333 28.5 45l94 -52c-8 -38 -22.667 -72.5 -44 -103.5s-47.666 -55.833 -78.999 -74.5s-66.333 -28 -105 -28z" />
    <glyph glyph-name="ograve" unicode="&#xf2;" horiz-adv-x="1198" 
d="M589 -16c-90.667 0 -167.667 16 -231 48s-114.666 75.667 -153.999 131s-67.833 118.833 -85.5 190.5s-26.167 147.167 -25.5 226.5c2 119.333 25.667 219.666 71 300.999s106.666 142.833 183.999 184.5s164.333 62.5 261 62.5c121.333 0 218.5 -27.5 291.5 -82.5
s125.667 -127.667 158 -218s47.833 -188.166 46.5 -293.499c-2 -119.333 -25.5 -219.833 -70.5 -301.5s-106 -143.5 -183 -185.5s-164.5 -63 -262.5 -63zM595 147c91.333 -1.33301 160.169 33.166 206.502 103.499s69.5 167.833 69.5 292.5
c0 77.333 -9.33301 147.5 -28 210.5s-47.834 113.5 -87.501 151.5s-90.5 57.333 -152.5 58c-90.667 2 -159 -30.667 -205 -98s-69 -163.333 -69 -288c0 -77.333 9.33301 -148.333 28 -213s47.667 -116.667 87 -156s89.666 -59.666 150.999 -60.999zM699.003 1346
l-94.999 -89.001c-20 9.33301 -47.667 27.5 -83 54.5s-72.666 58.333 -111.999 94s-75.833 71.667 -109.5 108s-58.834 67.833 -75.501 94.5l145 132c29.333 -41.333 62.666 -84.666 99.999 -129.999l115.5 -135.5z" />
    <glyph glyph-name="oacute" unicode="&#xf3;" horiz-adv-x="1198" 
d="M589 -16c-90.667 0 -167.667 16 -231 48s-114.666 75.667 -153.999 131s-67.833 118.833 -85.5 190.5s-26.167 147.167 -25.5 226.5c2 119.333 25.667 219.666 71 300.999s106.666 142.833 183.999 184.5s164.333 62.5 261 62.5c121.333 0 218.5 -27.5 291.5 -82.5
s125.667 -127.667 158 -218s47.833 -188.166 46.5 -293.499c-2 -119.333 -25.5 -219.833 -70.5 -301.5s-106 -143.5 -183 -185.5s-164.5 -63 -262.5 -63zM595 147c91.333 -1.33301 160.169 33.166 206.502 103.499s69.5 167.833 69.5 292.5
c0 77.333 -9.33301 147.5 -28 210.5s-47.834 113.5 -87.501 151.5s-90.5 57.333 -152.5 58c-90.667 2 -159 -30.667 -205 -98s-69 -163.333 -69 -288c0 -77.333 9.33301 -148.333 28 -213s47.667 -116.667 87 -156s89.666 -59.666 150.999 -60.999zM551.003 1257
l-105 86.998l114.5 128.5l114.5 140.5c37.333 48 71.333 95.333 102 142l150 -124c-10 -18 -27 -41.333 -51 -70s-51.333 -59.167 -82 -91.5s-62 -63.666 -94 -93.999s-61.167 -56.166 -87.5 -77.499s-46.833 -35 -61.5 -41z" />
    <glyph glyph-name="ocircumflex" unicode="&#xf4;" horiz-adv-x="1198" 
d="M589 -16c-90.667 0 -167.667 16 -231 48s-114.666 75.667 -153.999 131s-67.833 118.833 -85.5 190.5s-26.167 147.167 -25.5 226.5c2 119.333 25.667 219.666 71 300.999s106.666 142.833 183.999 184.5s164.333 62.5 261 62.5c121.333 0 218.5 -27.5 291.5 -82.5
s125.667 -127.667 158 -218s47.833 -188.166 46.5 -293.499c-2 -119.333 -25.5 -219.833 -70.5 -301.5s-106 -143.5 -183 -185.5s-164.5 -63 -262.5 -63zM595 147c91.333 -1.33301 160.169 33.166 206.502 103.499s69.5 167.833 69.5 292.5
c0 77.333 -9.33301 147.5 -28 210.5s-47.834 113.5 -87.501 151.5s-90.5 57.333 -152.5 58c-90.667 2 -159 -30.667 -205 -98s-69 -163.333 -69 -288c0 -77.333 9.33301 -148.333 28 -213s47.667 -116.667 87 -156s89.666 -59.666 150.999 -60.999zM353.003 1241l-110 60
l280 342h181l271 -342l-120 -59l-246 215z" />
    <glyph glyph-name="otilde" unicode="&#xf5;" horiz-adv-x="1198" 
d="M589 -16c-90.667 0 -167.667 16 -231 48s-114.666 75.667 -153.999 131s-67.833 118.833 -85.5 190.5s-26.167 147.167 -25.5 226.5c2 119.333 25.667 219.666 71 300.999s106.666 142.833 183.999 184.5s164.333 62.5 261 62.5c121.333 0 218.5 -27.5 291.5 -82.5
s125.667 -127.667 158 -218s47.833 -188.166 46.5 -293.499c-2 -119.333 -25.5 -219.833 -70.5 -301.5s-106 -143.5 -183 -185.5s-164.5 -63 -262.5 -63zM595 147c91.333 -1.33301 160.169 33.166 206.502 103.499s69.5 167.833 69.5 292.5
c0 77.333 -9.33301 147.5 -28 210.5s-47.834 113.5 -87.501 151.5s-90.5 57.333 -152.5 58c-90.667 2 -159 -30.667 -205 -98s-69 -163.333 -69 -288c0 -77.333 9.33301 -148.333 28 -213s47.667 -116.667 87 -156s89.666 -59.666 150.999 -60.999zM740.003 1291
c-36 0 -65.833 7 -89.5 21s-44.334 30.167 -62.001 48.5s-35.167 34.5 -52.5 48.5s-37 21 -59 21c-28 0 -50.667 -4 -68 -12s-31.333 -18.667 -42 -32s-20 -28.333 -28 -45l-90 46c12 34.667 27.5 68 46.5 100s43.333 58.5 73 79.5s66.5 31.5 110.5 31.5
c34.667 0 63.667 -6.83301 87 -20.5s43.833 -29.667 61.5 -48s35.167 -34.333 52.5 -48s37 -20.5 59 -20.5c24.667 0 45.667 3.83301 63 11.5s31.833 18.167 43.5 31.5s21.167 28.333 28.5 45l94 -52c-8 -38 -22.667 -72.5 -44 -103.5s-47.666 -55.833 -78.999 -74.5
s-66.333 -28 -105 -28z" />
    <glyph glyph-name="odieresis" unicode="&#xf6;" horiz-adv-x="1198" 
d="M589 -16c-90.667 0 -167.667 16 -231 48s-114.666 75.667 -153.999 131s-67.833 118.833 -85.5 190.5s-26.167 147.167 -25.5 226.5c2 119.333 25.667 219.666 71 300.999s106.666 142.833 183.999 184.5s164.333 62.5 261 62.5c121.333 0 218.5 -27.5 291.5 -82.5
s125.667 -127.667 158 -218s47.833 -188.166 46.5 -293.499c-2 -119.333 -25.5 -219.833 -70.5 -301.5s-106 -143.5 -183 -185.5s-164.5 -63 -262.5 -63zM595 147c91.333 -1.33301 160.169 33.166 206.502 103.499s69.5 167.833 69.5 292.5
c0 77.333 -9.33301 147.5 -28 210.5s-47.834 113.5 -87.501 151.5s-90.5 57.333 -152.5 58c-90.667 2 -159 -30.667 -205 -98s-69 -163.333 -69 -288c0 -77.333 9.33301 -148.333 28 -213s47.667 -116.667 87 -156s89.666 -59.666 150.999 -60.999zM373.003 1302
c-37.333 0 -68.999 12 -94.999 36s-39 56.333 -39 97c0 42.667 16.5 78.667 49.5 108s68.833 44 107.5 44c45.333 0 78.666 -13 99.999 -39s32 -57.667 32 -95c0 -44.667 -15.5 -81 -46.5 -109s-67.167 -42 -108.5 -42zM825.004 1302c-36.667 0 -68.167 12 -94.5 36
s-39.5 56.333 -39.5 97c0 42.667 16.333 78.667 49 108s68.667 44 108 44c46 0 79.5 -13 100.5 -39s31.5 -57.667 31.5 -95c0 -44.667 -15.5 -81 -46.5 -109s-67.167 -42 -108.5 -42z" />
    <glyph glyph-name="divide" unicode="&#xf7;" horiz-adv-x="1362" 
d="M680 1003c-40 0 -74.333 13.498 -103 40.498s-43 61.833 -43 104.5c0 30.667 8 58.5 24 83.5s36.833 45 62.5 60s52.5 22.5 80.5 22.5c49.333 0 85.833 -14 109.5 -42s35.5 -62.333 35.5 -103c0 -31.333 -7.83301 -59.666 -23.5 -84.999s-36 -45.166 -61 -59.499
s-52.167 -21.5 -81.5 -21.5zM677 204.998c-39.333 0 -73.166 13 -101.499 39s-42.5 60.667 -42.5 104c0 30.667 8 58.334 24 83.001s36.833 44.5 62.5 59.5s52.5 22.5 80.5 22.5c48 0 84.333 -13.833 109 -41.5s37 -61.834 37 -102.501
c0 -31.333 -7.83301 -59.5 -23.5 -84.5s-36.334 -44.5 -62.001 -58.5s-53.5 -21 -83.5 -21zM219 665.998v177h923v-177h-923z" />
    <glyph glyph-name="oslash" unicode="&#xf8;" horiz-adv-x="1200" 
d="M286 -164l507 1478l122 -33l-507 -1480zM590 -16c-90.667 0 -167.832 16 -231.499 48s-115.167 75.667 -154.5 131s-67.666 118.833 -84.999 190.5s-25.666 147.167 -24.999 226.5c1.33301 119.333 24.666 219.666 69.999 300.999s106.666 142.833 183.999 184.5
s164.666 62.5 261.999 62.5c121.333 0 218.5 -27.5 291.5 -82.5s125.667 -127.667 158 -218s47.833 -188.166 46.5 -293.499c-2 -119.333 -25.5 -219.833 -70.5 -301.5s-106 -143.5 -183 -185.5s-164.5 -63 -262.5 -63zM596.002 147
c91.333 -1.33301 160.169 33.166 206.502 103.499s69.5 167.833 69.5 292.5c0 77.333 -9.33301 147.5 -28 210.5s-47.834 113.5 -87.501 151.5s-90.5 57.333 -152.5 58c-90.667 2 -159.167 -30.667 -205.5 -98s-69.5 -163.333 -69.5 -288c0 -77.333 9.5 -148.333 28.5 -213
s48.167 -116.667 87.5 -156s89.666 -59.666 150.999 -60.999z" />
    <glyph glyph-name="ugrave" unicode="&#xf9;" horiz-adv-x="1216" 
d="M484 -16c-72.667 0 -131.334 11.332 -176.001 33.999s-78.667 55.167 -102 97.5s-39.166 92.833 -47.499 151.5s-12.5 123.667 -12.5 195v652h230v-650c0 -88 6.83301 -152.667 20.5 -194s35 -68 64 -80s66.833 -18 113.5 -18c27.333 0 56.5 4.16699 87.5 12.5
s60.167 18.333 87.5 30s49 22.834 65 33.501v866h230v-1130h-106c-30.667 0 -55 4.5 -73 13.5s-27 31.833 -27 68.5v78l4 -44c-30 -20 -65.167 -38.833 -105.5 -56.5s-82.5 -32 -126.5 -43s-86 -16.5 -126 -16.5zM694 1346l-94.999 -89.001
c-20 9.33301 -47.667 27.5 -83 54.5s-72.666 58.333 -111.999 94s-75.833 71.667 -109.5 108s-58.834 67.833 -75.501 94.5l145 132c29.333 -41.333 62.666 -84.666 99.999 -129.999l115.5 -135.5z" />
    <glyph glyph-name="uacute" unicode="&#xfa;" horiz-adv-x="1216" 
d="M484 -16c-72.667 0 -131.334 11.332 -176.001 33.999s-78.667 55.167 -102 97.5s-39.166 92.833 -47.499 151.5s-12.5 123.667 -12.5 195v652h230v-650c0 -88 6.83301 -152.667 20.5 -194s35 -68 64 -80s66.833 -18 113.5 -18c27.333 0 56.5 4.16699 87.5 12.5
s60.167 18.333 87.5 30s49 22.834 65 33.501v866h230v-1130h-106c-30.667 0 -55 4.5 -73 13.5s-27 31.833 -27 68.5v78l4 -44c-30 -20 -65.167 -38.833 -105.5 -56.5s-82.5 -32 -126.5 -43s-86 -16.5 -126 -16.5zM546 1257l-105 86.998l114.5 128.5l114.5 140.5
c37.333 48 71.333 95.333 102 142l150 -124c-10 -18 -27 -41.333 -51 -70s-51.333 -59.167 -82 -91.5s-62 -63.666 -94 -93.999s-61.167 -56.166 -87.5 -77.499s-46.833 -35 -61.5 -41z" />
    <glyph glyph-name="ucircumflex" unicode="&#xfb;" horiz-adv-x="1216" 
d="M484 -16c-72.667 0 -131.334 11.332 -176.001 33.999s-78.667 55.167 -102 97.5s-39.166 92.833 -47.499 151.5s-12.5 123.667 -12.5 195v652h230v-650c0 -88 6.83301 -152.667 20.5 -194s35 -68 64 -80s66.833 -18 113.5 -18c27.333 0 56.5 4.16699 87.5 12.5
s60.167 18.333 87.5 30s49 22.834 65 33.501v866h230v-1130h-106c-30.667 0 -55 4.5 -73 13.5s-27 31.833 -27 68.5v78l4 -44c-30 -20 -65.167 -38.833 -105.5 -56.5s-82.5 -32 -126.5 -43s-86 -16.5 -126 -16.5zM348 1241l-110 60l280 342h181l271 -342l-120 -59l-246 215z
" />
    <glyph glyph-name="udieresis" unicode="&#xfc;" horiz-adv-x="1216" 
d="M484 -16c-72.667 0 -131.334 11.332 -176.001 33.999s-78.667 55.167 -102 97.5s-39.166 92.833 -47.499 151.5s-12.5 123.667 -12.5 195v652h230v-650c0 -88 6.83301 -152.667 20.5 -194s35 -68 64 -80s66.833 -18 113.5 -18c27.333 0 56.5 4.16699 87.5 12.5
s60.167 18.333 87.5 30s49 22.834 65 33.501v866h230v-1130h-106c-30.667 0 -55 4.5 -73 13.5s-27 31.833 -27 68.5v78l4 -44c-30 -20 -65.167 -38.833 -105.5 -56.5s-82.5 -32 -126.5 -43s-86 -16.5 -126 -16.5zM368 1302c-37.333 0 -68.999 12 -94.999 36
s-39 56.333 -39 97c0 42.667 16.5 78.667 49.5 108s68.833 44 107.5 44c45.333 0 78.666 -13 99.999 -39s32 -57.667 32 -95c0 -44.667 -15.5 -81 -46.5 -109s-67.167 -42 -108.5 -42zM820.001 1302c-36.667 0 -68.167 12 -94.5 36s-39.5 56.333 -39.5 97
c0 42.667 16.333 78.667 49 108s68.667 44 108 44c46 0 79.5 -13 100.5 -39s31.5 -57.667 31.5 -95c0 -44.667 -15.5 -81 -46.5 -109s-67.167 -42 -108.5 -42z" />
    <glyph glyph-name="yacute" unicode="&#xfd;" horiz-adv-x="1102" 
d="M138 -480l-0.00195312 188c11.333 -4 27.833 -7.33301 49.5 -10s37.834 -4 48.501 -4c28 0 61.333 7.83301 100 23.5s75.834 47.334 111.501 95.001s63.167 119.5 82.5 215.5l14 -28h-96l-398 1114h248l232 -722l94 -312h-60l82 312l198 722h248l-370 -1148
c-44 -134 -96.333 -236.5 -157 -307.5s-127 -116.5 -199 -136.5c-14 -4.66699 -32.333 -8.83398 -55 -12.501s-41.667 -5.5 -57 -5.5c-10 0 -23.333 0.833008 -40 2.5s-32.5 3.66699 -47.5 6s-24.5 4.83301 -28.5 7.5zM533.998 1257l-105 86.998l114.5 128.5l114.5 140.5
c37.333 48 71.333 95.333 102 142l150 -124c-10 -18 -27 -41.333 -51 -70s-51.333 -59.167 -82 -91.5s-62 -63.666 -94 -93.999s-61.167 -56.166 -87.5 -77.499s-46.833 -35 -61.5 -41z" />
    <glyph glyph-name="thorn" unicode="&#xfe;" horiz-adv-x="1242" 
d="M171 62l220 -44l12 -184v-330h-232v558zM180 1622h230v-454l-8 -196l8 -6v-802l-230 -102v1560zM584 -18c-40.667 0 -82.502 2.83203 -125.502 8.49902s-83.833 12.834 -122.5 21.501s-71.834 17.5 -99.501 26.5s-46.5 16.833 -56.5 23.5l230 126
c18 -12.667 43.5 -22.5 76.5 -29.5s73.5 -10.5 121.5 -10.5c57.333 0 108.833 16.167 154.5 48.5s82 79.833 109 142.5s41.167 139.667 42.5 231c1.33301 132 -21.667 228.333 -69 289s-113.666 91 -198.999 91c-52 0 -98.333 -9.83301 -139 -29.5s-73 -38.5 -97 -56.5
l-36 114c15.333 16 36.333 35.833 63 59.5s62 44.667 106 63s99.667 27.5 167 27.5c78.667 0 151.334 -19.167 218.001 -57.5s120.334 -96.666 161.001 -174.999s61 -177.5 61 -297.5c0 -120.667 -23.5 -227.334 -70.5 -320.001s-113 -165.167 -198 -217.5
s-184.167 -78.5 -297.5 -78.5z" />
    <glyph glyph-name="ydieresis" unicode="&#xff;" horiz-adv-x="1102" 
d="M138 -480l-0.00195312 188c11.333 -4 27.833 -7.33301 49.5 -10s37.834 -4 48.501 -4c28 0 61.333 7.83301 100 23.5s75.834 47.334 111.501 95.001s63.167 119.5 82.5 215.5l14 -28h-96l-398 1114h248l232 -722l94 -312h-60l82 312l198 722h248l-370 -1148
c-44 -134 -96.333 -236.5 -157 -307.5s-127 -116.5 -199 -136.5c-14 -4.66699 -32.333 -8.83398 -55 -12.501s-41.667 -5.5 -57 -5.5c-10 0 -23.333 0.833008 -40 2.5s-32.5 3.66699 -47.5 6s-24.5 4.83301 -28.5 7.5zM355.998 1302c-37.333 0 -68.999 12 -94.999 36
s-39 56.333 -39 97c0 42.667 16.5 78.667 49.5 108s68.833 44 107.5 44c45.333 0 78.666 -13 99.999 -39s32 -57.667 32 -95c0 -44.667 -15.5 -81 -46.5 -109s-67.167 -42 -108.5 -42zM807.999 1302c-36.667 0 -68.167 12 -94.5 36s-39.5 56.333 -39.5 97
c0 42.667 16.333 78.667 49 108s68.667 44 108 44c46 0 79.5 -13 100.5 -39s31.5 -57.667 31.5 -95c0 -44.667 -15.5 -81 -46.5 -109s-67.167 -42 -108.5 -42z" />
    <glyph glyph-name="Amacron" unicode="&#x100;" horiz-adv-x="1376" 
d="M262 0h-248l564 1502h229l556 -1502h-255l-371 1117l-42 143l-44 -143zM294 365l40 173h682l42 -173h-764zM414 1681v165h546v-165h-546z" />
    <glyph glyph-name="amacron" unicode="&#x101;" horiz-adv-x="1118" 
d="M436 -16c-66.667 0 -125.834 13.1709 -177.501 39.5039s-92.334 63.666 -122.001 111.999s-44.5 105.5 -44.5 171.5c0 71.333 19.167 131.833 57.5 181.5s89.833 88.5 154.5 116.5c42.667 17.333 89 31.166 139 41.499s100 17.666 150 21.999s96.333 6.5 139 6.5l48 -61
l-48 -81c-26 0 -57.167 -1.83301 -93.5 -5.5s-72.166 -9.33398 -107.499 -17.001s-65.333 -17.5 -90 -29.5c-34 -15.333 -62.333 -35 -85 -59s-34 -57.333 -34 -100c0 -56 15.5 -98.333 46.5 -127s77.167 -43 138.5 -43c31.333 0 63 4.66699 95 14s59.833 20 83.5 32
s39.167 22.333 46.5 31l46 -49l-33 -86c-29.333 -26.667 -71.666 -51.667 -126.999 -75s-116 -35 -182 -35zM963 0.00390625l-218 -0.00390625v166h-13v614c0 65.333 -17.167 108.5 -51.5 129.5s-83.166 31.5 -146.499 31.5c-42 0 -85.333 -4.16699 -130 -12.5
s-85.667 -18.666 -123 -30.999s-66 -24.833 -86 -37.5l-54 166c15.333 9.33301 44.833 22.333 88.5 39s94.667 31.834 153 45.501s116.166 20.5 173.499 20.5c83.333 0 155.5 -9.66699 216.5 -29s108 -55.166 141 -107.499s49.5 -128.166 49.5 -227.499v-767zM275 1320v166
h543v-166h-543z" />
    <glyph glyph-name="Abreve" unicode="&#x102;" horiz-adv-x="1376" 
d="M262 0h-248l564 1502h229l556 -1502h-255l-371 1117l-42 143l-44 -143zM294 365l40 173h682l42 -173h-764zM687 1594c-74 0 -137.17 17.5 -189.503 52.5s-91.333 79.5 -117 133.5s-36.167 110 -31.5 168h158c0.666992 -7.33301 2.16699 -20.5 4.5 -39.5
s8.83301 -39.333 19.5 -61s28.5 -40.167 53.5 -55.5s59.833 -23 104.5 -23s79.334 7.66699 104.001 23s42.667 33.833 54 55.5s18.333 42 21 61s4.33398 32.167 5.00098 39.5h154c4.66699 -58 -6.66602 -114 -33.999 -168s-67.333 -98.5 -120 -133.5
s-114.667 -52.5 -186 -52.5z" />
    <glyph glyph-name="abreve" unicode="&#x103;" horiz-adv-x="1118" 
d="M436 -16c-66.667 0 -125.834 13.1709 -177.501 39.5039s-92.334 63.666 -122.001 111.999s-44.5 105.5 -44.5 171.5c0 71.333 19.167 131.833 57.5 181.5s89.833 88.5 154.5 116.5c42.667 17.333 89 31.166 139 41.499s100 17.666 150 21.999s96.333 6.5 139 6.5l48 -61
l-48 -81c-26 0 -57.167 -1.83301 -93.5 -5.5s-72.166 -9.33398 -107.499 -17.001s-65.333 -17.5 -90 -29.5c-34 -15.333 -62.333 -35 -85 -59s-34 -57.333 -34 -100c0 -56 15.5 -98.333 46.5 -127s77.167 -43 138.5 -43c31.333 0 63 4.66699 95 14s59.833 20 83.5 32
s39.167 22.333 46.5 31l46 -49l-33 -86c-29.333 -26.667 -71.666 -51.667 -126.999 -75s-116 -35 -182 -35zM963 0.00390625l-218 -0.00390625v166h-13v614c0 65.333 -17.167 108.5 -51.5 129.5s-83.166 31.5 -146.499 31.5c-42 0 -85.333 -4.16699 -130 -12.5
s-85.667 -18.666 -123 -30.999s-66 -24.833 -86 -37.5l-54 166c15.333 9.33301 44.833 22.333 88.5 39s94.667 31.834 153 45.501s116.166 20.5 173.499 20.5c83.333 0 155.5 -9.66699 216.5 -29s108 -55.166 141 -107.499s49.5 -128.166 49.5 -227.499v-767zM545 1276
c-74 0 -137.17 17.667 -189.503 53s-91.333 81.166 -117 137.499s-36.167 116.166 -31.5 179.499h158c0.666992 -7.33301 2.16699 -21.333 4.5 -42s8.83301 -42.667 19.5 -66s28.5 -43.5 53.5 -60.5s59.833 -25.5 104.5 -25.5s79.334 8.5 104.001 25.5
s42.667 37.167 54 60.5s18.333 45.333 21 66s4.33398 34.667 5.00098 42h154c4.66699 -63.333 -6.66602 -123.166 -33.999 -179.499s-67.333 -102.166 -120 -137.499s-114.667 -53 -186 -53z" />
    <glyph glyph-name="Aogonek" unicode="&#x104;" horiz-adv-x="1376" 
d="M895 -296c-0.666992 44 12.499 85.001 39.499 123.001s60.833 72.167 101.5 102.5s80.334 54.833 119.001 73.5l141 29l43 -22c-40 -21.333 -77.667 -45.833 -113 -73.5s-63.5 -57 -84.5 -88s-31.167 -62.5 -30.5 -94.5c1.33301 -40 14 -66.833 38 -80.5
s52.667 -20.5 86 -20.5c21.333 0 43.5 2.66699 66.5 8s45.5 11.666 67.5 18.999v-121c-28.667 -20.667 -64 -35.834 -106 -45.501s-83.667 -14.5 -125 -14.5c-44.667 0 -85.167 7.83301 -121.5 23.5s-65.333 38.834 -87 69.501s-33.167 68 -34.5 112zM261.999 0.000976562
h-248l564 1502h229l556 -1502h-255l-371 1117l-42 143l-44 -143zM293.999 365.001l40 173h682l42 -173h-764z" />
    <glyph glyph-name="aogonek" unicode="&#x105;" horiz-adv-x="1118" 
d="M436 -16c-66.667 0 -125.834 13.1709 -177.501 39.5039s-92.334 63.666 -122.001 111.999s-44.5 105.5 -44.5 171.5c0 71.333 19.167 131.833 57.5 181.5s89.833 88.5 154.5 116.5c42.667 17.333 89 31.166 139 41.499s100 17.666 150 21.999s96.333 6.5 139 6.5l48 -61
l-48 -81c-26 0 -57.167 -1.83301 -93.5 -5.5s-72.166 -9.33398 -107.499 -17.001s-65.333 -17.5 -90 -29.5c-34 -15.333 -62.333 -35 -85 -59s-34 -57.333 -34 -100c0 -56 15.5 -98.333 46.5 -127s77.167 -43 138.5 -43c31.333 0 63 4.66699 95 14s59.833 20 83.5 32
s39.167 22.333 46.5 31l46 -49l-33 -86c-29.333 -26.667 -71.666 -51.667 -126.999 -75s-116 -35 -182 -35zM963 0.00390625l-218 -0.00390625v166h-13v614c0 65.333 -17.167 108.5 -51.5 129.5s-83.166 31.5 -146.499 31.5c-42 0 -85.333 -4.16699 -130 -12.5
s-85.667 -18.666 -123 -30.999s-66 -24.833 -86 -37.5l-54 166c15.333 9.33301 44.833 22.333 88.5 39s94.667 31.834 153 45.501s116.166 20.5 173.499 20.5c83.333 0 155.5 -9.66699 216.5 -29s108 -55.166 141 -107.499s49.5 -128.166 49.5 -227.499v-767zM716 -500
c-41.333 0 -80.666 7.83301 -117.999 23.5s-67.833 38.5 -91.5 68.5s-35.834 66.667 -36.501 110c-0.666992 36.667 9.5 73.667 30.5 111s50.833 72.333 89.5 105s83.667 60 135 82l68 29l116 -29c-37.333 -16.667 -74.5 -39 -111.5 -67s-67.5 -58.333 -91.5 -91
s-36 -64.667 -36 -96c0 -34 10.5 -59.167 31.5 -75.5s51.833 -24.5 92.5 -24.5c34 0 68 6 102 18s59.333 21.333 76 28l16 -120c-26 -16 -61.333 -32 -106 -48s-100 -24 -166 -24z" />
    <glyph glyph-name="Cacute" unicode="&#x106;" horiz-adv-x="1280" 
d="M93 737c0 123.333 18.5 232.335 55.5 327.002s87.833 174.667 152.5 240s138.834 114.666 222.501 147.999s171.834 50 264.501 50c74.667 0 137.5 -3.83301 188.5 -11.5s92.833 -15.834 125.5 -24.501s59 -15.334 79 -20.001l-34 -209c-10.667 6.66699 -29 16 -55 28
s-62.333 23.167 -109 33.5s-106.667 15.5 -180 15.5c-96 0 -179.667 -22.833 -251 -68.5s-126.5 -110.667 -165.5 -195s-58.5 -184.166 -58.5 -299.499c0 -113.333 19.167 -213.833 57.5 -301.5s93.5 -156.5 165.5 -206.5s157.667 -75 257 -75
c49.333 0 98.5 4.66699 147.5 14s92.667 21 131 35s66.166 28.333 83.499 43v-198c-28.667 -11.333 -60.334 -23 -95.001 -35s-74.5 -22.167 -119.5 -30.5s-98.167 -12.5 -159.5 -12.5c-142 0 -265.667 31.5 -371 94.5s-187 151 -245 264s-87 244.5 -87 394.5zM722 1619
l-99.9971 93c1.33301 1.33301 13.333 12.166 36 32.499l82 74.5l96.5 88.5l81.5 76.5c22 21.333 33.667 33.333 35 36l151 -130c-22.667 -23.333 -49.834 -48.666 -81.501 -75.999s-65.334 -54 -101.001 -80s-70.834 -49.167 -105.501 -69.5s-66 -35.5 -94 -45.5z" />
    <glyph glyph-name="cacute" unicode="&#x107;" horiz-adv-x="976" 
d="M80 544c0 110 19.9971 208.999 59.9971 296.999s100 157.833 180 209.5s180 77.5 300 77.5c70 0 129.333 -6.33301 178 -19s82 -25 100 -37l-36 -182c-28 19.333 -61.667 33.833 -101 43.5s-87 14.5 -143 14.5c-50 0 -98.333 -12.167 -145 -36.5
s-85.667 -63.166 -117 -116.499s-48.666 -123.666 -51.999 -210.999c-2.66699 -92 9.5 -169.5 36.5 -232.5s64.333 -110.667 112 -143s100.834 -48.5 159.501 -48.5c55.333 0 106.5 7 153.5 21s82.5 28.333 106.5 43l44 -134c-34 -32 -82 -57.667 -144 -77
s-128 -29 -198 -29c-106 0 -195.667 24.667 -269 74s-129.166 116.166 -167.499 200.499s-57.5 179.5 -57.5 285.5zM529.997 1257l-105 86.998l114.5 128.5l114.5 140.5c37.333 48 71.333 95.333 102 142l150 -124c-10 -18 -27 -41.333 -51 -70s-51.333 -59.167 -82 -91.5
s-62 -63.666 -94 -93.999s-61.167 -56.166 -87.5 -77.499s-46.833 -35 -61.5 -41z" />
    <glyph glyph-name="Ccircumflex" unicode="&#x108;" horiz-adv-x="1280" 
d="M93 737c0 123.333 18.5 232.335 55.5 327.002s87.833 174.667 152.5 240s138.834 114.666 222.501 147.999s171.834 50 264.501 50c74.667 0 137.5 -3.83301 188.5 -11.5s92.833 -15.834 125.5 -24.501s59 -15.334 79 -20.001l-34 -209c-10.667 6.66699 -29 16 -55 28
s-62.333 23.167 -109 33.5s-106.667 15.5 -180 15.5c-96 0 -179.667 -22.833 -251 -68.5s-126.5 -110.667 -165.5 -195s-58.5 -184.166 -58.5 -299.499c0 -113.333 19.167 -213.833 57.5 -301.5s93.5 -156.5 165.5 -206.5s157.667 -75 257 -75
c49.333 0 98.5 4.66699 147.5 14s92.667 21 131 35s66.166 28.333 83.499 43v-198c-28.667 -11.333 -60.334 -23 -95.001 -35s-74.5 -22.167 -119.5 -30.5s-98.167 -12.5 -159.5 -12.5c-142 0 -265.667 31.5 -371 94.5s-187 151 -245 264s-87 244.5 -87 394.5zM564 1614
l-138 61l256 296h198l258 -294l-144 -63l-214 197z" />
    <glyph glyph-name="ccircumflex" unicode="&#x109;" horiz-adv-x="976" 
d="M80 544c0 110 19.9971 208.999 59.9971 296.999s100 157.833 180 209.5s180 77.5 300 77.5c70 0 129.333 -6.33301 178 -19s82 -25 100 -37l-36 -182c-28 19.333 -61.667 33.833 -101 43.5s-87 14.5 -143 14.5c-50 0 -98.333 -12.167 -145 -36.5
s-85.667 -63.166 -117 -116.499s-48.666 -123.666 -51.999 -210.999c-2.66699 -92 9.5 -169.5 36.5 -232.5s64.333 -110.667 112 -143s100.834 -48.5 159.501 -48.5c55.333 0 106.5 7 153.5 21s82.5 28.333 106.5 43l44 -134c-34 -32 -82 -57.667 -144 -77
s-128 -29 -198 -29c-106 0 -195.667 24.667 -269 74s-129.166 116.166 -167.499 200.499s-57.5 179.5 -57.5 285.5zM331.997 1241l-110 60l280 342h181l271 -342l-120 -59l-246 215z" />
    <glyph glyph-name="Cdotaccent" unicode="&#x10a;" horiz-adv-x="1280" 
d="M93 737c0 123.333 18.5 232.335 55.5 327.002s87.833 174.667 152.5 240s138.834 114.666 222.501 147.999s171.834 50 264.501 50c74.667 0 137.5 -3.83301 188.5 -11.5s92.833 -15.834 125.5 -24.501s59 -15.334 79 -20.001l-34 -209c-10.667 6.66699 -29 16 -55 28
s-62.333 23.167 -109 33.5s-106.667 15.5 -180 15.5c-96 0 -179.667 -22.833 -251 -68.5s-126.5 -110.667 -165.5 -195s-58.5 -184.166 -58.5 -299.499c0 -113.333 19.167 -213.833 57.5 -301.5s93.5 -156.5 165.5 -206.5s157.667 -75 257 -75
c49.333 0 98.5 4.66699 147.5 14s92.667 21 131 35s66.166 28.333 83.499 43v-198c-28.667 -11.333 -60.334 -23 -95.001 -35s-74.5 -22.167 -119.5 -30.5s-98.167 -12.5 -159.5 -12.5c-142 0 -265.667 31.5 -371 94.5s-187 151 -245 264s-87 244.5 -87 394.5zM772 1661
c-38.667 0 -72.001 11.832 -100.001 35.499s-42 56.834 -42 99.501c0 43.333 17 80 51 110s71.667 45 113 45c47.333 0 82.5 -12.833 105.5 -38.5s34.5 -58.167 34.5 -97.5c0 -45.333 -16.167 -82.333 -48.5 -111s-70.166 -43 -113.499 -43z" />
    <glyph glyph-name="cdotaccent" unicode="&#x10b;" horiz-adv-x="976" 
d="M80 544c0 110 19.9971 208.999 59.9971 296.999s100 157.833 180 209.5s180 77.5 300 77.5c70 0 129.333 -6.33301 178 -19s82 -25 100 -37l-36 -182c-28 19.333 -61.667 33.833 -101 43.5s-87 14.5 -143 14.5c-50 0 -98.333 -12.167 -145 -36.5
s-85.667 -63.166 -117 -116.499s-48.666 -123.666 -51.999 -210.999c-2.66699 -92 9.5 -169.5 36.5 -232.5s64.333 -110.667 112 -143s100.834 -48.5 159.501 -48.5c55.333 0 106.5 7 153.5 21s82.5 28.333 106.5 43l44 -134c-34 -32 -82 -57.667 -144 -77
s-128 -29 -198 -29c-106 0 -195.667 24.667 -269 74s-129.166 116.166 -167.499 200.499s-57.5 179.5 -57.5 285.5zM577.997 1294c-38.667 0 -72.498 12.333 -101.498 37s-43.5 58.334 -43.5 101.001c0 29.333 8.16699 55.833 24.5 79.5s37.166 42.667 62.499 57
s51.666 21.5 78.999 21.5c47.333 0 83 -13.333 107 -40s36 -59.334 36 -98.001c0 -46 -16.5 -83.833 -49.5 -113.5s-71.167 -44.5 -114.5 -44.5z" />
    <glyph glyph-name="Ccaron" unicode="&#x10c;" horiz-adv-x="1280" 
d="M93 737c0 123.333 18.5 232.335 55.5 327.002s87.833 174.667 152.5 240s138.834 114.666 222.501 147.999s171.834 50 264.501 50c74.667 0 137.5 -3.83301 188.5 -11.5s92.833 -15.834 125.5 -24.501s59 -15.334 79 -20.001l-34 -209c-10.667 6.66699 -29 16 -55 28
s-62.333 23.167 -109 33.5s-106.667 15.5 -180 15.5c-96 0 -179.667 -22.833 -251 -68.5s-126.5 -110.667 -165.5 -195s-58.5 -184.166 -58.5 -299.499c0 -113.333 19.167 -213.833 57.5 -301.5s93.5 -156.5 165.5 -206.5s157.667 -75 257 -75
c49.333 0 98.5 4.66699 147.5 14s92.667 21 131 35s66.166 28.333 83.499 43v-198c-28.667 -11.333 -60.334 -23 -95.001 -35s-74.5 -22.167 -119.5 -30.5s-98.167 -12.5 -159.5 -12.5c-142 0 -265.667 31.5 -371 94.5s-187 151 -245 264s-87 244.5 -87 394.5zM686 1628
l-246 259l131 65l211 -171l216 171l124 -62l-240 -262h-196z" />
    <glyph glyph-name="ccaron" unicode="&#x10d;" horiz-adv-x="976" 
d="M80 544c0 110 19.9971 208.999 59.9971 296.999s100 157.833 180 209.5s180 77.5 300 77.5c70 0 129.333 -6.33301 178 -19s82 -25 100 -37l-36 -182c-28 19.333 -61.667 33.833 -101 43.5s-87 14.5 -143 14.5c-50 0 -98.333 -12.167 -145 -36.5
s-85.667 -63.166 -117 -116.499s-48.666 -123.666 -51.999 -210.999c-2.66699 -92 9.5 -169.5 36.5 -232.5s64.333 -110.667 112 -143s100.834 -48.5 159.501 -48.5c55.333 0 106.5 7 153.5 21s82.5 28.333 106.5 43l44 -134c-34 -32 -82 -57.667 -144 -77
s-128 -29 -198 -29c-106 0 -195.667 24.667 -269 74s-129.166 116.166 -167.499 200.499s-57.5 179.5 -57.5 285.5zM219.997 1620l127 60l243 -223l226 223l137 -62l-265 -331h-196z" />
    <glyph glyph-name="Dcaron" unicode="&#x10e;" horiz-adv-x="1440" 
d="M176 0l0.000976562 1486h39.5h38.5h38c31.333 0 66 1.33301 104 4s78.167 5.33398 120.5 8.00098s85.5 4 129.5 4c241.333 0 420 -62.833 536 -188.5s174 -301.5 174 -527.5c0 -169.333 -29.833 -314.333 -89.5 -435s-144.5 -212.667 -254.5 -276
s-240 -93.666 -390 -90.999c-52.667 1.33301 -111.334 4.33301 -176.001 9s-122.667 7 -174 7h-32h-32h-32zM412.001 177.998c32 -6.66699 70.502 -11.501 115.502 -14.501s87.833 -4.16699 128.5 -3.5c88.667 1.33301 167.167 22.333 235.5 63
s121.833 104.334 160.5 191.001s58 199.334 58 338.001c0 143.333 -19 257.166 -57 341.499s-94.833 144.833 -170.5 181.5s-169.834 55 -282.501 55c-38.667 0 -74.334 -1.33301 -107.001 -4s-59.667 -6 -81 -10v-1138zM610.003 1628l-246 259l131 65l211 -171l216 171
l124 -62l-240 -262h-196z" />
    <glyph glyph-name="dcaron" unicode="&#x10f;" horiz-adv-x="1244" 
d="M844 0v148l-12 6v788l8 6l-8 220v458h230v-1626h-218zM533 -16c-78 0 -150.502 19.3291 -217.502 57.9961s-121 97.334 -162 176.001s-61.5 178.334 -61.5 299.001s23.333 226.834 70 318.501s111.834 163.334 195.501 215.001s181.834 77.5 294.501 77.5
c68.667 0 126.334 -8.16699 173.001 -24.5s76.334 -30.166 89.001 -41.499l-82 -147c-20 17.333 -46.5 29.333 -79.5 36s-72.167 10 -117.5 10c-56.667 0 -107.834 -15.667 -153.501 -47s-82.167 -78 -109.5 -140s-41.333 -138.667 -42 -230
c-2 -130.667 20.667 -226.334 68 -287.001s113.666 -91 198.999 -91c52 0 98.5 9.66699 139.5 29s72.833 38 95.5 56l38 -114c-16 -16.667 -37.333 -37 -64 -61s-62 -45.333 -106 -64s-99.667 -28 -167 -28zM1320 1206l-137.997 0.00195312l-6 12
c3.33301 27.333 6.16602 57.833 8.49902 91.5s3.5 68.5 3.5 104.5c0 38 -1.66699 72 -5 102s-9 53.333 -17 70l10 34h190c7.33301 -20.667 12.166 -42.167 14.499 -64.5s3.5 -49.5 3.5 -81.5c0 -17.333 -2.66699 -43.333 -8 -78s-12.833 -69.834 -22.5 -105.501
s-20.834 -63.834 -33.501 -84.501z" />
    <glyph glyph-name="Dcroat" unicode="&#x110;" horiz-adv-x="1452" 
d="M65 699v154h733v-154h-733zM176 0l0.000976562 1486h39.5h38.5h38c31.333 0 66 1.33301 104 4s78.167 5.33398 120.5 8.00098s85.5 4 129.5 4c241.333 0 420 -62.833 536 -188.5s174 -301.5 174 -527.5c0 -169.333 -29.833 -314.333 -89.5 -435
s-144.5 -212.667 -254.5 -276s-240 -93.666 -390 -90.999c-52.667 1.33301 -111.334 4.33301 -176.001 9s-122.667 7 -174 7h-32h-32h-32zM412.001 177.998c32 -6.66699 70.502 -11.501 115.502 -14.501s87.833 -4.16699 128.5 -3.5c88.667 1.33301 167.167 22.333 235.5 63
s121.833 104.334 160.5 191.001s58 199.334 58 338.001c0 143.333 -19 257.166 -57 341.499s-94.833 144.833 -170.5 181.5s-169.834 55 -282.501 55c-38.667 0 -74.334 -1.33301 -107.001 -4s-59.667 -6 -81 -10v-1138z" />
    <glyph glyph-name="dcroat" unicode="&#x111;" horiz-adv-x="1226" 
d="M577 1274v144h622v-144h-622zM844 0v148l-12 6v788l8 6l-8 220v458h230v-1626h-218zM533 -16c-78 0 -150.502 19.3291 -217.502 57.9961s-121 97.334 -162 176.001s-61.5 178.334 -61.5 299.001s23.333 226.834 70 318.501s111.834 163.334 195.501 215.001
s181.834 77.5 294.501 77.5c68.667 0 126.334 -8.16699 173.001 -24.5s76.334 -30.166 89.001 -41.499l-82 -147c-20 17.333 -46.5 29.333 -79.5 36s-72.167 10 -117.5 10c-56.667 0 -107.834 -15.667 -153.501 -47s-82.167 -78 -109.5 -140s-41.333 -138.667 -42 -230
c-2 -130.667 20.667 -226.334 68 -287.001s113.666 -91 198.999 -91c52 0 98.5 9.66699 139.5 29s72.833 38 95.5 56l38 -114c-16 -16.667 -37.333 -37 -64 -61s-62 -45.333 -106 -64s-99.667 -28 -167 -28z" />
    <glyph glyph-name="Emacron" unicode="&#x112;" horiz-adv-x="1182" 
d="M176 0v1486h864v-180h-628v-452h466v-178h-466v-492h698v-184h-934zM357 1681v165h546v-165h-546z" />
    <glyph glyph-name="emacron" unicode="&#x113;" horiz-adv-x="1116" 
d="M598 -16c-160 0 -283.332 50.666 -369.999 151.999s-130 242 -130 422c0 108 19.167 204.667 57.5 290s95 153 170 203s167.167 75.667 276.5 77c56 1.33301 108.667 -6.66699 158 -24s93 -43.5 131 -78.5s68.167 -79.167 90.5 -132.5s34.5 -115.666 36.5 -186.999
c0 -42 -0.333008 -79.5 -1 -112.5s-3.66699 -62.167 -9 -87.5h-776l20 146h550c3.33301 53.333 0.166016 103.833 -9.50098 151.5s-30.334 86.334 -62.001 116.001s-78.5 44.5 -140.5 44.5c-52 0 -98.667 -14.5 -140 -43.5s-73.333 -77.833 -96 -146.5
s-32 -162.667 -28 -282c4 -84 21 -150.333 51 -199s69.333 -83.334 118 -104.001s103 -31 163 -31c25.333 0 56.333 2.83301 93 8.5s72.167 13 106.5 22s60.5 18.833 78.5 29.5l44 -132c-24.667 -20 -58.167 -37.667 -100.5 -53s-88.166 -27.333 -137.499 -36
s-97.333 -13 -144 -13zM324.001 1320v166h543v-166h-543z" />
    <glyph glyph-name="Ebreve" unicode="&#x114;" horiz-adv-x="1182" 
d="M176 0v1486h864v-180h-628v-452h466v-178h-466v-492h698v-184h-934zM630 1594c-74 0 -137.17 17.5 -189.503 52.5s-91.333 79.5 -117 133.5s-36.167 110 -31.5 168h158c0.666992 -7.33301 2.16699 -20.5 4.5 -39.5s8.83301 -39.333 19.5 -61s28.5 -40.167 53.5 -55.5
s59.833 -23 104.5 -23s79.334 7.66699 104.001 23s42.667 33.833 54 55.5s18.333 42 21 61s4.33398 32.167 5.00098 39.5h154c4.66699 -58 -6.66602 -114 -33.999 -168s-67.333 -98.5 -120 -133.5s-114.667 -52.5 -186 -52.5z" />
    <glyph glyph-name="ebreve" unicode="&#x115;" horiz-adv-x="1116" 
d="M598 -16c-160 0 -283.332 50.666 -369.999 151.999s-130 242 -130 422c0 108 19.167 204.667 57.5 290s95 153 170 203s167.167 75.667 276.5 77c56 1.33301 108.667 -6.66699 158 -24s93 -43.5 131 -78.5s68.167 -79.167 90.5 -132.5s34.5 -115.666 36.5 -186.999
c0 -42 -0.333008 -79.5 -1 -112.5s-3.66699 -62.167 -9 -87.5h-776l20 146h550c3.33301 53.333 0.166016 103.833 -9.50098 151.5s-30.334 86.334 -62.001 116.001s-78.5 44.5 -140.5 44.5c-52 0 -98.667 -14.5 -140 -43.5s-73.333 -77.833 -96 -146.5
s-32 -162.667 -28 -282c4 -84 21 -150.333 51 -199s69.333 -83.334 118 -104.001s103 -31 163 -31c25.333 0 56.333 2.83301 93 8.5s72.167 13 106.5 22s60.5 18.833 78.5 29.5l44 -132c-24.667 -20 -58.167 -37.667 -100.5 -53s-88.166 -27.333 -137.499 -36
s-97.333 -13 -144 -13zM594.001 1276c-74 0 -137.17 17.667 -189.503 53s-91.333 81.166 -117 137.499s-36.167 116.166 -31.5 179.499h158c0.666992 -7.33301 2.16699 -21.333 4.5 -42s8.83301 -42.667 19.5 -66s28.5 -43.5 53.5 -60.5s59.833 -25.5 104.5 -25.5
s79.334 8.5 104.001 25.5s42.667 37.167 54 60.5s18.333 45.333 21 66s4.33398 34.667 5.00098 42h154c4.66699 -63.333 -6.66602 -123.166 -33.999 -179.499s-67.333 -102.166 -120 -137.499s-114.667 -53 -186 -53z" />
    <glyph glyph-name="Edotaccent" unicode="&#x116;" horiz-adv-x="1182" 
d="M176 0v1486h864v-180h-628v-452h466v-178h-466v-492h698v-184h-934zM620 1661c-38.667 0 -72.001 11.832 -100.001 35.499s-42 56.834 -42 99.501c0 43.333 17 80 51 110s71.667 45 113 45c47.333 0 82.5 -12.833 105.5 -38.5s34.5 -58.167 34.5 -97.5
c0 -45.333 -16.167 -82.333 -48.5 -111s-70.166 -43 -113.499 -43z" />
    <glyph glyph-name="edotaccent" unicode="&#x117;" horiz-adv-x="1116" 
d="M598 -16c-160 0 -283.332 50.666 -369.999 151.999s-130 242 -130 422c0 108 19.167 204.667 57.5 290s95 153 170 203s167.167 75.667 276.5 77c56 1.33301 108.667 -6.66699 158 -24s93 -43.5 131 -78.5s68.167 -79.167 90.5 -132.5s34.5 -115.666 36.5 -186.999
c0 -42 -0.333008 -79.5 -1 -112.5s-3.66699 -62.167 -9 -87.5h-776l20 146h550c3.33301 53.333 0.166016 103.833 -9.50098 151.5s-30.334 86.334 -62.001 116.001s-78.5 44.5 -140.5 44.5c-52 0 -98.667 -14.5 -140 -43.5s-73.333 -77.833 -96 -146.5
s-32 -162.667 -28 -282c4 -84 21 -150.333 51 -199s69.333 -83.334 118 -104.001s103 -31 163 -31c25.333 0 56.333 2.83301 93 8.5s72.167 13 106.5 22s60.5 18.833 78.5 29.5l44 -132c-24.667 -20 -58.167 -37.667 -100.5 -53s-88.166 -27.333 -137.499 -36
s-97.333 -13 -144 -13zM584.001 1294c-38.667 0 -72.498 12.333 -101.498 37s-43.5 58.334 -43.5 101.001c0 29.333 8.16699 55.833 24.5 79.5s37.166 42.667 62.499 57s51.666 21.5 78.999 21.5c47.333 0 83 -13.333 107 -40s36 -59.334 36 -98.001
c0 -46 -16.5 -83.833 -49.5 -113.5s-71.167 -44.5 -114.5 -44.5z" />
    <glyph glyph-name="Eogonek" unicode="&#x118;" horiz-adv-x="1182" 
d="M176 0v1486h864v-180h-628v-452h466v-178h-466v-492h698v-184h-934zM920 -500c-41.333 0 -80.6709 7.83301 -118.004 23.5s-67.666 38.5 -90.999 68.5s-35.666 66.667 -36.999 110c-0.666992 42.667 11.333 82.834 36 120.501s56.834 71.834 96.501 102.501
s81.167 55.667 124.5 75l22 10l157 -10c-36.667 -18 -73.334 -41 -110.001 -69s-67 -58 -91 -90s-36 -63.667 -36 -95c0 -34 10.5 -58.833 31.5 -74.5s51.833 -23.5 92.5 -23.5c34.667 0 68.834 5.66699 102.501 17s58.834 20.333 75.501 27l16 -119
c-25.333 -16.667 -60.5 -32.834 -105.5 -48.501s-100.167 -23.834 -165.5 -24.501z" />
    <glyph glyph-name="eogonek" unicode="&#x119;" horiz-adv-x="1116" 
d="M598 -16c-160 0 -283.332 50.666 -369.999 151.999s-130 242 -130 422c0 108 19.167 204.667 57.5 290s95 153 170 203s167.167 75.667 276.5 77c56 1.33301 108.667 -6.66699 158 -24s93 -43.5 131 -78.5s68.167 -79.167 90.5 -132.5s34.5 -115.666 36.5 -186.999
c0 -42 -0.333008 -79.5 -1 -112.5s-3.66699 -62.167 -9 -87.5h-776l20 146h550c3.33301 53.333 0.166016 103.833 -9.50098 151.5s-30.334 86.334 -62.001 116.001s-78.5 44.5 -140.5 44.5c-52 0 -98.667 -14.5 -140 -43.5s-73.333 -77.833 -96 -146.5
s-32 -162.667 -28 -282c4 -84 21 -150.333 51 -199s69.333 -83.334 118 -104.001s103 -31 163 -31c25.333 0 56.333 2.83301 93 8.5s72.167 13 106.5 22s60.5 18.833 78.5 29.5l44 -132c-24.667 -20 -58.167 -37.667 -100.5 -53s-88.166 -27.333 -137.499 -36
s-97.333 -13 -144 -13zM561.001 -500.001c-41.333 0 -80.666 7.83301 -117.999 23.5s-67.833 38.5 -91.5 68.5s-35.834 66.667 -36.501 110c-0.666992 36.667 9.5 73.667 30.5 111s50.833 72.333 89.5 105s83.667 60 135 82l68 29l116 -29
c-37.333 -16.667 -74.5 -39 -111.5 -67s-67.5 -58.333 -91.5 -91s-36 -64.667 -36 -96c0 -34 10.5 -59.167 31.5 -75.5s51.833 -24.5 92.5 -24.5c34 0 68 6 102 18s59.333 21.333 76 28l16 -120c-26 -16 -61.333 -32 -106 -48s-100 -24 -166 -24z" />
    <glyph glyph-name="Ecaron" unicode="&#x11a;" horiz-adv-x="1182" 
d="M176 0v1486h864v-180h-628v-452h466v-178h-466v-492h698v-184h-934zM534 1628l-246 259l131 65l211 -171l216 171l124 -62l-240 -262h-196z" />
    <glyph glyph-name="ecaron" unicode="&#x11b;" horiz-adv-x="1116" 
d="M598 -16c-160 0 -283.332 50.666 -369.999 151.999s-130 242 -130 422c0 108 19.167 204.667 57.5 290s95 153 170 203s167.167 75.667 276.5 77c56 1.33301 108.667 -6.66699 158 -24s93 -43.5 131 -78.5s68.167 -79.167 90.5 -132.5s34.5 -115.666 36.5 -186.999
c0 -42 -0.333008 -79.5 -1 -112.5s-3.66699 -62.167 -9 -87.5h-776l20 146h550c3.33301 53.333 0.166016 103.833 -9.50098 151.5s-30.334 86.334 -62.001 116.001s-78.5 44.5 -140.5 44.5c-52 0 -98.667 -14.5 -140 -43.5s-73.333 -77.833 -96 -146.5
s-32 -162.667 -28 -282c4 -84 21 -150.333 51 -199s69.333 -83.334 118 -104.001s103 -31 163 -31c25.333 0 56.333 2.83301 93 8.5s72.167 13 106.5 22s60.5 18.833 78.5 29.5l44 -132c-24.667 -20 -58.167 -37.667 -100.5 -53s-88.166 -27.333 -137.499 -36
s-97.333 -13 -144 -13zM226.001 1620l127 60l243 -223l226 223l137 -62l-265 -331h-196z" />
    <glyph glyph-name="Gcircumflex" unicode="&#x11c;" horiz-adv-x="1410" 
d="M96 736c0 128.667 17.9971 240.831 53.9971 336.498s85.833 175.334 149.5 239.001s137.834 111.334 222.501 143.001s175.667 47.5 273 47.5c74.667 0 134.5 -3.16699 179.5 -9.5s85 -14 120 -23s74.167 -17.5 117.5 -25.5l-10 -209
c-47.333 24 -101.5 43.833 -162.5 59.5s-146.167 23.5 -255.5 23.5c-86.667 0 -163.5 -22 -230.5 -66s-119.5 -107.333 -157.5 -190s-57 -182.667 -57 -300c0 -112 16 -213.333 48 -304s80.833 -162.5 146.5 -215.5s149.167 -79.5 250.5 -79.5
c54 0 108.167 4.33301 162.5 13s95.5 22 123.5 40v394l59 -41l-321 14v171h488v-663c-22 -1.33301 -46.667 -7.5 -74 -18.5s-60 -23.333 -98 -37s-84.167 -25.667 -138.5 -36s-119.5 -15.5 -195.5 -15.5c-147.333 0 -272.666 32.5 -375.999 97.5
s-182.166 154.167 -236.499 267.5s-81.5 242.333 -81.5 387zM575.997 1614l-138 61l256 296h198l258 -294l-144 -63l-214 197z" />
    <glyph glyph-name="gcircumflex" unicode="&#x11d;" horiz-adv-x="1203" 
d="M570 -504c-146.667 0 -262.667 27.0029 -348 81.0029s-128 136.333 -128 247c0 41.333 10 78.166 30 110.499s44.667 59.5 74 81.5s58 38.667 86 50l148 -22c-14 -12.667 -29.667 -26 -47 -40s-32.5 -32.5 -45.5 -55.5s-19.5 -53.833 -19.5 -92.5
c0 -44 8.66699 -81.5 26 -112.5s44.833 -54.667 82.5 -71s87.5 -24.5 149.5 -24.5c57.333 0 110.333 6.16699 159 18.5s87.667 31 117 56s44 56.167 44 93.5c0 39.333 -7.16699 72.666 -21.5 99.999s-41 48.166 -80 62.499s-95.833 21.5 -170.5 21.5h-110
c-38 -0 -71.667 0.833008 -101 2.5s-55.666 5.5 -78.999 11.5c-8 2 -15.667 5.5 -23 10.5s-15 8.83301 -23 11.5c-50 19.333 -83.5 46 -100.5 80s-25.5 68 -25.5 102c0 26 6.83301 52.5 20.5 79.5s33 53 58 78s54.167 47.167 87.5 66.5l143 -36
c-24 -9.33301 -45.833 -25.5 -65.5 -48.5s-29.5 -47.5 -29.5 -73.5c0 -40.667 9.83301 -68.167 29.5 -82.5s52.5 -21.5 98.5 -21.5h200c86 0 156 -9 210 -27s95.667 -42.167 125 -72.5s49.5 -64 60.5 -101s16.5 -74.833 16.5 -113.5c0 -58 -14.333 -109.833 -43 -155.5
s-68.334 -84.5 -119.001 -116.5s-109 -56.333 -175 -73s-136.333 -25 -211 -25zM563 380.003c-83.333 0 -158.332 15.5 -224.999 46.5s-119.334 74 -158.001 129s-58 118.5 -58 190.5c0 86.667 19.333 158 58 214s91.667 97.667 159 125s143.333 41.666 228 42.999
c82.667 2 158.334 -10 227.001 -36s123.5 -66.5 164.5 -121.5s61.5 -125.833 61.5 -212.5c0 -81.333 -19.667 -150.166 -59 -206.499s-93.333 -99 -162 -128s-147.334 -43.5 -236.001 -43.5zM569.001 530.003c68.667 0 123.331 15.502 163.998 46.502s61 89.167 61 174.5
c0 73.333 -17.667 129.166 -53 167.499s-89 57.5 -161 57.5c-41.333 0 -79.666 -6 -114.999 -18s-63.666 -34 -84.999 -66s-32 -77.667 -32 -137c0 -60.667 17.5 -113.334 52.5 -158.001s91.167 -67 168.5 -67zM896.998 940.005l-63.001 93
c14.667 18.667 43.834 38 87.501 58s91.5 30 143.5 30h112v-181h-280zM308.997 1241l-110 60l280 342h181l271 -342l-120 -59l-246 215z" />
    <glyph glyph-name="Gbreve" unicode="&#x11e;" horiz-adv-x="1410" 
d="M96 736c0 128.667 17.9971 240.831 53.9971 336.498s85.833 175.334 149.5 239.001s137.834 111.334 222.501 143.001s175.667 47.5 273 47.5c74.667 0 134.5 -3.16699 179.5 -9.5s85 -14 120 -23s74.167 -17.5 117.5 -25.5l-10 -209
c-47.333 24 -101.5 43.833 -162.5 59.5s-146.167 23.5 -255.5 23.5c-86.667 0 -163.5 -22 -230.5 -66s-119.5 -107.333 -157.5 -190s-57 -182.667 -57 -300c0 -112 16 -213.333 48 -304s80.833 -162.5 146.5 -215.5s149.167 -79.5 250.5 -79.5
c54 0 108.167 4.33301 162.5 13s95.5 22 123.5 40v394l59 -41l-321 14v171h488v-663c-22 -1.33301 -46.667 -7.5 -74 -18.5s-60 -23.333 -98 -37s-84.167 -25.667 -138.5 -36s-119.5 -15.5 -195.5 -15.5c-147.333 0 -272.666 32.5 -375.999 97.5
s-182.166 154.167 -236.499 267.5s-81.5 242.333 -81.5 387zM793.997 1594c-74 0 -137.17 17.5 -189.503 52.5s-91.333 79.5 -117 133.5s-36.167 110 -31.5 168h158c0.666992 -7.33301 2.16699 -20.5 4.5 -39.5s8.83301 -39.333 19.5 -61s28.5 -40.167 53.5 -55.5
s59.833 -23 104.5 -23s79.334 7.66699 104.001 23s42.667 33.833 54 55.5s18.333 42 21 61s4.33398 32.167 5.00098 39.5h154c4.66699 -58 -6.66602 -114 -33.999 -168s-67.333 -98.5 -120 -133.5s-114.667 -52.5 -186 -52.5z" />
    <glyph glyph-name="gbreve" unicode="&#x11f;" horiz-adv-x="1203" 
d="M570 -504c-146.667 0 -262.667 27.0029 -348 81.0029s-128 136.333 -128 247c0 41.333 10 78.166 30 110.499s44.667 59.5 74 81.5s58 38.667 86 50l148 -22c-14 -12.667 -29.667 -26 -47 -40s-32.5 -32.5 -45.5 -55.5s-19.5 -53.833 -19.5 -92.5
c0 -44 8.66699 -81.5 26 -112.5s44.833 -54.667 82.5 -71s87.5 -24.5 149.5 -24.5c57.333 0 110.333 6.16699 159 18.5s87.667 31 117 56s44 56.167 44 93.5c0 39.333 -7.16699 72.666 -21.5 99.999s-41 48.166 -80 62.499s-95.833 21.5 -170.5 21.5h-110
c-38 -0 -71.667 0.833008 -101 2.5s-55.666 5.5 -78.999 11.5c-8 2 -15.667 5.5 -23 10.5s-15 8.83301 -23 11.5c-50 19.333 -83.5 46 -100.5 80s-25.5 68 -25.5 102c0 26 6.83301 52.5 20.5 79.5s33 53 58 78s54.167 47.167 87.5 66.5l143 -36
c-24 -9.33301 -45.833 -25.5 -65.5 -48.5s-29.5 -47.5 -29.5 -73.5c0 -40.667 9.83301 -68.167 29.5 -82.5s52.5 -21.5 98.5 -21.5h200c86 0 156 -9 210 -27s95.667 -42.167 125 -72.5s49.5 -64 60.5 -101s16.5 -74.833 16.5 -113.5c0 -58 -14.333 -109.833 -43 -155.5
s-68.334 -84.5 -119.001 -116.5s-109 -56.333 -175 -73s-136.333 -25 -211 -25zM563 380.003c-83.333 0 -158.332 15.5 -224.999 46.5s-119.334 74 -158.001 129s-58 118.5 -58 190.5c0 86.667 19.333 158 58 214s91.667 97.667 159 125s143.333 41.666 228 42.999
c82.667 2 158.334 -10 227.001 -36s123.5 -66.5 164.5 -121.5s61.5 -125.833 61.5 -212.5c0 -81.333 -19.667 -150.166 -59 -206.499s-93.333 -99 -162 -128s-147.334 -43.5 -236.001 -43.5zM569.001 530.003c68.667 0 123.331 15.502 163.998 46.502s61 89.167 61 174.5
c0 73.333 -17.667 129.166 -53 167.499s-89 57.5 -161 57.5c-41.333 0 -79.666 -6 -114.999 -18s-63.666 -34 -84.999 -66s-32 -77.667 -32 -137c0 -60.667 17.5 -113.334 52.5 -158.001s91.167 -67 168.5 -67zM896.998 940.005l-63.001 93
c14.667 18.667 43.834 38 87.501 58s91.5 30 143.5 30h112v-181h-280zM564.997 1276c-74 0 -137.17 17.667 -189.503 53s-91.333 81.166 -117 137.499s-36.167 116.166 -31.5 179.499h158c0.666992 -7.33301 2.16699 -21.333 4.5 -42s8.83301 -42.667 19.5 -66
s28.5 -43.5 53.5 -60.5s59.833 -25.5 104.5 -25.5s79.334 8.5 104.001 25.5s42.667 37.167 54 60.5s18.333 45.333 21 66s4.33398 34.667 5.00098 42h154c4.66699 -63.333 -6.66602 -123.166 -33.999 -179.499s-67.333 -102.166 -120 -137.499s-114.667 -53 -186 -53z" />
    <glyph glyph-name="Gdotaccent" unicode="&#x120;" horiz-adv-x="1410" 
d="M96 736c0 128.667 17.9971 240.831 53.9971 336.498s85.833 175.334 149.5 239.001s137.834 111.334 222.501 143.001s175.667 47.5 273 47.5c74.667 0 134.5 -3.16699 179.5 -9.5s85 -14 120 -23s74.167 -17.5 117.5 -25.5l-10 -209
c-47.333 24 -101.5 43.833 -162.5 59.5s-146.167 23.5 -255.5 23.5c-86.667 0 -163.5 -22 -230.5 -66s-119.5 -107.333 -157.5 -190s-57 -182.667 -57 -300c0 -112 16 -213.333 48 -304s80.833 -162.5 146.5 -215.5s149.167 -79.5 250.5 -79.5
c54 0 108.167 4.33301 162.5 13s95.5 22 123.5 40v394l59 -41l-321 14v171h488v-663c-22 -1.33301 -46.667 -7.5 -74 -18.5s-60 -23.333 -98 -37s-84.167 -25.667 -138.5 -36s-119.5 -15.5 -195.5 -15.5c-147.333 0 -272.666 32.5 -375.999 97.5
s-182.166 154.167 -236.499 267.5s-81.5 242.333 -81.5 387zM783.997 1661c-38.667 0 -72.001 11.832 -100.001 35.499s-42 56.834 -42 99.501c0 43.333 17 80 51 110s71.667 45 113 45c47.333 0 82.5 -12.833 105.5 -38.5s34.5 -58.167 34.5 -97.5
c0 -45.333 -16.167 -82.333 -48.5 -111s-70.166 -43 -113.499 -43z" />
    <glyph glyph-name="gdotaccent" unicode="&#x121;" horiz-adv-x="1203" 
d="M570 -504c-146.667 0 -262.667 27.0029 -348 81.0029s-128 136.333 -128 247c0 41.333 10 78.166 30 110.499s44.667 59.5 74 81.5s58 38.667 86 50l148 -22c-14 -12.667 -29.667 -26 -47 -40s-32.5 -32.5 -45.5 -55.5s-19.5 -53.833 -19.5 -92.5
c0 -44 8.66699 -81.5 26 -112.5s44.833 -54.667 82.5 -71s87.5 -24.5 149.5 -24.5c57.333 0 110.333 6.16699 159 18.5s87.667 31 117 56s44 56.167 44 93.5c0 39.333 -7.16699 72.666 -21.5 99.999s-41 48.166 -80 62.499s-95.833 21.5 -170.5 21.5h-110
c-38 -0 -71.667 0.833008 -101 2.5s-55.666 5.5 -78.999 11.5c-8 2 -15.667 5.5 -23 10.5s-15 8.83301 -23 11.5c-50 19.333 -83.5 46 -100.5 80s-25.5 68 -25.5 102c0 26 6.83301 52.5 20.5 79.5s33 53 58 78s54.167 47.167 87.5 66.5l143 -36
c-24 -9.33301 -45.833 -25.5 -65.5 -48.5s-29.5 -47.5 -29.5 -73.5c0 -40.667 9.83301 -68.167 29.5 -82.5s52.5 -21.5 98.5 -21.5h200c86 0 156 -9 210 -27s95.667 -42.167 125 -72.5s49.5 -64 60.5 -101s16.5 -74.833 16.5 -113.5c0 -58 -14.333 -109.833 -43 -155.5
s-68.334 -84.5 -119.001 -116.5s-109 -56.333 -175 -73s-136.333 -25 -211 -25zM563 380.003c-83.333 0 -158.332 15.5 -224.999 46.5s-119.334 74 -158.001 129s-58 118.5 -58 190.5c0 86.667 19.333 158 58 214s91.667 97.667 159 125s143.333 41.666 228 42.999
c82.667 2 158.334 -10 227.001 -36s123.5 -66.5 164.5 -121.5s61.5 -125.833 61.5 -212.5c0 -81.333 -19.667 -150.166 -59 -206.499s-93.333 -99 -162 -128s-147.334 -43.5 -236.001 -43.5zM569.001 530.003c68.667 0 123.331 15.502 163.998 46.502s61 89.167 61 174.5
c0 73.333 -17.667 129.166 -53 167.499s-89 57.5 -161 57.5c-41.333 0 -79.666 -6 -114.999 -18s-63.666 -34 -84.999 -66s-32 -77.667 -32 -137c0 -60.667 17.5 -113.334 52.5 -158.001s91.167 -67 168.5 -67zM896.998 940.005l-63.001 93
c14.667 18.667 43.834 38 87.501 58s91.5 30 143.5 30h112v-181h-280zM554.997 1294c-38.667 0 -72.498 12.333 -101.498 37s-43.5 58.334 -43.5 101.001c0 29.333 8.16699 55.833 24.5 79.5s37.166 42.667 62.499 57s51.666 21.5 78.999 21.5c47.333 0 83 -13.333 107 -40
s36 -59.334 36 -98.001c0 -46 -16.5 -83.833 -49.5 -113.5s-71.167 -44.5 -114.5 -44.5z" />
    <glyph glyph-name="uni0122" unicode="&#x122;" horiz-adv-x="1410" 
d="M96 736c0 128.667 17.9971 240.831 53.9971 336.498s85.833 175.334 149.5 239.001s137.834 111.334 222.501 143.001s175.667 47.5 273 47.5c74.667 0 134.5 -3.16699 179.5 -9.5s85 -14 120 -23s74.167 -17.5 117.5 -25.5l-10 -209
c-47.333 24 -101.5 43.833 -162.5 59.5s-146.167 23.5 -255.5 23.5c-86.667 0 -163.5 -22 -230.5 -66s-119.5 -107.333 -157.5 -190s-57 -182.667 -57 -300c0 -112 16 -213.333 48 -304s80.833 -162.5 146.5 -215.5s149.167 -79.5 250.5 -79.5
c54 0 108.167 4.33301 162.5 13s95.5 22 123.5 40v394l59 -41l-321 14v171h488v-663c-22 -1.33301 -46.667 -7.5 -74 -18.5s-60 -23.333 -98 -37s-84.167 -25.667 -138.5 -36s-119.5 -15.5 -195.5 -15.5c-147.333 0 -272.666 32.5 -375.999 97.5
s-182.166 154.167 -236.499 267.5s-81.5 242.333 -81.5 387zM684.997 -546.003l-80.999 40.001v25c10 11.333 18.667 29.5 26 54.5s11 53.5 11 85.5c0 25.333 -5.83301 50.666 -17.5 75.999s-27.167 40.333 -46.5 45v48l159 91c23.333 -10 45.166 -32.833 65.499 -68.5
s30.5 -81.167 30.5 -136.5c0 -46 -8.33301 -87 -25 -123s-36.5 -65.833 -59.5 -89.5s-43.833 -39.5 -62.5 -47.5z" />
    <glyph glyph-name="uni0123" unicode="&#x123;" horiz-adv-x="1203" 
d="M570 -504c-146.667 0 -262.667 27.0029 -348 81.0029s-128 136.333 -128 247c0 41.333 10 78.166 30 110.499s44.667 59.5 74 81.5s58 38.667 86 50l148 -22c-14 -12.667 -29.667 -26 -47 -40s-32.5 -32.5 -45.5 -55.5s-19.5 -53.833 -19.5 -92.5
c0 -44 8.66699 -81.5 26 -112.5s44.833 -54.667 82.5 -71s87.5 -24.5 149.5 -24.5c57.333 0 110.333 6.16699 159 18.5s87.667 31 117 56s44 56.167 44 93.5c0 39.333 -7.16699 72.666 -21.5 99.999s-41 48.166 -80 62.499s-95.833 21.5 -170.5 21.5h-110
c-38 -0 -71.667 0.833008 -101 2.5s-55.666 5.5 -78.999 11.5c-8 2 -15.667 5.5 -23 10.5s-15 8.83301 -23 11.5c-50 19.333 -83.5 46 -100.5 80s-25.5 68 -25.5 102c0 26 6.83301 52.5 20.5 79.5s33 53 58 78s54.167 47.167 87.5 66.5l143 -36
c-24 -9.33301 -45.833 -25.5 -65.5 -48.5s-29.5 -47.5 -29.5 -73.5c0 -40.667 9.83301 -68.167 29.5 -82.5s52.5 -21.5 98.5 -21.5h200c86 0 156 -9 210 -27s95.667 -42.167 125 -72.5s49.5 -64 60.5 -101s16.5 -74.833 16.5 -113.5c0 -58 -14.333 -109.833 -43 -155.5
s-68.334 -84.5 -119.001 -116.5s-109 -56.333 -175 -73s-136.333 -25 -211 -25zM563 380.003c-83.333 0 -158.332 15.5 -224.999 46.5s-119.334 74 -158.001 129s-58 118.5 -58 190.5c0 86.667 19.333 158 58 214s91.667 97.667 159 125s143.333 41.666 228 42.999
c82.667 2 158.334 -10 227.001 -36s123.5 -66.5 164.5 -121.5s61.5 -125.833 61.5 -212.5c0 -81.333 -19.667 -150.166 -59 -206.499s-93.333 -99 -162 -128s-147.334 -43.5 -236.001 -43.5zM569.001 530.003c68.667 0 123.331 15.502 163.998 46.502s61 89.167 61 174.5
c0 73.333 -17.667 129.166 -53 167.499s-89 57.5 -161 57.5c-41.333 0 -79.666 -6 -114.999 -18s-63.666 -34 -84.999 -66s-32 -77.667 -32 -137c0 -60.667 17.5 -113.334 52.5 -158.001s91.167 -67 168.5 -67zM896.998 940.005l-63.001 93
c14.667 18.667 43.834 38 87.501 58s91.5 30 143.5 30h112v-181h-280zM576.997 1246c-44.667 0 -80.499 15.1689 -107.499 45.502s-40.5 73.833 -40.5 130.5c0 43.333 8 82.5 24 117.5s35 65.167 57 90.5s42.667 45.166 62 59.499s32.333 22.5 39 24.5h4l66 -42v-14
c-24.667 -10.667 -44.834 -30.5 -60.501 -59.5s-23.5 -60.5 -23.5 -94.5c0 -22 5.66699 -38.833 17 -50.5s23 -21.5 35 -29.5s22.667 -17.833 32 -29.5s14 -29.167 14 -52.5c0 -27.333 -6.83301 -47.833 -20.5 -61.5s-29.167 -22.834 -46.5 -27.501s-31 -7 -41 -7h-10z" />
    <glyph glyph-name="Hcircumflex" unicode="&#x124;" horiz-adv-x="1500" 
d="M176 0v1486h236v-646h678v646h234v-1486h-234v660h-678v-660h-236zM532 1614l-138 61l256 296h198l258 -294l-144 -63l-214 197z" />
    <glyph glyph-name="hcircumflex" unicode="&#x125;" horiz-adv-x="1268" 
d="M171 0l-0.00292969 1626h230v-458l-12 -201l-11 26c26.667 21.333 60.667 42.333 102 63s86 37.834 134 51.501s95.667 21.167 143 22.5c121.333 3.33301 209.5 -30 264.5 -100s82.5 -186.333 82.5 -349v-681h-230v683c0 91.333 -14.167 157.333 -42.5 198
s-83.166 59 -164.499 55c-35.333 -0.666992 -77.666 -9 -126.999 -25s-95.666 -40.333 -138.999 -73v-838h-230zM68.9971 1692l-138 61l256 296h198l258 -294l-144 -63l-214 197z" />
    <glyph glyph-name="Hbar" unicode="&#x126;" horiz-adv-x="1536" 
d="M189 0v1486h235v-659h690v659h233v-1486h-233v649h-690v-649h-235zM11 1036v147h1518v-147h-1518z" />
    <glyph glyph-name="hbar" unicode="&#x127;" horiz-adv-x="1269" 
d="M36 1255v137h591v-137h-591zM171 0l-0.00292969 1626h230v-458l-12 -201l-11 26c26.667 21.333 60.667 42.333 102 63s86 37.834 134 51.501s95.667 21.167 143 22.5c121.333 3.33301 209.5 -30 264.5 -100s82.5 -186.333 82.5 -349v-681h-230v683
c0 91.333 -14.167 157.333 -42.5 198s-83.166 59 -164.499 55c-35.333 -0.666992 -77.666 -9 -126.999 -25s-95.666 -40.333 -138.999 -73v-838h-230z" />
    <glyph glyph-name="Itilde" unicode="&#x128;" horiz-adv-x="640" 
d="M201 0v1486h236v-1486h-236zM463 1616c-38.667 0 -70.667 6.83203 -96 20.499s-47.5 29.5 -66.5 47.5s-37.667 33.833 -56 47.5s-40.166 20.5 -65.499 20.5c-30.667 0 -55.5 -4 -74.5 -12s-34.333 -18.833 -46 -32.5s-21.5 -28.834 -29.5 -45.501l-98 46
c12 34.667 28.167 68.334 48.5 101.001s46.333 59.667 78 81s70.167 32 115.5 32c37.333 0 68.666 -6.66699 93.999 -20s47.666 -29 66.999 -47s38.833 -33.667 58.5 -47s41.834 -20 66.501 -20c26 0 48.5 3.83301 67.5 11.5s34.833 18.334 47.5 32.001s23 29.167 31 46.5
l102 -52c-8 -38 -23.667 -72.833 -47 -104.5s-52 -57.167 -86 -76.5s-71 -29 -111 -29z" />
    <glyph glyph-name="itilde" unicode="&#x129;" horiz-adv-x="590" 
d="M180 0v1112h230v-1112h-230zM425 1291c-36 0 -65.833 7 -89.5 21s-44.334 30.167 -62.001 48.5s-35.167 34.5 -52.5 48.5s-37 21 -59 21c-28 0 -50.667 -4 -68 -12s-31.333 -18.667 -42 -32s-20 -28.333 -28 -45l-90 46c12 34.667 27.5 68 46.5 100s43.333 58.5 73 79.5
s66.5 31.5 110.5 31.5c34.667 0 63.667 -6.83301 87 -20.5s43.833 -29.667 61.5 -48s35.167 -34.333 52.5 -48s37 -20.5 59 -20.5c24.667 0 45.667 3.83301 63 11.5s31.833 18.167 43.5 31.5s21.167 28.333 28.5 45l94 -52c-8 -38 -22.667 -72.5 -44 -103.5
s-47.666 -55.833 -78.999 -74.5s-66.333 -28 -105 -28z" />
    <glyph glyph-name="Imacron" unicode="&#x12a;" horiz-adv-x="640" 
d="M201 0v1486h236v-1486h-236zM48 1681v165h546v-165h-546z" />
    <glyph glyph-name="imacron" unicode="&#x12b;" horiz-adv-x="590" 
d="M180 0v1112h230v-1112h-230zM24 1320v166h543v-166h-543z" />
    <glyph glyph-name="Ibreve" unicode="&#x12c;" horiz-adv-x="640" 
d="M201 0v1486h236v-1486h-236zM321 1594c-74 0 -137.17 17.5 -189.503 52.5s-91.333 79.5 -117 133.5s-36.167 110 -31.5 168h158c0.666992 -7.33301 2.16699 -20.5 4.5 -39.5s8.83301 -39.333 19.5 -61s28.5 -40.167 53.5 -55.5s59.833 -23 104.5 -23
s79.334 7.66699 104.001 23s42.667 33.833 54 55.5s18.333 42 21 61s4.33398 32.167 5.00098 39.5h154c4.66699 -58 -6.66602 -114 -33.999 -168s-67.333 -98.5 -120 -133.5s-114.667 -52.5 -186 -52.5z" />
    <glyph glyph-name="ibreve" unicode="&#x12d;" horiz-adv-x="590" 
d="M180 0v1112h230v-1112h-230zM294 1276c-74 0 -137.17 17.667 -189.503 53s-91.333 81.166 -117 137.499s-36.167 116.166 -31.5 179.499h158c0.666992 -7.33301 2.16699 -21.333 4.5 -42s8.83301 -42.667 19.5 -66s28.5 -43.5 53.5 -60.5s59.833 -25.5 104.5 -25.5
s79.334 8.5 104.001 25.5s42.667 37.167 54 60.5s18.333 45.333 21 66s4.33398 34.667 5.00098 42h154c4.66699 -63.333 -6.66602 -123.166 -33.999 -179.499s-67.333 -102.166 -120 -137.499s-114.667 -53 -186 -53z" />
    <glyph glyph-name="Iogonek" unicode="&#x12e;" horiz-adv-x="640" 
d="M201 0v1486h236v-1486h-236zM247 -500c-41.333 0 -80.6709 7.83301 -118.004 23.5s-67.666 38.5 -90.999 68.5s-35.666 66.667 -36.999 110c-0.666992 42.667 11.333 82.834 36 120.501s56.834 71.834 96.501 102.501s81.167 55.667 124.5 75l22 10l157 -10
c-36.667 -18 -73.334 -41 -110.001 -69s-67 -58 -91 -90s-36 -63.667 -36 -95c0 -34 10.5 -58.833 31.5 -74.5s51.833 -23.5 92.5 -23.5c34.667 0 68.834 5.66699 102.501 17s58.834 20.333 75.501 27l16 -119c-25.333 -16.667 -60.5 -32.834 -105.5 -48.501
s-100.167 -23.834 -165.5 -24.501z" />
    <glyph glyph-name="iogonek" unicode="&#x12f;" horiz-adv-x="590" 
d="M180 0v1112h230v-1112h-230zM284 1294c-38.667 0 -72.498 12.333 -101.498 37s-43.5 58.334 -43.5 101.001c0 29.333 8.16699 55.833 24.5 79.5s37.166 42.667 62.499 57s51.666 21.5 78.999 21.5c47.333 0 83 -13.333 107 -40s36 -59.334 36 -98.001
c0 -46 -16.5 -83.833 -49.5 -113.5s-71.167 -44.5 -114.5 -44.5zM217.002 -500c-41.333 0 -80.666 7.83301 -117.999 23.5s-67.833 38.5 -91.5 68.5s-35.834 66.667 -36.501 110c-0.666992 36.667 9.5 73.667 30.5 111s50.833 72.333 89.5 105s83.667 60 135 82l68 29
l116 -29c-37.333 -16.667 -74.5 -39 -111.5 -67s-67.5 -58.333 -91.5 -91s-36 -64.667 -36 -96c0 -34 10.5 -59.167 31.5 -75.5s51.833 -24.5 92.5 -24.5c34 0 68 6 102 18s59.333 21.333 76 28l16 -120c-26 -16 -61.333 -32 -106 -48s-100 -24 -166 -24z" />
    <glyph glyph-name="Idotaccent" unicode="&#x130;" horiz-adv-x="640" 
d="M201 0v1486h236v-1486h-236zM311 1661c-38.667 0 -72.001 11.832 -100.001 35.499s-42 56.834 -42 99.501c0 43.333 17 80 51 110s71.667 45 113 45c47.333 0 82.5 -12.833 105.5 -38.5s34.5 -58.167 34.5 -97.5c0 -45.333 -16.167 -82.333 -48.5 -111
s-70.166 -43 -113.499 -43z" />
    <glyph glyph-name="dotlessi" unicode="&#x131;" horiz-adv-x="590" 
d="M180 0v1112h230v-1112h-230z" />
    <glyph glyph-name="IJ" unicode="&#x132;" horiz-adv-x="1351" 
d="M201 0v1486h236v-1486h-236zM673 -324l-69 122.999c51.333 19.333 103.666 50.666 156.999 93.999s90.333 103.333 111 180c15.333 58.667 24.5 134.334 27.5 227.001s4.5 190.667 4.5 294v892h236v-888c0 -96.667 0.333008 -188.5 1 -275.5
s-5.66602 -166.167 -18.999 -237.5c-12 -64.667 -34.167 -121.334 -66.5 -170.001s-70.333 -89.667 -114 -123s-89 -59.666 -136 -78.999s-91.167 -31.666 -132.5 -36.999z" />
    <glyph glyph-name="ij" unicode="&#x133;" horiz-adv-x="1162" 
d="M180 0v1112h230v-1112h-230zM282 1309c-38.667 0 -72.498 12.333 -101.498 37s-43.5 58.334 -43.5 101.001c0 29.333 8.16699 55.833 24.5 79.5s37.166 42.667 62.499 57s51.666 21.5 78.999 21.5c47.333 0 83 -13.333 107 -40s36 -59.334 36 -98.001
c0 -46 -16.5 -83.833 -49.5 -113.5s-71.167 -44.5 -114.5 -44.5zM508.002 -480l-0.000976562 165.002c10.667 -4.66699 28.334 -9.16699 53.001 -13.5s45.334 -6.5 62.001 -6.5c58.667 0 98.667 24.5 120 73.5s32 123.5 32 223.5v1150h231v-1068
c0 -130 -13.833 -234.5 -41.5 -313.5s-68 -136.5 -121 -172.5s-117.5 -54 -193.5 -54c-10 0 -25.333 0.666992 -46 2s-40.334 3.16602 -59.001 5.49902s-31 5.16602 -37 8.49902zM882.001 1309c-38.667 0 -72.498 12.333 -101.498 37s-43.5 58.334 -43.5 101.001
c0 29.333 8.16699 55.833 24.5 79.5s37.166 42.667 62.499 57s51.666 21.5 78.999 21.5c47.333 0 83 -13.333 107 -40s36 -59.334 36 -98.001c0 -46 -16.5 -83.833 -49.5 -113.5s-71.167 -44.5 -114.5 -44.5z" />
    <glyph glyph-name="Jcircumflex" unicode="&#x134;" horiz-adv-x="711" 
d="M33 -324l-69 122.999c51.333 19.333 103.666 50.666 156.999 93.999s90.333 103.333 111 180c15.333 58.667 24.5 134.334 27.5 227.001s4.5 190.667 4.5 294v892h236v-888c0 -96.667 0.333008 -188.5 1 -275.5s-5.66602 -166.167 -18.999 -237.5
c-12 -64.667 -34.167 -121.334 -66.5 -170.001s-70.333 -89.667 -114 -123s-89 -59.666 -136 -78.999s-91.167 -31.666 -132.5 -36.999zM160 1614l-138 61l256 296h198l258 -294l-144 -63l-214 197z" />
    <glyph glyph-name="jcircumflex" unicode="&#x135;" horiz-adv-x="572" 
d="M-82 -480l-0.000976562 165.002c10.667 -4.66699 28.334 -9.16699 53.001 -13.5s45.334 -6.5 62.001 -6.5c58.667 0 98.667 24.5 120 73.5s32 123.5 32 223.5v1150h231v-1068c0 -130 -13.833 -234.5 -41.5 -313.5s-68 -136.5 -121 -172.5s-117.5 -54 -193.5 -54
c-10 0 -25.333 0.666992 -46 2s-40.334 3.16602 -59.001 5.49902s-31 5.16602 -37 8.49902zM47.999 1241l-110 60l280 342h181l271 -342l-120 -59l-246 215z" />
    <glyph glyph-name="uni0136" unicode="&#x136;" horiz-adv-x="1338" 
d="M176 0v1486h232v-734l580 734h270l-602 -738l-30 -32l-270 -308l52 194v-602h-232zM950 110c-26.667 49.333 -57.5 101.833 -92.5 157.5l-108.5 168l-107.5 162c-34.333 51.667 -64.166 98.5 -89.499 140.5l80 54l84 94c12.667 -22.667 33.667 -56.5 63 -101.5l102 -155
l120 -181.5l118 -182.5c37.333 -59 69 -111.5 95 -157.5l21.5 -36l21 -36l21.5 -36h-268c-8.66699 13.333 -16.334 27.5 -23.001 42.5s-19 37.5 -37 67.5zM644 -546l-80.999 40.001v25c10 11.333 18.667 29.5 26 54.5s11 53.5 11 85.5
c0 25.333 -5.83301 50.666 -17.5 75.999s-27.167 40.333 -46.5 45v48l159 91c23.333 -10 45.166 -32.833 65.499 -68.5s30.5 -81.167 30.5 -136.5c0 -46 -8.33301 -87 -25 -123s-36.5 -65.833 -59.5 -89.5s-43.833 -39.5 -62.5 -47.5z" />
    <glyph glyph-name="uni0137" unicode="&#x137;" horiz-adv-x="1155" 
d="M1099 1114l-728 -760l20 54l4 -192v-216h-224v662v960h224v-848l-8 -244l-54 38l496 546h270zM511 548l156 150l480 -698h-262zM587 -538l-106.998 31.999v25c10 11.333 18.667 26.333 26 45s11 43.334 11 74.001c0 31.333 -5.83301 60 -17.5 86s-27.167 41.333 -46.5 46
v48l166 82c20 -10 40 -33 60 -69s30 -81.667 30 -137c0 -34.667 -6.33301 -68.167 -19 -100.5s-28.334 -60.333 -47.001 -84s-37.334 -39.5 -56.001 -47.5z" />
    <glyph glyph-name="kgreenlandic" unicode="&#x138;" horiz-adv-x="1154" 
d="M1119 1114l-735 -818l19 54l5 -169v-181h-230l-3 1114h232v-449l-9 -193l-51 35l510 607h262zM526 513l158 149l472 -662h-263z" />
    <glyph glyph-name="Lacute" unicode="&#x139;" horiz-adv-x="1050" 
d="M176 0v1486h234v-1300h584v-186h-818zM234 1619l-99.9971 93c1.33301 1.33301 13.333 12.166 36 32.499l82 74.5l96.5 88.5l81.5 76.5c22 21.333 33.667 33.333 35 36l151 -130c-22.667 -23.333 -49.834 -48.666 -81.501 -75.999s-65.334 -54 -101.001 -80
s-70.834 -49.167 -105.501 -69.5s-66 -35.5 -94 -45.5z" />
    <glyph glyph-name="lacute" unicode="&#x13a;" horiz-adv-x="592" 
d="M180 0v1626h232v-1626h-232zM238 1719l-99.9971 93c1.33301 1.33301 13.333 12.166 36 32.499l82 74.5l96.5 88.5l81.5 76.5c22 21.333 33.667 33.333 35 36l151 -130c-22.667 -23.333 -49.834 -48.666 -81.501 -75.999s-65.334 -54 -101.001 -80
s-70.834 -49.167 -105.501 -69.5s-66 -35.5 -94 -45.5z" />
    <glyph glyph-name="uni013B" unicode="&#x13b;" horiz-adv-x="1050" 
d="M176 0v1486h234v-1300h584v-186h-818zM500 -546l-80.999 40.001v25c10 11.333 18.667 29.5 26 54.5s11 53.5 11 85.5c0 25.333 -5.83301 50.666 -17.5 75.999s-27.167 40.333 -46.5 45v48l159 91c23.333 -10 45.166 -32.833 65.499 -68.5s30.5 -81.167 30.5 -136.5
c0 -46 -8.33301 -87 -25 -123s-36.5 -65.833 -59.5 -89.5s-43.833 -39.5 -62.5 -47.5z" />
    <glyph glyph-name="uni013C" unicode="&#x13c;" horiz-adv-x="592" 
d="M180 0v1626h232v-1626h-232zM302 -538l-106.998 31.999v25c10 11.333 18.667 26.333 26 45s11 43.334 11 74.001c0 31.333 -5.83301 60 -17.5 86s-27.167 41.333 -46.5 46v48l166 82c20 -10 40 -33 60 -69s30 -81.667 30 -137c0 -34.667 -6.33301 -68.167 -19 -100.5
s-28.334 -60.333 -47.001 -84s-37.334 -39.5 -56.001 -47.5z" />
    <glyph glyph-name="Lcaron" unicode="&#x13d;" horiz-adv-x="1061" 
d="M176 0v1486h234v-1300h584v-186h-818zM683 1204l-137.997 0.00195312l-6 12c3.33301 27.333 6.16602 57.833 8.49902 91.5s3.5 68.5 3.5 104.5c0 38 -1.66699 72 -5 102s-9 53.333 -17 70l10 34h190c7.33301 -20.667 12.166 -42.167 14.499 -64.5s3.5 -49.5 3.5 -81.5
c0 -17.333 -2.66699 -43.333 -8 -78s-12.833 -69.834 -22.5 -105.501s-20.834 -63.834 -33.501 -84.501z" />
    <glyph glyph-name="lcaron" unicode="&#x13e;" horiz-adv-x="680" 
d="M180 0v1626h232v-1626h-232zM676 1204l-137.997 0.00195312l-6 12c3.33301 27.333 6.16602 57.833 8.49902 91.5s3.5 68.5 3.5 104.5c0 38 -1.66699 72 -5 102s-9 53.333 -17 70l10 34h190c7.33301 -20.667 12.166 -42.167 14.499 -64.5s3.5 -49.5 3.5 -81.5
c0 -17.333 -2.66699 -43.333 -8 -78s-12.833 -69.834 -22.5 -105.501s-20.834 -63.834 -33.501 -84.501z" />
    <glyph glyph-name="Ldot" unicode="&#x13f;" horiz-adv-x="1334" 
d="M1031 653c-40 0 -74.6699 14.832 -104.003 44.499s-44.666 66.5 -45.999 110.5c-0.666992 32.667 6.83301 62.334 22.5 89.001s36.167 48 61.5 64s52 24 80 24c48.667 0 85.667 -15.333 111 -46s38.333 -66.667 39 -108c1.33301 -33.333 -5.66699 -63.5 -21 -90.5
s-35.666 -48.333 -60.999 -64s-52.666 -23.5 -81.999 -23.5zM175.997 -0.000976562v1486h234v-1300h584v-186h-818z" />
    <glyph glyph-name="ldot" unicode="&#x140;" horiz-adv-x="1010" 
d="M180 0v1626h232v-1626h-232zM805 667c-40 0 -74.6699 14.832 -104.003 44.499s-44.666 66.5 -45.999 110.5c-0.666992 32.667 6.83301 62.334 22.5 89.001s36.167 48 61.5 64s52 24 80 24c48.667 0 85.667 -15.333 111 -46s38.333 -66.667 39 -108
c1.33301 -33.333 -5.66699 -63.5 -21 -90.5s-35.666 -48.333 -60.999 -64s-52.666 -23.5 -81.999 -23.5z" />
    <glyph glyph-name="Lslash" unicode="&#x141;" horiz-adv-x="1050" 
d="M19 694l774 286l55 -142l-775 -284zM176 0v1486h234v-1300h584v-186h-818z" />
    <glyph glyph-name="lslash" unicode="&#x142;" horiz-adv-x="668" 
d="M50 744v154l568 228v-166zM202 0v1626h232v-1626h-232z" />
    <glyph glyph-name="Nacute" unicode="&#x143;" horiz-adv-x="1508" 
d="M176 0v1486h214l622 -962l198 -370h-70l-26 416v916h218v-1486h-224l-598 926l-230 418h86l24 -450v-894h-214zM706 1619l-99.9971 93c1.33301 1.33301 13.333 12.166 36 32.499l82 74.5l96.5 88.5l81.5 76.5c22 21.333 33.667 33.333 35 36l151 -130
c-22.667 -23.333 -49.834 -48.666 -81.501 -75.999s-65.334 -54 -101.001 -80s-70.834 -49.167 -105.501 -69.5s-66 -35.5 -94 -45.5z" />
    <glyph glyph-name="nacute" unicode="&#x144;" horiz-adv-x="1262" 
d="M172 0v1112h207l1 -118c27.333 18.667 61.833 38.334 103.5 59.001s86.667 38.334 135 53.001s96.5 22.667 144.5 24c119.333 3.33301 205 -27.5 257 -92.5s78 -179.167 78 -342.5v-695h-232v683c0 93.333 -12.5 160.333 -37.5 201s-79.167 58.667 -162.5 54
c-23.333 -0.666992 -50.166 -4.83398 -80.499 -12.501s-61.333 -18.667 -93 -33s-61.834 -32.5 -90.501 -54.5v-838h-230zM583 1257l-105 86.998l114.5 128.5l114.5 140.5c37.333 48 71.333 95.333 102 142l150 -124c-10 -18 -27 -41.333 -51 -70s-51.333 -59.167 -82 -91.5
s-62 -63.666 -94 -93.999s-61.167 -56.166 -87.5 -77.499s-46.833 -35 -61.5 -41z" />
    <glyph glyph-name="uni0145" unicode="&#x145;" horiz-adv-x="1508" 
d="M176 0v1486h214l622 -962l198 -370h-70l-26 416v916h218v-1486h-224l-598 926l-230 418h86l24 -450v-894h-214zM734 -546l-80.999 40.001v25c10 11.333 18.667 29.5 26 54.5s11 53.5 11 85.5c0 25.333 -5.83301 50.666 -17.5 75.999s-27.167 40.333 -46.5 45v48l159 91
c23.333 -10 45.166 -32.833 65.499 -68.5s30.5 -81.167 30.5 -136.5c0 -46 -8.33301 -87 -25 -123s-36.5 -65.833 -59.5 -89.5s-43.833 -39.5 -62.5 -47.5z" />
    <glyph glyph-name="uni0146" unicode="&#x146;" horiz-adv-x="1262" 
d="M172 0v1112h207l1 -118c27.333 18.667 61.833 38.334 103.5 59.001s86.667 38.334 135 53.001s96.5 22.667 144.5 24c119.333 3.33301 205 -27.5 257 -92.5s78 -179.167 78 -342.5v-695h-232v683c0 93.333 -12.5 160.333 -37.5 201s-79.167 58.667 -162.5 54
c-23.333 -0.666992 -50.166 -4.83398 -80.499 -12.501s-61.333 -18.667 -93 -33s-61.834 -32.5 -90.501 -54.5v-838h-230zM638 -538.001l-106.998 31.999v25c10 11.333 18.667 26.333 26 45s11 43.334 11 74.001c0 31.333 -5.83301 60 -17.5 86s-27.167 41.333 -46.5 46v48
l166 82c20 -10 40 -33 60 -69s30 -81.667 30 -137c0 -34.667 -6.33301 -68.167 -19 -100.5s-28.334 -60.333 -47.001 -84s-37.334 -39.5 -56.001 -47.5z" />
    <glyph glyph-name="Ncaron" unicode="&#x147;" horiz-adv-x="1508" 
d="M176 0v1486h214l622 -962l198 -370h-70l-26 416v916h218v-1486h-224l-598 926l-230 418h86l24 -450v-894h-214zM670 1628l-246 259l131 65l211 -171l216 171l124 -62l-240 -262h-196z" />
    <glyph glyph-name="ncaron" unicode="&#x148;" horiz-adv-x="1262" 
d="M172 0v1112h207l1 -118c27.333 18.667 61.833 38.334 103.5 59.001s86.667 38.334 135 53.001s96.5 22.667 144.5 24c119.333 3.33301 205 -27.5 257 -92.5s78 -179.167 78 -342.5v-695h-232v683c0 93.333 -12.5 160.333 -37.5 201s-79.167 58.667 -162.5 54
c-23.333 -0.666992 -50.166 -4.83398 -80.499 -12.501s-61.333 -18.667 -93 -33s-61.834 -32.5 -90.501 -54.5v-838h-230zM273 1620l127 60l243 -223l226 223l137 -62l-265 -331h-196z" />
    <glyph glyph-name="napostrophe" unicode="&#x149;" horiz-adv-x="1848" 
d="M322 934l-99.998 63.998v30c15.333 16.667 28.5 40 39.5 70s19.5 62.333 25.5 97s9 67.334 9 98.001c0 53.333 -10 100.833 -30 142.5s-40.333 68.5 -61 80.5v61l144 107c30 -13.333 57 -33 81 -59s42.833 -59.667 56.5 -101s20.5 -91.666 20.5 -150.999
c0 -81.333 -10.833 -151.833 -32.5 -211.5s-46.834 -108.5 -75.501 -146.5s-54.334 -65 -77.001 -81zM758.002 -0.00195312v1112h207l1 -118c27.333 18.667 61.833 38.334 103.5 59.001s86.667 38.334 135 53.001s96.5 22.667 144.5 24c119.333 3.33301 205 -27.5 257 -92.5
s78 -179.167 78 -342.5v-695h-232v683c0 93.333 -12.5 160.333 -37.5 201s-79.167 58.667 -162.5 54c-23.333 -0.666992 -50.166 -4.83398 -80.499 -12.501s-61.333 -18.667 -93 -33s-61.834 -32.5 -90.501 -54.5v-838h-230z" />
    <glyph glyph-name="Eng" unicode="&#x14a;" horiz-adv-x="1552" 
d="M418 0l-229 -0.000976562l-2 1486h218l639 -969l192 -362h-74l-28 412v919h231v-982v-172.5c0 -54.333 -1.66699 -106 -5 -155s-10 -95.833 -20 -140.5c-14 -64.667 -39.5 -122.667 -76.5 -174s-81 -95.666 -132 -132.999s-105.167 -67 -162.5 -89s-113 -36 -167 -42
l-57 106c41.333 12 83.833 29.667 127.5 53s84 50.5 121 81.5s67 63.667 90 98s34.5 68.5 34.5 102.5l-596 895l-220 402h92l24 -441v-895z" />
    <glyph glyph-name="eng" unicode="&#x14b;" horiz-adv-x="1262" 
d="M172 0l0.000976562 1112h205l3 -118c27.333 18.667 61.666 38.334 102.999 59.001s86.333 38.334 135 53.001s97 22.667 145 24c80 2.66699 144.333 -9.5 193 -36.5s84.334 -72.5 107.001 -136.5s34.334 -150.333 35.001 -259v-716c0 -157.333 -27.333 -276.333 -82 -357
s-132.667 -121 -234 -121c-14 0 -32.333 0.666992 -55 2s-43.834 3 -63.501 5s-32.834 4.33301 -39.501 7v156c10 -2.66699 27.167 -5 51.5 -7s42.166 -3 53.499 -3c36.667 0 64.834 8.33301 84.501 25s33.334 46.167 41.001 88.5s11.5 101.833 11.5 178.5v729
c0 91.333 -12.333 157.333 -37 198s-77.334 59 -158.001 55c-22.667 -0.666992 -49.5 -4.83398 -80.5 -12.501s-63 -18.667 -96 -33s-63.833 -32.5 -92.5 -54.5v-838h-230z" />
    <glyph glyph-name="Omacron" unicode="&#x14c;" horiz-adv-x="1528" 
d="M758 -16c-138 -2.66699 -257.333 28.832 -358 94.499s-177.667 157 -231 274s-78.333 250.833 -75 401.5c3.33301 166 36.166 304.333 98.499 415s145.333 193.667 249 249s219.167 83.333 346.5 84c132 0.666992 247 -30.166 345 -92.499s173.5 -150.5 226.5 -264.5
s77.833 -247.667 74.5 -401c-3.33301 -166 -34.666 -304.833 -93.999 -416.5s-139.333 -196.167 -240 -253.5s-214.667 -87.333 -342 -90zM764 163.999c132 0 237 49.834 315 149.501s117 246.5 117 440.5c0 102.667 -15.5 197.167 -46.5 283.5
s-77.333 155.666 -139 207.999s-138.5 78.5 -230.5 78.5c-80.667 0 -155 -20.667 -223 -62s-122.5 -105 -163.5 -191s-61.5 -196.333 -61.5 -331c0 -102 16.167 -196.833 48.5 -284.5s80.5 -158.167 144.5 -211.5s143.667 -80 239 -80zM515 1681v165h546v-165h-546z" />
    <glyph glyph-name="omacron" unicode="&#x14d;" horiz-adv-x="1198" 
d="M589 -16c-90.667 0 -167.667 16 -231 48s-114.666 75.667 -153.999 131s-67.833 118.833 -85.5 190.5s-26.167 147.167 -25.5 226.5c2 119.333 25.667 219.666 71 300.999s106.666 142.833 183.999 184.5s164.333 62.5 261 62.5c121.333 0 218.5 -27.5 291.5 -82.5
s125.667 -127.667 158 -218s47.833 -188.166 46.5 -293.499c-2 -119.333 -25.5 -219.833 -70.5 -301.5s-106 -143.5 -183 -185.5s-164.5 -63 -262.5 -63zM595 147c91.333 -1.33301 160.169 33.166 206.502 103.499s69.5 167.833 69.5 292.5
c0 77.333 -9.33301 147.5 -28 210.5s-47.834 113.5 -87.501 151.5s-90.5 57.333 -152.5 58c-90.667 2 -159 -30.667 -205 -98s-69 -163.333 -69 -288c0 -77.333 9.33301 -148.333 28 -213s47.667 -116.667 87 -156s89.666 -59.666 150.999 -60.999zM339.003 1320v166h543
v-166h-543z" />
    <glyph glyph-name="Obreve" unicode="&#x14e;" horiz-adv-x="1528" 
d="M758 -16c-138 -2.66699 -257.333 28.832 -358 94.499s-177.667 157 -231 274s-78.333 250.833 -75 401.5c3.33301 166 36.166 304.333 98.499 415s145.333 193.667 249 249s219.167 83.333 346.5 84c132 0.666992 247 -30.166 345 -92.499s173.5 -150.5 226.5 -264.5
s77.833 -247.667 74.5 -401c-3.33301 -166 -34.666 -304.833 -93.999 -416.5s-139.333 -196.167 -240 -253.5s-214.667 -87.333 -342 -90zM764 163.999c132 0 237 49.834 315 149.501s117 246.5 117 440.5c0 102.667 -15.5 197.167 -46.5 283.5
s-77.333 155.666 -139 207.999s-138.5 78.5 -230.5 78.5c-80.667 0 -155 -20.667 -223 -62s-122.5 -105 -163.5 -191s-61.5 -196.333 -61.5 -331c0 -102 16.167 -196.833 48.5 -284.5s80.5 -158.167 144.5 -211.5s143.667 -80 239 -80zM788 1594
c-74 0 -137.17 17.5 -189.503 52.5s-91.333 79.5 -117 133.5s-36.167 110 -31.5 168h158c0.666992 -7.33301 2.16699 -20.5 4.5 -39.5s8.83301 -39.333 19.5 -61s28.5 -40.167 53.5 -55.5s59.833 -23 104.5 -23s79.334 7.66699 104.001 23s42.667 33.833 54 55.5
s18.333 42 21 61s4.33398 32.167 5.00098 39.5h154c4.66699 -58 -6.66602 -114 -33.999 -168s-67.333 -98.5 -120 -133.5s-114.667 -52.5 -186 -52.5z" />
    <glyph glyph-name="obreve" unicode="&#x14f;" horiz-adv-x="1198" 
d="M589 -16c-90.667 0 -167.667 16 -231 48s-114.666 75.667 -153.999 131s-67.833 118.833 -85.5 190.5s-26.167 147.167 -25.5 226.5c2 119.333 25.667 219.666 71 300.999s106.666 142.833 183.999 184.5s164.333 62.5 261 62.5c121.333 0 218.5 -27.5 291.5 -82.5
s125.667 -127.667 158 -218s47.833 -188.166 46.5 -293.499c-2 -119.333 -25.5 -219.833 -70.5 -301.5s-106 -143.5 -183 -185.5s-164.5 -63 -262.5 -63zM595 147c91.333 -1.33301 160.169 33.166 206.502 103.499s69.5 167.833 69.5 292.5
c0 77.333 -9.33301 147.5 -28 210.5s-47.834 113.5 -87.501 151.5s-90.5 57.333 -152.5 58c-90.667 2 -159 -30.667 -205 -98s-69 -163.333 -69 -288c0 -77.333 9.33301 -148.333 28 -213s47.667 -116.667 87 -156s89.666 -59.666 150.999 -60.999zM609.003 1276
c-74 0 -137.17 17.667 -189.503 53s-91.333 81.166 -117 137.499s-36.167 116.166 -31.5 179.499h158c0.666992 -7.33301 2.16699 -21.333 4.5 -42s8.83301 -42.667 19.5 -66s28.5 -43.5 53.5 -60.5s59.833 -25.5 104.5 -25.5s79.334 8.5 104.001 25.5
s42.667 37.167 54 60.5s18.333 45.333 21 66s4.33398 34.667 5.00098 42h154c4.66699 -63.333 -6.66602 -123.166 -33.999 -179.499s-67.333 -102.166 -120 -137.499s-114.667 -53 -186 -53z" />
    <glyph glyph-name="Ohungarumlaut" unicode="&#x150;" horiz-adv-x="1528" 
d="M758 -16c-138 -2.66699 -257.333 28.832 -358 94.499s-177.667 157 -231 274s-78.333 250.833 -75 401.5c3.33301 166 36.166 304.333 98.499 415s145.333 193.667 249 249s219.167 83.333 346.5 84c132 0.666992 247 -30.166 345 -92.499s173.5 -150.5 226.5 -264.5
s77.833 -247.667 74.5 -401c-3.33301 -166 -34.666 -304.833 -93.999 -416.5s-139.333 -196.167 -240 -253.5s-214.667 -87.333 -342 -90zM764 163.999c132 0 237 49.834 315 149.501s117 246.5 117 440.5c0 102.667 -15.5 197.167 -46.5 283.5
s-77.333 155.666 -139 207.999s-138.5 78.5 -230.5 78.5c-80.667 0 -155 -20.667 -223 -62s-122.5 -105 -163.5 -191s-61.5 -196.333 -61.5 -331c0 -102 16.167 -196.833 48.5 -284.5s80.5 -158.167 144.5 -211.5s143.667 -80 239 -80zM562 1618l-127.999 76.0029
c2 2 10 12.167 24 30.5l50.5 67l58.5 80l49 70.5c13.333 20 20.666 32 21.999 36l178 -90c-26 -36.667 -54 -72.834 -84 -108.501s-59.667 -67.834 -89 -96.501s-56.333 -50.334 -81 -65.001zM1027 1618l-128 76c2.66699 2 11.167 12 25.5 30l52 66l60.5 78.5l51 68
c14 19 21.667 30.5 23 34.5l170 -91c-23.333 -34 -49.833 -68.333 -79.5 -103s-59.667 -66.167 -90 -94.5s-58.5 -49.833 -84.5 -64.5z" />
    <glyph glyph-name="ohungarumlaut" unicode="&#x151;" horiz-adv-x="1198" 
d="M589 -16c-90.667 0 -167.667 16 -231 48s-114.666 75.667 -153.999 131s-67.833 118.833 -85.5 190.5s-26.167 147.167 -25.5 226.5c2 119.333 25.667 219.666 71 300.999s106.666 142.833 183.999 184.5s164.333 62.5 261 62.5c121.333 0 218.5 -27.5 291.5 -82.5
s125.667 -127.667 158 -218s47.833 -188.166 46.5 -293.499c-2 -119.333 -25.5 -219.833 -70.5 -301.5s-106 -143.5 -183 -185.5s-164.5 -63 -262.5 -63zM595 147c91.333 -1.33301 160.169 33.166 206.502 103.499s69.5 167.833 69.5 292.5
c0 77.333 -9.33301 147.5 -28 210.5s-47.834 113.5 -87.501 151.5s-90.5 57.333 -152.5 58c-90.667 2 -159 -30.667 -205 -98s-69 -163.333 -69 -288c0 -77.333 9.33301 -148.333 28 -213s47.667 -116.667 87 -156s89.666 -59.666 150.999 -60.999zM351.003 1313l-104 74
l50.5 79.5l51 79.5l51 80l51 79.5l50.5 79.5l164 -113c-15.333 -26 -36.5 -56.667 -63.5 -92s-56.167 -71 -87.5 -107s-61.5 -68.5 -90.5 -97.5s-53.167 -49.833 -72.5 -62.5zM838.003 1313l-102.001 74l52.5 78l53 78l52.5 78l52.5 78.5l52.5 78.5l158 -113
c-13.333 -24 -33.333 -53.5 -60 -88.5s-56.167 -70.5 -88.5 -106.5s-63.666 -68.333 -93.999 -97s-55.833 -48.667 -76.5 -60z" />
    <glyph glyph-name="OE" unicode="&#x152;" horiz-adv-x="2026" 
d="M99 750c3.33301 164 34.6699 301.001 94.0029 411.001s140.333 193.333 243 250s220 87 352 91c47.333 1.33301 97.5 -3.33398 150.5 -14.001s100.167 -31.334 141.5 -62.001l12 -241c-32.667 44 -73.834 78.167 -123.501 102.5s-110.834 36.5 -183.501 36.5
c-58 0 -114 -11 -168 -33s-102.333 -56.333 -145 -103s-76.334 -107 -101.001 -181s-37 -163 -37 -267c0 -104.667 16.5 -201 49.5 -289s81.833 -158.5 146.5 -211.5s144.667 -79.5 240 -79.5c68.667 0 129.667 12.833 183 38.5s98.333 65.834 135 120.501l4 -223
c-44 -32.667 -92 -59 -144 -79s-115 -31 -189 -33c-137.333 -2 -256 30 -356 96s-176.5 157.167 -229.5 273.5s-77.833 248.5 -74.5 396.5zM1018 0.000976562v1486h865v-180h-630v-450h463v-180h-463v-492h699v-184h-934z" />
    <glyph glyph-name="oe" unicode="&#x153;" horiz-adv-x="1883" 
d="M1367 -16c-160 0 -282.831 50.667 -368.498 152s-128.5 242 -128.5 422c0 108 19 204.667 57 290s94.167 153 168.5 203s166.166 75.667 275.499 77c56 1.33301 108.833 -6.5 158.5 -23.5s93.5 -43.167 131.5 -78.5s68.167 -79.666 90.5 -132.999
s34.166 -116 35.499 -188c0 -40.667 -0.333008 -77.834 -1 -111.501s-3.66699 -63.167 -9 -88.5h-774l20 147h548c3.33301 54 0 104.833 -10 152.5s-30.667 86.334 -62 116.001s-77.666 44.5 -138.999 44.5c-52 0 -98.667 -14.5 -140 -43.5s-73.166 -78 -95.499 -147
s-31.833 -163.167 -28.5 -282.5c4 -83.333 20.833 -149.333 50.5 -198s68.667 -83.334 117 -104.001s102.166 -31 161.499 -31c26 0 57.667 2.66699 95 8s73.666 12.5 108.999 21.5s62.333 19.167 81 30.5l41 -133c-24.667 -20 -58.167 -37.667 -100.5 -53
s-88.333 -27.333 -138 -36s-98.167 -13 -145.5 -13zM591.002 147c92.667 -1.33301 162.333 33.166 209 103.499s70 167.833 70 292.5c0 77.333 -9.33301 147.5 -28 210.5s-47.667 113.5 -87 151.5s-90 57.333 -152 58c-90 2 -158.167 -30.667 -204.5 -98
s-69.5 -163.333 -69.5 -288c0 -77.333 9.33301 -148.333 28 -213s47.167 -116.667 85.5 -156s87.833 -59.666 148.5 -60.999zM587.001 -16.001c-90.667 0 -167.501 15.999 -230.501 47.999s-114 75.667 -153 131s-67.167 118.833 -84.5 190.5s-25.666 147.167 -24.999 226.5
c2 119.333 25.5 219.666 70.5 300.999s106 142.833 183 184.5s164.167 62.5 261.5 62.5c90 0 166.333 -15.833 229 -47.5s113 -75.167 151 -130.5s65.5 -118.666 82.5 -189.999s25.167 -146.666 24.5 -225.999c-2 -119.333 -25.167 -219.833 -69.5 -301.5
s-104.5 -143.5 -180.5 -185.5s-162.333 -63 -259 -63z" />
    <glyph glyph-name="Racute" unicode="&#x154;" horiz-adv-x="1334" 
d="M412 0l-235.999 0.000976562v1486h35h34h35c47.333 0 103.333 2.66699 168 8s136 8 214 8c74.667 0 143 -7.83301 205 -23.5s115.833 -40.334 161.5 -74.001s81 -77.334 106 -131.001s37.5 -118.834 37.5 -195.501c0 -89.333 -15 -164.666 -45 -225.999
s-72.833 -109.666 -128.5 -144.999s-121.834 -59 -198.501 -71c-27.333 -4 -55.5 -7.16699 -84.5 -9.5s-66.833 -4 -113.5 -5s-110 -1.5 -190 -1.5v-620zM412.001 788.001c14 -2 35.501 -3.5 64.501 -4.5s58.5 -1.5 88.5 -1.5h71c96 0 170 23.5 222 70.5
s78 118.833 78 215.5c0 57.333 -9.66699 105.5 -29 144.5s-51.5 68.333 -96.5 88s-105.833 29.5 -182.5 29.5c-38.667 0 -76.834 -1.5 -114.501 -4.5s-71.5 -7.5 -101.5 -13.5v-524zM1012 0.000976562c-8.66699 13.333 -15.998 27.001 -21.998 41.001s-16.667 37 -32 69
c-20.667 44.667 -41 95.167 -61 151.5s-41.833 111.166 -65.5 164.499s-50.834 98.5 -81.501 135.5s-66.667 58.5 -108 64.5l90 70l140 -12c39.333 -16.667 74.5 -46.667 105.5 -90s59.667 -93.5 86 -150.5s51.666 -114.833 75.999 -173.5s49.833 -112 76.5 -160l30 -55.5
l30 -54.5h-264zM570.004 1619l-99.9971 93c1.33301 1.33301 13.333 12.166 36 32.499l82 74.5l96.5 88.5l81.5 76.5c22 21.333 33.667 33.333 35 36l151 -130c-22.667 -23.333 -49.834 -48.666 -81.501 -75.999s-65.334 -54 -101.001 -80s-70.834 -49.167 -105.501 -69.5
s-66 -35.5 -94 -45.5z" />
    <glyph glyph-name="racute" unicode="&#x155;" horiz-adv-x="806" 
d="M370 818l-14 152.001c10 20.667 31 43.5 63 68.5s69.833 46.5 113.5 64.5s88.167 27 133.5 27c25.333 0 47.166 -1 65.499 -3s31.833 -5.66699 40.5 -11v-216c-10 5.33301 -25.167 11 -45.5 17s-53.166 9 -98.499 9c-41.333 0 -78.5 -5.83301 -111.5 -17.5
s-61.833 -25.834 -86.5 -42.501s-44.667 -32.667 -60 -48zM152 0.000976562v1112h196l16 -142l18 -84v-886h-230zM420 1257l-105 86.998l114.5 128.5l114.5 140.5c37.333 48 71.333 95.333 102 142l150 -124c-10 -18 -27 -41.333 -51 -70s-51.333 -59.167 -82 -91.5
s-62 -63.666 -94 -93.999s-61.167 -56.166 -87.5 -77.499s-46.833 -35 -61.5 -41z" />
    <glyph glyph-name="uni0156" unicode="&#x156;" horiz-adv-x="1334" 
d="M412 0l-235.999 0.000976562v1486h35h34h35c47.333 0 103.333 2.66699 168 8s136 8 214 8c74.667 0 143 -7.83301 205 -23.5s115.833 -40.334 161.5 -74.001s81 -77.334 106 -131.001s37.5 -118.834 37.5 -195.501c0 -89.333 -15 -164.666 -45 -225.999
s-72.833 -109.666 -128.5 -144.999s-121.834 -59 -198.501 -71c-27.333 -4 -55.5 -7.16699 -84.5 -9.5s-66.833 -4 -113.5 -5s-110 -1.5 -190 -1.5v-620zM412.001 788.001c14 -2 35.501 -3.5 64.501 -4.5s58.5 -1.5 88.5 -1.5h71c96 0 170 23.5 222 70.5
s78 118.833 78 215.5c0 57.333 -9.66699 105.5 -29 144.5s-51.5 68.333 -96.5 88s-105.833 29.5 -182.5 29.5c-38.667 0 -76.834 -1.5 -114.501 -4.5s-71.5 -7.5 -101.5 -13.5v-524zM1012 0.000976562c-8.66699 13.333 -15.998 27.001 -21.998 41.001s-16.667 37 -32 69
c-20.667 44.667 -41 95.167 -61 151.5s-41.833 111.166 -65.5 164.499s-50.834 98.5 -81.501 135.5s-66.667 58.5 -108 64.5l90 70l140 -12c39.333 -16.667 74.5 -46.667 105.5 -90s59.667 -93.5 86 -150.5s51.666 -114.833 75.999 -173.5s49.833 -112 76.5 -160l30 -55.5
l30 -54.5h-264zM642.004 -545.998l-80.999 40.001v25c10 11.333 18.667 29.5 26 54.5s11 53.5 11 85.5c0 25.333 -5.83301 50.666 -17.5 75.999s-27.167 40.333 -46.5 45v48l159 91c23.333 -10 45.166 -32.833 65.499 -68.5s30.5 -81.167 30.5 -136.5
c0 -46 -8.33301 -87 -25 -123s-36.5 -65.833 -59.5 -89.5s-43.833 -39.5 -62.5 -47.5z" />
    <glyph glyph-name="uni0157" unicode="&#x157;" horiz-adv-x="806" 
d="M370 818l-14 152.001c10 20.667 31 43.5 63 68.5s69.833 46.5 113.5 64.5s88.167 27 133.5 27c25.333 0 47.166 -1 65.499 -3s31.833 -5.66699 40.5 -11v-216c-10 5.33301 -25.167 11 -45.5 17s-53.166 9 -98.499 9c-41.333 0 -78.5 -5.83301 -111.5 -17.5
s-61.833 -25.834 -86.5 -42.501s-44.667 -32.667 -60 -48zM152 0.000976562v1112h196l16 -142l18 -84v-886h-230zM274 -537.999l-106.998 31.999v25c10 11.333 18.667 26.333 26 45s11 43.334 11 74.001c0 31.333 -5.83301 60 -17.5 86s-27.167 41.333 -46.5 46v48l166 82
c20 -10 40 -33 60 -69s30 -81.667 30 -137c0 -34.667 -6.33301 -68.167 -19 -100.5s-28.334 -60.333 -47.001 -84s-37.334 -39.5 -56.001 -47.5z" />
    <glyph glyph-name="Rcaron" unicode="&#x158;" horiz-adv-x="1334" 
d="M412 0l-235.999 0.000976562v1486h35h34h35c47.333 0 103.333 2.66699 168 8s136 8 214 8c74.667 0 143 -7.83301 205 -23.5s115.833 -40.334 161.5 -74.001s81 -77.334 106 -131.001s37.5 -118.834 37.5 -195.501c0 -89.333 -15 -164.666 -45 -225.999
s-72.833 -109.666 -128.5 -144.999s-121.834 -59 -198.501 -71c-27.333 -4 -55.5 -7.16699 -84.5 -9.5s-66.833 -4 -113.5 -5s-110 -1.5 -190 -1.5v-620zM412.001 788.001c14 -2 35.501 -3.5 64.501 -4.5s58.5 -1.5 88.5 -1.5h71c96 0 170 23.5 222 70.5
s78 118.833 78 215.5c0 57.333 -9.66699 105.5 -29 144.5s-51.5 68.333 -96.5 88s-105.833 29.5 -182.5 29.5c-38.667 0 -76.834 -1.5 -114.501 -4.5s-71.5 -7.5 -101.5 -13.5v-524zM1012 0.000976562c-8.66699 13.333 -15.998 27.001 -21.998 41.001s-16.667 37 -32 69
c-20.667 44.667 -41 95.167 -61 151.5s-41.833 111.166 -65.5 164.499s-50.834 98.5 -81.501 135.5s-66.667 58.5 -108 64.5l90 70l140 -12c39.333 -16.667 74.5 -46.667 105.5 -90s59.667 -93.5 86 -150.5s51.666 -114.833 75.999 -173.5s49.833 -112 76.5 -160l30 -55.5
l30 -54.5h-264zM534.004 1628l-246 259l131 65l211 -171l216 171l124 -62l-240 -262h-196z" />
    <glyph glyph-name="rcaron" unicode="&#x159;" horiz-adv-x="806" 
d="M370 818l-14 152.001c10 20.667 31 43.5 63 68.5s69.833 46.5 113.5 64.5s88.167 27 133.5 27c25.333 0 47.166 -1 65.499 -3s31.833 -5.66699 40.5 -11v-216c-10 5.33301 -25.167 11 -45.5 17s-53.166 9 -98.499 9c-41.333 0 -78.5 -5.83301 -111.5 -17.5
s-61.833 -25.834 -86.5 -42.501s-44.667 -32.667 -60 -48zM152 0.000976562v1112h196l16 -142l18 -84v-886h-230zM110 1620l127 60l243 -223l226 223l137 -62l-265 -331h-196z" />
    <glyph glyph-name="Sacute" unicode="&#x15a;" horiz-adv-x="1130" 
d="M551 -16c-64.667 0 -125.836 4.83398 -183.503 14.501s-107.167 21.167 -148.5 34.5s-71 25.666 -89 36.999l49 191c25.333 -14.667 57 -29 95 -43s79.667 -25.5 125 -34.5s91.333 -13.5 138 -13.5c91.333 0 161 15.333 209 46s72 80.667 72 150
c0 46.667 -12 85.834 -36 117.501s-59.833 61.5 -107.5 89.5s-107.167 59 -178.5 93c-60.667 30 -119.5 66 -176.5 108s-103.833 91.333 -140.5 148s-55 121.667 -55 195c0 72 14.167 132.5 42.5 181.5s66.5 88.5 114.5 118.5s101.5 51.667 160.5 65s119.5 20 181.5 20
c90.667 0 165.667 -8.83301 225 -26.5s102 -35.167 128 -52.5l-46 -185c-34 21.333 -73.833 40.5 -119.5 57.5s-108.167 25.5 -187.5 25.5c-48.667 0 -93.667 -6.33301 -135 -19s-74.666 -32 -99.999 -58s-38 -59.333 -38 -100c0 -46 9.5 -84.5 28.5 -115.5
s49.833 -60 92.5 -87s98.667 -58.5 168 -94.5c50 -26 99.333 -53.5 148 -82.5s92.834 -61.167 132.501 -96.5s71.334 -75.833 95.001 -121.5s35.5 -97.834 35.5 -156.501c0 -90.667 -21.167 -166.167 -63.5 -226.5s-101 -105.333 -176 -135s-161.5 -44.5 -259.5 -44.5z
M535.998 1619l-99.9971 93c1.33301 1.33301 13.333 12.166 36 32.499l82 74.5l96.5 88.5l81.5 76.5c22 21.333 33.667 33.333 35 36l151 -130c-22.667 -23.333 -49.834 -48.666 -81.501 -75.999s-65.334 -54 -101.001 -80s-70.834 -49.167 -105.501 -69.5
s-66 -35.5 -94 -45.5z" />
    <glyph glyph-name="sacute" unicode="&#x15b;" horiz-adv-x="960" 
d="M104 66l32.002 169.997c10 -7.33301 30.833 -17.166 62.5 -29.499s69.667 -23.666 114 -33.999s90.166 -15.833 137.499 -16.5c64 -0.666992 112.667 10.333 146 33s50 54.334 50 95.001c0 28.667 -10 53.667 -30 75s-47.5 41.166 -82.5 59.499s-74.833 37.5 -119.5 57.5
c-60 27.333 -113 57 -159 89s-81.833 69.667 -107.5 113s-38.167 95.333 -37.5 156c1.33301 66 20.5 120.833 57.5 164.5s86.167 76.167 147.5 97.5s129.666 32 204.999 32c70 0 131.333 -7.16699 184 -21.5s87.334 -26.5 104.001 -36.5l-34 -174
c-12 10 -30.5 19.833 -55.5 29.5s-53.833 17.5 -86.5 23.5s-66 9 -100 9c-68 0 -119.333 -9.83301 -154 -29.5s-52.667 -47.167 -54 -82.5c-0.666992 -48.667 16.166 -85 50.499 -109s75.5 -47.667 123.5 -71c68.667 -33.333 130.667 -66.166 186 -98.499
s99.166 -69.333 131.499 -111s48.5 -93.167 48.5 -154.5c0 -104 -35.667 -183 -107 -237s-169 -81 -293 -81c-51.333 0 -101.166 4 -149.499 12s-91 18.333 -128 31s-64.5 25.667 -82.5 39zM432.002 1257l-105 86.998l114.5 128.5l114.5 140.5
c37.333 48 71.333 95.333 102 142l150 -124c-10 -18 -27 -41.333 -51 -70s-51.333 -59.167 -82 -91.5s-62 -63.666 -94 -93.999s-61.167 -56.166 -87.5 -77.499s-46.833 -35 -61.5 -41z" />
    <glyph glyph-name="Scircumflex" unicode="&#x15c;" horiz-adv-x="1130" 
d="M551 -16c-64.667 0 -125.836 4.83398 -183.503 14.501s-107.167 21.167 -148.5 34.5s-71 25.666 -89 36.999l49 191c25.333 -14.667 57 -29 95 -43s79.667 -25.5 125 -34.5s91.333 -13.5 138 -13.5c91.333 0 161 15.333 209 46s72 80.667 72 150
c0 46.667 -12 85.834 -36 117.501s-59.833 61.5 -107.5 89.5s-107.167 59 -178.5 93c-60.667 30 -119.5 66 -176.5 108s-103.833 91.333 -140.5 148s-55 121.667 -55 195c0 72 14.167 132.5 42.5 181.5s66.5 88.5 114.5 118.5s101.5 51.667 160.5 65s119.5 20 181.5 20
c90.667 0 165.667 -8.83301 225 -26.5s102 -35.167 128 -52.5l-46 -185c-34 21.333 -73.833 40.5 -119.5 57.5s-108.167 25.5 -187.5 25.5c-48.667 0 -93.667 -6.33301 -135 -19s-74.666 -32 -99.999 -58s-38 -59.333 -38 -100c0 -46 9.5 -84.5 28.5 -115.5
s49.833 -60 92.5 -87s98.667 -58.5 168 -94.5c50 -26 99.333 -53.5 148 -82.5s92.834 -61.167 132.501 -96.5s71.334 -75.833 95.001 -121.5s35.5 -97.834 35.5 -156.501c0 -90.667 -21.167 -166.167 -63.5 -226.5s-101 -105.333 -176 -135s-161.5 -44.5 -259.5 -44.5z
M377.998 1614l-138 61l256 296h198l258 -294l-144 -63l-214 197z" />
    </font>
</defs>
</svg>
